<svg width="17" height="16" viewBox="0 0 17 16" fill="none" xmlns="http://www.w3.org/2000/svg">
<path d="M11.4168 1.29238C12.3066 1.29493 13.1592 1.63621 13.7884 2.24168C14.4176 2.84714 14.7723 3.66759 14.7749 4.52384V10.9861C14.7723 11.8423 14.4176 12.6628 13.7884 13.2682C13.1592 13.8737 12.3066 14.215 11.4168 14.2175H4.70119C3.81137 14.215 2.95876 13.8737 2.32956 13.2682C1.70036 12.6628 1.3457 11.8423 1.34304 10.9861V4.52384C1.3457 3.66759 1.70036 2.84714 2.32956 2.24168C2.95876 1.63621 3.81137 1.29493 4.70119 1.29238H11.4168ZM11.4168 0H4.70119C2.11548 0 0 2.03568 0 4.52384V10.9861C0 13.4742 2.11548 15.5099 4.70119 15.5099H11.4168C14.0025 15.5099 16.118 13.4742 16.118 10.9861V4.52384C16.118 2.03568 14.0025 0 11.4168 0Z" fill="white"/>
<path d="M12.4243 4.52419C12.2251 4.52419 12.0303 4.46734 11.8646 4.36082C11.699 4.2543 11.5699 4.10291 11.4936 3.92578C11.4174 3.74865 11.3974 3.55374 11.4363 3.3657C11.4752 3.17767 11.5711 3.00494 11.712 2.86937C11.8529 2.7338 12.0324 2.64148 12.2278 2.60408C12.4232 2.56667 12.6257 2.58587 12.8098 2.65924C12.9939 2.73261 13.1512 2.85685 13.2619 3.01627C13.3726 3.17568 13.4317 3.3631 13.4317 3.55482C13.432 3.6822 13.4061 3.80837 13.3556 3.9261C13.3051 4.04384 13.2309 4.15081 13.1373 4.24088C13.0437 4.33095 12.9325 4.40234 12.8102 4.45096C12.6878 4.49958 12.5567 4.52446 12.4243 4.52419ZM8.05915 5.1702C8.59048 5.1702 9.10988 5.32182 9.55166 5.60587C9.99345 5.88993 10.3378 6.29366 10.5411 6.76603C10.7444 7.23839 10.7976 7.75817 10.694 8.25963C10.5903 8.76109 10.3345 9.22171 9.95876 9.58325C9.58305 9.94478 9.10437 10.191 8.58325 10.2907C8.06213 10.3905 7.52198 10.3393 7.0311 10.1436C6.54021 9.94797 6.12065 9.61663 5.82546 9.19151C5.53027 8.76639 5.37271 8.26659 5.37271 7.7553C5.37347 7.06992 5.65675 6.41281 6.16039 5.92817C6.66403 5.44353 7.3469 5.17094 8.05915 5.1702ZM8.05915 3.87783C7.2622 3.87783 6.48314 4.10524 5.82049 4.5313C5.15784 4.95736 4.64137 5.56294 4.33639 6.27146C4.03141 6.97997 3.95161 7.75961 4.10709 8.51176C4.26257 9.26392 4.64634 9.95482 5.20987 10.4971C5.77341 11.0394 6.49139 11.4087 7.27304 11.5583C8.05468 11.7079 8.86488 11.6311 9.60117 11.3376C10.3375 11.0441 10.9668 10.5472 11.4096 9.90952C11.8523 9.27187 12.0886 8.5222 12.0886 7.7553C12.0886 6.72693 11.6641 5.74068 10.9084 5.01351C10.1528 4.28635 9.12784 3.87783 8.05915 3.87783Z" fill="white"/>
</svg>
