<svg width="17" height="15" viewBox="0 0 17 15" fill="none" xmlns="http://www.w3.org/2000/svg">
<path fill-rule="evenodd" clip-rule="evenodd" d="M12.0671 0C14.6114 0 16.53 2.07597 16.53 4.82891V10.0765C16.53 11.4855 16.0318 12.7584 15.1264 13.6615C14.3142 14.4707 13.2606 14.8993 12.0793 14.8993H4.55094C3.37199 14.8993 2.3191 14.4714 1.50613 13.6615C0.600711 12.7584 0.102539 11.4855 0.102539 10.0765V4.82891C0.102539 2.07597 2.02111 0 4.56546 0H12.0671ZM12.0671 1.1461H4.56546C2.64383 1.1461 1.24864 2.69487 1.24864 4.82891V10.0765C1.24864 11.1791 1.62762 12.164 2.31528 12.8493C2.9082 13.4415 3.6822 13.7532 4.55323 13.7532H12.0671C12.0686 13.7517 12.0747 13.7532 12.0793 13.7532C12.9511 13.7532 13.7243 13.4415 14.3173 12.8493C15.0057 12.164 15.3839 11.1791 15.3839 10.0765V4.82891C15.3839 2.69487 13.9887 1.1461 12.0671 1.1461ZM13.2712 4.68282C13.4707 4.92808 13.4332 5.28872 13.188 5.48891L9.79245 8.24872C9.36304 8.5895 8.84959 8.75988 8.3369 8.75988C7.82574 8.75988 7.3161 8.59103 6.88975 8.25331L3.46291 5.49044C3.21612 5.29178 3.17791 4.93038 3.37581 4.68435C3.57523 4.43908 3.93587 4.40011 4.1819 4.59801L7.60568 7.35782C8.03586 7.69859 8.64176 7.69859 9.07499 7.35476L12.4644 4.59954C12.7104 4.39859 13.0711 4.43679 13.2712 4.68282Z" fill="white"/>
</svg>
