<svg width="15" height="15" viewBox="0 0 15 15" fill="none" xmlns="http://www.w3.org/2000/svg">
<path fill-rule="evenodd" clip-rule="evenodd" d="M1.63798 2.12547C1.63937 2.12547 1.60465 2.16158 1.56091 2.20462C1.39289 2.36779 1.04504 2.7073 1.04154 3.41757C1.03602 4.41112 1.68936 6.25589 4.83525 9.40108C7.96656 12.531 9.80854 13.192 10.8042 13.192H10.8188C11.529 13.1885 11.8678 12.84 12.0317 12.6726C12.0817 12.6213 12.122 12.5838 12.1504 12.5602C12.842 11.8645 13.1961 11.3465 13.1926 11.0146C13.1877 10.6758 12.7663 10.2752 12.1838 9.72116C11.9984 9.5448 11.797 9.35317 11.5846 9.14072C11.034 8.59152 10.7611 8.68525 10.1612 8.89632C9.33156 9.18724 8.1929 9.58299 6.42381 7.81321C4.65195 6.04273 5.0484 4.90547 5.33862 4.07577C5.5483 3.47589 5.64411 3.20234 5.09283 2.65106C4.8769 2.43583 4.68319 2.2317 4.50476 2.04424C3.95418 1.46519 3.55703 1.04653 3.2203 1.04167H3.21474C2.88217 1.04167 2.36561 1.39715 1.63451 2.12825C1.63659 2.12617 1.63728 2.12547 1.63798 2.12547ZM10.8049 14.2334C9.07466 14.2334 6.81887 12.8559 4.09928 10.1377C1.36928 7.40843 -0.0102982 5.14569 5.78719e-05 3.41202C0.00636513 2.26642 0.606938 1.67973 0.832586 1.45964C0.844389 1.44506 0.884659 1.40548 0.898545 1.39159C1.89418 0.395269 2.56557 -0.00742733 3.23349 0.000103546C4.00903 0.0106246 4.561 0.591062 5.25947 1.32633C5.43235 1.50824 5.61981 1.70611 5.8288 1.91441C6.84248 2.92809 6.55365 3.755 6.32175 4.41876C6.06902 5.14292 5.85032 5.76779 7.15978 7.07725C8.47062 8.3867 9.09549 8.168 9.81687 7.91319C10.4813 7.68129 11.3062 7.39107 12.3212 8.40476C12.5267 8.61027 12.7218 8.79565 12.9017 8.96714C13.6404 9.66908 14.2236 10.2238 14.2335 11.0015C14.2417 11.6645 13.839 12.3401 12.8447 13.335L12.4045 13.0365L12.7767 13.4003C12.5566 13.6259 11.9706 14.2272 10.8243 14.2334H10.8049Z" fill="white"/>
</svg>
