<svg width="26" height="27" viewBox="0 0 26 27" fill="none" xmlns="http://www.w3.org/2000/svg">
<path d="M24.9156 1.93313C24.7375 1.84807 24.5396 1.81303 24.3431 1.83174C24.1466 1.85046 23.9589 1.92223 23.8 2.03938C20.0414 4.855 16.8539 3.50032 13.175 1.91985C9.49609 0.339378 5.16641 -1.52 0.425 2.03938C0.293042 2.13835 0.185938 2.26668 0.112171 2.41421C0.038404 2.56175 0 2.72443 0 2.88938V25.2019C0 25.4837 0.111942 25.7539 0.311199 25.9532C0.510457 26.1524 0.780707 26.2644 1.0625 26.2644C1.34429 26.2644 1.61454 26.1524 1.8138 25.9532C2.01306 25.7539 2.125 25.4837 2.125 25.2019V19.3714C5.69766 16.9675 8.77891 18.2823 12.325 19.8097C14.4898 20.7261 16.8141 21.7222 19.3109 21.7222C21.1437 21.7222 23.0695 21.1909 25.075 19.6769C25.2062 19.5772 25.3128 19.4487 25.3864 19.3014C25.4601 19.154 25.499 18.9916 25.5 18.8269V2.88938C25.4984 2.69199 25.4432 2.49875 25.3403 2.33032C25.2373 2.16189 25.0905 2.0246 24.9156 1.93313ZM16.4688 19.1323V12.0269C13.9586 11.3097 11.5414 9.91516 9.03125 9.19797V16.3167C6.86641 15.7589 4.56875 15.6792 2.125 16.9144V9.90188C4.55547 8.49407 6.82656 8.57375 9.03125 9.19797V2.58391C10.1519 2.95289 11.2514 3.38296 12.325 3.87219C13.6531 4.43 15.0344 5.02766 16.4688 5.39953V12.0269C18.6734 12.6511 20.9445 12.7308 23.375 11.323V18.2823C20.9445 19.9159 18.7398 19.8363 16.4688 19.1323Z" fill="#FFA722"/>
</svg>
