<svg width="27" height="21" viewBox="0 0 27 21" fill="none" xmlns="http://www.w3.org/2000/svg">
<path d="M24.5109 2.625H21.8859V1.75C21.8859 1.28587 21.7016 0.840752 21.3734 0.512563C21.0452 0.184374 20.6001 0 20.1359 0H6.13594C5.67181 0 5.22669 0.184374 4.8985 0.512563C4.57031 0.840752 4.38594 1.28587 4.38594 1.75V2.625H1.75C1.28587 2.625 0.840752 2.80937 0.512563 3.13756C0.184374 3.46575 0 3.91087 0 4.375V6.125C0 7.28532 0.460936 8.39812 1.28141 9.21859C2.10188 10.0391 3.21468 10.5 4.375 10.5H4.8125C5.87344 13.7703 8.77188 16.2203 12.2609 16.5813V19.25H9.63594C9.40387 19.25 9.18131 19.3422 9.01722 19.5063C8.85313 19.6704 8.76094 19.8929 8.76094 20.125C8.76094 20.3571 8.85313 20.5796 9.01722 20.7437C9.18131 20.9078 9.40387 21 9.63594 21H16.6359C16.868 21 17.0906 20.9078 17.2547 20.7437C17.4188 20.5796 17.5109 20.3571 17.5109 20.125C17.5109 19.8929 17.4188 19.6704 17.2547 19.5063C17.0906 19.3422 16.868 19.25 16.6359 19.25H14.0109V16.5813C15.7159 16.4138 17.3337 15.7477 18.6624 14.6662C19.991 13.5846 20.9714 12.1355 21.4813 10.5H21.8859C23.0463 10.5 24.1591 10.0391 24.9795 9.21859C25.8 8.39812 26.2609 7.28532 26.2609 6.125V4.375C26.2609 3.91087 26.0766 3.46575 25.7484 3.13756C25.4202 2.80937 24.9751 2.625 24.5109 2.625ZM4.375 8.75C3.67881 8.75 3.01113 8.47344 2.51884 7.98116C2.02656 7.48887 1.75 6.82119 1.75 6.125V4.375H4.38594V7.77656C4.3875 8.10176 4.40575 8.42667 4.44063 8.75H4.375ZM24.5109 6.125C24.5081 6.82031 24.2306 7.48631 23.7389 7.97797C23.2473 8.46964 22.5812 8.74712 21.8859 8.75H21.8422C21.8734 8.4594 21.888 8.16726 21.8859 7.875V4.375H24.5109V6.125Z" fill="#25EB51"/>
</svg>
