<svg width="15" height="18" viewBox="0 0 15 18" fill="none" xmlns="http://www.w3.org/2000/svg">
<path fill-rule="evenodd" clip-rule="evenodd" d="M7.56622 0.998047C11.5085 0.998047 14.7159 4.22972 14.7159 8.20236C14.7159 13.0858 9.12095 17.8974 7.56622 17.8974C6.01148 17.8974 0.416504 13.0858 0.416504 8.20236C0.416504 4.22972 3.62391 0.998047 7.56622 0.998047ZM7.56622 2.29799C4.34061 2.29799 1.71645 4.94729 1.71645 8.20236C1.71645 12.344 6.59039 16.379 7.56622 16.594C8.54204 16.3782 13.416 12.3431 13.416 8.20236C13.416 4.94729 10.7918 2.29799 7.56622 2.29799ZM7.56708 5.33121C9.12009 5.33121 10.3836 6.59476 10.3836 8.14863C10.3836 9.70163 9.12009 10.9643 7.56708 10.9643C6.01408 10.9643 4.75053 9.70163 4.75053 8.14863C4.75053 6.59476 6.01408 5.33121 7.56708 5.33121ZM7.56708 6.63115C6.73078 6.63115 6.05048 7.31146 6.05048 8.14863C6.05048 8.98493 6.73078 9.66437 7.56708 9.66437C8.40338 9.66437 9.08369 8.98493 9.08369 8.14863C9.08369 7.31146 8.40338 6.63115 7.56708 6.63115Z" fill="white"/>
</svg>
