<svg width="26" height="26" viewBox="0 0 26 26" fill="none" xmlns="http://www.w3.org/2000/svg">
<path d="M24.8538 3.64132C24.7115 2.82134 24.3192 2.06538 23.7308 1.4769C23.1423 0.888411 22.3863 0.49616 21.5663 0.353825C17.6413 -0.308675 10.2663 -0.608674 4.82883 4.82882C-0.608675 10.2663 -0.308675 17.6413 0.353825 21.5663C0.49616 22.3863 0.888411 23.1423 1.4769 23.7308C2.06538 24.3192 2.82134 24.7115 3.64133 24.8538C5.01708 25.0829 6.40914 25.1999 7.80383 25.2038C11.6913 25.2038 16.5288 24.2413 20.3788 20.3788C25.8163 14.9413 25.5163 7.56632 24.8538 3.64132ZM3.97883 22.8788C3.56496 22.8129 3.18253 22.6178 2.88619 22.3215C2.58985 22.0251 2.39477 21.6427 2.32883 21.2288C2.10674 19.9659 1.99383 18.6861 1.99133 17.4038L7.80383 23.2163C6.52152 23.2133 5.24184 23.1004 3.97883 22.8788ZM17.3163 9.31632L15.4288 11.1913L16.5538 12.3163C16.7408 12.5038 16.8459 12.7578 16.8459 13.0226C16.8459 13.2874 16.7408 13.5414 16.5538 13.7288C16.3619 13.9123 16.1069 14.0152 15.8413 14.0163C15.5793 14.0159 15.328 13.9127 15.1413 13.7288L14.0163 12.6038L12.6038 14.0163L13.7288 15.1413C13.9158 15.3288 14.0209 15.5828 14.0209 15.8476C14.0209 16.1124 13.9158 16.3664 13.7288 16.5538C13.6357 16.6475 13.5246 16.7213 13.4021 16.7707C13.2796 16.8201 13.1484 16.8442 13.0163 16.8413C12.8862 16.8439 12.7569 16.8197 12.6365 16.7703C12.516 16.7208 12.4071 16.6471 12.3163 16.5538L11.1913 15.4288L9.31633 17.3163C9.12519 17.5011 8.86971 17.6045 8.60383 17.6045C8.33794 17.6045 8.08247 17.5011 7.89133 17.3163C7.70354 17.1267 7.5982 16.8707 7.5982 16.6038C7.5982 16.337 7.70354 16.0809 7.89133 15.8913L9.77883 14.0163L8.65383 12.8913C8.48147 12.7011 8.38886 12.4519 8.39518 12.1953C8.4015 11.9386 8.50626 11.6943 8.68777 11.5128C8.86928 11.3313 9.11364 11.2265 9.37026 11.2202C9.62688 11.2139 9.8761 11.3065 10.0663 11.4788L11.1913 12.6038L12.6038 11.1913L11.4788 10.0663C11.3065 9.8761 11.2139 9.62688 11.2202 9.37026C11.2265 9.11364 11.3313 8.86928 11.5128 8.68777C11.6943 8.50625 11.9386 8.40149 12.1953 8.39518C12.4519 8.38886 12.7011 8.48147 12.8913 8.65382L14.0163 9.77882L15.8913 7.89132C16.0856 7.73186 16.3323 7.65037 16.5833 7.6627C16.8344 7.67503 17.0719 7.7803 17.2496 7.95804C17.4274 8.13577 17.5326 8.37326 17.545 8.62431C17.5573 8.87537 17.4758 9.12203 17.3163 9.31632ZM17.4038 1.99133C18.6861 1.99432 19.9658 2.10723 21.2288 2.32882C21.6427 2.39477 22.0251 2.58985 22.3215 2.88619C22.6178 3.18253 22.8129 3.56496 22.8788 3.97883C23.1009 5.24177 23.2138 6.5215 23.2163 7.80382L17.4038 1.99133Z" fill="#09C4FF"/>
</svg>
