<svg width="17" height="16" viewBox="0 0 17 16" fill="none" xmlns="http://www.w3.org/2000/svg">
<path d="M14.8113 0H1.66682C0.948581 0 0.321045 0.516795 0.321045 1.2266V14.4003C0.321045 15.114 0.948581 15.7499 1.66682 15.7499H14.8075C15.5296 15.7499 16.071 15.1097 16.071 14.4003V1.2266C16.0752 0.516795 15.5296 0 14.8113 0ZM5.20317 13.1283H2.94685V6.11294H5.20317V13.1283ZM4.15306 5.04631H4.13689C3.41478 5.04631 2.94721 4.50877 2.94721 3.83588C2.94721 3.15069 3.42709 2.62581 4.16536 2.62581C4.90364 2.62581 5.3554 3.14682 5.37157 3.83588C5.37122 4.50877 4.90364 5.04631 4.15306 5.04631ZM13.4494 13.1283H11.1931V9.29246C11.1931 8.37348 10.8647 7.74559 10.0484 7.74559C9.42472 7.74559 9.05558 8.16747 8.8914 8.57844C8.82987 8.7261 8.81335 8.92719 8.81335 9.1325V13.1283H6.55703V6.11294H8.81335V7.08923C9.14171 6.62165 9.65464 5.94876 10.8482 5.94876C12.3293 5.94876 13.4497 6.92505 13.4497 9.02984L13.4494 13.1283Z" fill="white"/>
</svg>
