<svg width="26" height="26" viewBox="0 0 26 26" fill="none" xmlns="http://www.w3.org/2000/svg">
<path d="M24.3634 10.075C23.9223 9.62232 23.4696 9.14643 23.2955 8.74018C23.1214 8.33393 23.133 7.73036 23.1214 7.11518C23.1098 5.98929 23.0866 4.70089 22.1929 3.80714C21.2991 2.91339 20.0107 2.89018 18.8848 2.87857C18.2696 2.86696 17.6429 2.85536 17.2598 2.70446C16.8768 2.55357 16.3777 2.07768 15.925 1.63661C15.1241 0.870536 14.2071 0 13 0C11.7929 0 10.8759 0.870536 10.075 1.63661C9.62232 2.07768 9.14643 2.53036 8.74018 2.70446C8.33393 2.87857 7.73036 2.86696 7.11518 2.87857C5.98929 2.89018 4.70089 2.91339 3.80714 3.80714C2.91339 4.70089 2.89018 5.98929 2.87857 7.11518C2.86696 7.73036 2.85536 8.35714 2.70446 8.74018C2.55357 9.12321 2.07768 9.62232 1.63661 10.075C0.870536 10.8759 0 11.7929 0 13C0 14.2071 0.870536 15.1241 1.63661 15.925C2.07768 16.3777 2.53036 16.8536 2.70446 17.2598C2.87857 17.6661 2.86696 18.2696 2.87857 18.8848C2.89018 20.0107 2.91339 21.2991 3.80714 22.1929C4.70089 23.0866 5.98929 23.1098 7.11518 23.1214C7.73036 23.133 8.35714 23.1446 8.74018 23.2955C9.12321 23.4464 9.62232 23.9223 10.075 24.3634C10.8759 25.1295 11.7929 26 13 26C14.2071 26 15.1241 25.1295 15.925 24.3634C16.3777 23.9223 16.8536 23.4696 17.2598 23.2955C17.6661 23.1214 18.2696 23.133 18.8848 23.1214C20.0107 23.1098 21.2991 23.0866 22.1929 22.1929C23.0866 21.2991 23.1098 20.0107 23.1214 18.8848C23.133 18.2696 23.1446 17.6429 23.2955 17.2598C23.4464 16.8768 23.9223 16.3777 24.3634 15.925C25.1295 15.1241 26 14.2071 26 13C26 11.7929 25.1295 10.8759 24.3634 10.075ZM18.7455 10.8875L11.9437 17.3875C11.7679 17.5529 11.5352 17.6443 11.2937 17.6429C11.0559 17.6438 10.827 17.5522 10.6554 17.3875L7.25446 14.1375C7.16014 14.0552 7.08342 13.9547 7.02893 13.842C6.97444 13.7293 6.94331 13.6067 6.93739 13.4817C6.93147 13.3566 6.9509 13.2317 6.99451 13.1143C7.03811 12.997 7.10499 12.8897 7.19113 12.7989C7.27727 12.708 7.38088 12.6355 7.49575 12.5858C7.61061 12.536 7.73435 12.51 7.85953 12.5092C7.98471 12.5085 8.10875 12.5331 8.22418 12.5815C8.33961 12.63 8.44406 12.7012 8.53125 12.7911L11.2937 15.4259L17.4688 9.54107C17.6493 9.38355 17.8838 9.30192 18.1231 9.31324C18.3624 9.32456 18.5881 9.42797 18.753 9.60183C18.9179 9.7757 19.0092 10.0066 19.0078 10.2462C19.0064 10.4858 18.9124 10.7156 18.7455 10.8875Z" fill="#A762FF"/>
</svg>
