<svg width="30" height="31" viewBox="0 0 30 31" fill="none" xmlns="http://www.w3.org/2000/svg">
<path d="M21.364 19.364C24.8787 15.8492 24.8787 10.1508 21.364 6.63604C17.8493 3.12132 12.1508 3.12132 8.63606 6.63604C5.12134 10.1508 5.12134 15.8492 8.63606 19.364C12.1508 22.8787 17.8493 22.8787 21.364 19.364Z" stroke="#F13742" stroke-width="2" stroke-linecap="round" stroke-linejoin="round"/>
<path d="M8.6228 6.6493C10.3048 8.33482 11.2495 10.6188 11.2495 13C11.2495 15.3812 10.3048 17.6652 8.6228 19.3507" stroke="#F13742" stroke-width="2" stroke-linecap="round" stroke-linejoin="round"/>
<path d="M21.3773 6.6493C19.6952 8.33482 18.7506 10.6188 18.7506 13C18.7506 15.3812 19.6952 17.6652 21.3773 19.3507" stroke="#F13742" stroke-width="2" stroke-linecap="round" stroke-linejoin="round"/>
<path d="M1 30C2.41867 27.5677 4.45935 25.5479 6.91688 24.1436C9.37442 22.7393 12.1622 22 15 22C17.8378 22 20.6256 22.7393 23.0831 24.1436C25.5407 25.5479 27.5813 27.5677 29 30" stroke="#F13742" stroke-width="2" stroke-linecap="round" stroke-linejoin="round"/>
</svg>
