<svg width="38" height="39" viewBox="0 0 38 39" fill="none" xmlns="http://www.w3.org/2000/svg">
<path d="M27.4015 27.626C21.2265 33.7862 12.6765 33.2963 8.54998 32.5987C7.81891 32.4761 7.14429 32.1285 6.62013 31.6043C6.09597 31.0802 5.74837 30.4055 5.62576 29.6745C4.92811 25.5479 4.43826 16.9979 10.5984 10.8229C16.7586 4.64792 25.3234 5.15261 29.45 5.85026C30.181 5.97287 30.8557 6.32047 31.3798 6.84463C31.904 7.3688 32.2516 8.04341 32.3742 8.77448C33.0718 12.901 33.5617 21.451 27.4015 27.626Z" stroke="#F13742" stroke-width="2" stroke-linecap="round" stroke-linejoin="round"/>
<path d="M23.75 14.4745L14.25 23.9745" stroke="#F13742" stroke-width="2" stroke-linecap="round" stroke-linejoin="round"/>
<path d="M18.5101 15.38L22.8445 19.7144" stroke="#F13742" stroke-width="2" stroke-linecap="round" stroke-linejoin="round"/>
<path d="M15.1554 18.7346L19.4898 23.069" stroke="#F13742" stroke-width="2" stroke-linecap="round" stroke-linejoin="round"/>
<path d="M21.9984 5.5979L32.6265 16.226" stroke="#F13742" stroke-width="2" stroke-linecap="round" stroke-linejoin="round"/>
<path d="M5.37347 22.2229L16.0016 32.851" stroke="#F13742" stroke-width="2" stroke-linecap="round" stroke-linejoin="round"/>
</svg>
