<svg width="20" height="19" viewBox="0 0 20 19" fill="none" xmlns="http://www.w3.org/2000/svg">
<path d="M1.97405 1.13631C1.83945 1.1404 1.70709 1.16976 1.58481 1.22264C1.46253 1.27551 1.35282 1.35084 1.26217 1.44416C1.17153 1.53747 1.10179 1.64688 1.05708 1.76589C1.01238 1.88491 0.993616 2.01112 1.00191 2.13706C1.1364 4.29695 1.7704 9.5671 4.80595 12.8537C8.44092 16.8135 13.1748 18.1779 18.0317 17.9763C18.292 17.9617 18.5368 17.8551 18.7165 17.6781C18.8962 17.501 18.9975 17.2667 19 17.0223V13.5629C18.997 13.2401 18.8783 12.9277 18.663 12.6757C18.4476 12.4237 18.1482 12.2468 17.8127 12.1734L15.3804 11.6694C15.0796 11.6093 14.7664 11.6352 14.4815 11.7436C14.1965 11.8521 13.9528 12.0382 13.7819 12.2778L13.244 13.0409C13.1946 13.1108 13.1208 13.1623 13.0352 13.1866C12.9496 13.2109 12.8577 13.2065 12.7752 13.1741C11.5379 12.6737 6.60806 10.5138 6.06628 6.87083C6.05566 6.80047 6.06751 6.72874 6.10033 6.66468C6.13316 6.60062 6.18548 6.5471 6.25071 6.51084L7.2267 5.95287C7.4944 5.79744 7.70467 5.56872 7.82906 5.29766C7.95345 5.0266 7.98596 4.72628 7.92218 4.43735L7.38808 2.11906C7.31 1.79424 7.11418 1.5048 6.83395 1.30003C6.55371 1.09525 6.20639 0.987778 5.8511 0.995914L1.97405 1.13631Z" stroke="white"/>
</svg>
