<svg width="30" height="29" viewBox="0 0 30 29" fill="none" xmlns="http://www.w3.org/2000/svg">
<path d="M15 10.5454C15 11.4617 14.6663 12.3403 14.0725 12.9882C13.4786 13.636 12.6731 14 11.8333 14C10.9934 14 10.188 13.636 9.59412 12.9882C9.00026 12.3403 8.66663 11.4617 8.66663 10.5454V4.78787C8.66663 3.87167 9.00026 2.99299 9.59412 2.34514C10.188 1.69729 10.9934 1.33333 11.8333 1.33333C12.6731 1.33333 13.4786 1.69729 14.0725 2.34514C14.6663 2.99299 15 3.87167 15 4.78787V10.5454Z" stroke="#F13742" stroke-width="1.5" stroke-linecap="round" stroke-linejoin="round"/>
<path d="M15 4.49999C15 3.66014 15.4004 2.85469 16.113 2.26082C16.8256 1.66696 17.7922 1.33333 18.8 1.33333C19.8078 1.33333 20.7744 1.66696 21.487 2.26082C22.1996 2.85469 22.6 3.66014 22.6 4.49999V7.66666" stroke="#F13742" stroke-width="1.5" stroke-linecap="round" stroke-linejoin="round"/>
<path d="M15 20.7133C15 19.1176 15.6116 17.5873 16.7004 16.4589C17.7891 15.3306 19.2658 14.6967 20.8055 14.6967H18.4833C18.0253 14.6987 17.5715 14.6066 17.148 14.4259C16.7245 14.2452 16.3398 13.9794 16.0159 13.6438C15.6921 13.3081 15.4356 12.9094 15.2612 12.4705C15.0868 12.0316 14.998 11.5613 15 11.0867V8.68C15 8.36086 15.1223 8.05479 15.34 7.82912C15.5578 7.60345 15.8531 7.47667 16.1611 7.47667H25.45C25.9079 7.47468 26.3618 7.5667 26.7852 7.74741C27.2087 7.92812 27.5935 8.19396 27.9173 8.52958C28.2412 8.86519 28.4977 9.26395 28.672 9.70283C28.8464 10.1417 28.9352 10.612 28.9333 11.0867V13.4933C28.9333 17.3231 27.4653 20.9959 24.8523 23.704C22.2393 26.412 18.6953 27.9333 15 27.9333C11.3046 27.9333 7.76063 26.412 5.14762 23.704C2.53462 20.9959 1.06665 17.3231 1.06665 13.4933V7.47667C1.06665 6.51924 1.43364 5.60102 2.08689 4.92401C2.74015 4.24701 3.62614 3.86667 4.54998 3.86667C5.47382 3.86667 6.35982 4.24701 7.01307 4.92401C7.66632 5.60102 8.03331 6.51924 8.03331 7.47667V9.88334C8.03331 10.8408 7.66632 11.759 7.01307 12.436C6.35982 13.113 5.47382 13.4933 4.54998 13.4933C3.62614 13.4933 2.74015 13.113 2.08689 12.436C1.43364 11.759 1.06665 10.8408 1.06665 9.88334" stroke="#F13742" stroke-width="1.5" stroke-linecap="round" stroke-linejoin="round"/>
</svg>
