<svg width="204" height="46" viewBox="0 0 204 46" fill="none" xmlns="http://www.w3.org/2000/svg">
<rect width="203.073" height="46" fill="black"/>
<path d="M62.7216 29.1874C61.8958 29.1874 61.1119 29.0199 60.37 28.6848C59.6399 28.3497 58.9937 27.8889 58.4312 27.3025C57.8807 26.7042 57.4499 26.01 57.1387 25.2202C56.8276 24.4303 56.672 23.5747 56.672 22.6532C56.672 21.7795 56.8276 20.9598 57.1387 20.1939C57.4499 19.416 57.8867 18.7338 58.4492 18.1474C59.0116 17.561 59.6699 17.1003 60.4238 16.7652C61.1778 16.4301 61.9975 16.2625 62.8831 16.2625C64.0799 16.2625 65.1031 16.5198 65.9528 17.0344C66.8144 17.5371 67.4607 18.2072 67.8915 19.045L66.0425 20.4093C65.7194 19.775 65.2647 19.2903 64.6782 18.9552C64.1038 18.6201 63.4755 18.4526 62.7934 18.4526C62.2548 18.4526 61.7642 18.5663 61.3214 18.7937C60.8786 19.021 60.4956 19.3322 60.1725 19.7271C59.8494 20.122 59.5981 20.5768 59.4185 21.0914C59.251 21.606 59.1672 22.1505 59.1672 22.725C59.1672 23.3353 59.257 23.8978 59.4365 24.4124C59.628 24.927 59.8913 25.3758 60.2263 25.7587C60.5734 26.1417 60.9743 26.4469 61.4291 26.6742C61.8838 26.8897 62.3865 26.9974 62.937 26.9974C63.5832 26.9974 64.1995 26.8298 64.786 26.4947C65.3843 26.1596 65.9408 25.669 66.4554 25.0227V27.4641C65.3903 28.613 64.1457 29.1874 62.7216 29.1874ZM66.2759 24.3585H63.7089V22.5455H68.3223V29.0977H66.2759V24.3585ZM79.5528 29.1874C78.6193 29.1874 77.7696 29.0079 77.0037 28.6489C76.2498 28.2899 75.5975 27.8052 75.047 27.1948C74.5085 26.5725 74.0896 25.8784 73.7905 25.1125C73.4913 24.3346 73.3417 23.5388 73.3417 22.725C73.3417 21.8753 73.4973 21.0675 73.8084 20.3016C74.1315 19.5237 74.5683 18.8355 75.1188 18.2372C75.6813 17.6268 76.3395 17.1481 77.0935 16.8011C77.8594 16.442 78.6971 16.2625 79.6067 16.2625C80.5281 16.2625 81.3659 16.448 82.1198 16.819C82.8857 17.19 83.538 17.6867 84.0765 18.309C84.615 18.9313 85.0339 19.6254 85.3331 20.3913C85.6323 21.1572 85.7819 21.9471 85.7819 22.7609C85.7819 23.5986 85.6263 24.4064 85.3151 25.1843C85.004 25.9502 84.5672 26.6383 84.0047 27.2487C83.4542 27.8471 82.796 28.3198 82.0301 28.6668C81.2761 29.0139 80.4504 29.1874 79.5528 29.1874ZM75.8548 22.725C75.8548 23.2755 75.9386 23.808 76.1062 24.3226C76.2737 24.8372 76.5131 25.298 76.8242 25.7049C77.1473 26.0998 77.5363 26.4169 77.991 26.6563C78.4578 26.8837 78.9843 26.9974 79.5707 26.9974C80.1691 26.9974 80.7017 26.8777 81.1684 26.6383C81.6351 26.387 82.0241 26.0579 82.3352 25.651C82.6464 25.2322 82.8798 24.7714 83.0353 24.2688C83.2029 23.7542 83.2867 23.2396 83.2867 22.725C83.2867 22.1745 83.1969 21.6479 83.0174 21.1453C82.8498 20.6307 82.6045 20.1759 82.2814 19.781C81.9702 19.3741 81.5813 19.0569 81.1146 18.8296C80.6598 18.5902 80.1452 18.4705 79.5707 18.4705C78.9604 18.4705 78.4219 18.5962 77.9551 18.8475C77.5004 19.0869 77.1174 19.41 76.8063 19.8169C76.4951 20.2238 76.2558 20.6785 76.0882 21.1812C75.9326 21.6838 75.8548 22.1984 75.8548 22.725ZM91.3622 29.0977V16.3523H93.8394V26.9256H100.338V29.0977H91.3622ZM105.525 29.0977V16.3523H110.157C111.545 16.3523 112.706 16.6395 113.639 17.2139C114.573 17.7764 115.273 18.5423 115.74 19.5117C116.206 20.4691 116.44 21.5342 116.44 22.707C116.44 23.9995 116.182 25.1245 115.668 26.0819C115.153 27.0392 114.423 27.7812 113.478 28.3078C112.544 28.8344 111.437 29.0977 110.157 29.0977H105.525ZM113.945 22.707C113.945 21.8813 113.795 21.1572 113.496 20.5349C113.197 19.9006 112.766 19.41 112.203 19.0629C111.641 18.7039 110.959 18.5244 110.157 18.5244H108.003V26.9256H110.157C110.971 26.9256 111.659 26.746 112.221 26.387C112.784 26.016 113.209 25.5134 113.496 24.8791C113.795 24.2329 113.945 23.5088 113.945 22.707ZM129.276 22.6352C129.276 21.8573 129.413 21.0974 129.689 20.3554C129.976 19.6015 130.389 18.9193 130.927 18.309C131.466 17.6867 132.124 17.196 132.902 16.837C133.68 16.466 134.565 16.2805 135.559 16.2805C136.732 16.2805 137.743 16.5378 138.593 17.0524C139.454 17.567 140.094 18.2372 140.513 19.0629L138.61 20.3734C138.395 19.8947 138.114 19.5177 137.767 19.2424C137.42 18.9552 137.049 18.7578 136.654 18.65C136.259 18.5304 135.87 18.4705 135.487 18.4705C134.865 18.4705 134.32 18.5962 133.853 18.8475C133.399 19.0988 133.016 19.4279 132.705 19.8348C132.393 20.2417 132.16 20.6965 132.004 21.1991C131.861 21.7018 131.789 22.2044 131.789 22.707C131.789 23.2695 131.879 23.814 132.058 24.3406C132.238 24.8552 132.489 25.3159 132.812 25.7228C133.147 26.1178 133.542 26.4349 133.997 26.6742C134.464 26.9016 134.972 27.0153 135.523 27.0153C135.918 27.0153 136.319 26.9495 136.726 26.8179C137.132 26.6862 137.509 26.4768 137.857 26.1896C138.204 25.9023 138.473 25.5313 138.664 25.0766L140.693 26.2434C140.442 26.8777 140.029 27.4162 139.454 27.859C138.892 28.3018 138.257 28.6369 137.551 28.8643C136.845 29.0917 136.145 29.2054 135.451 29.2054C134.542 29.2054 133.71 29.0199 132.956 28.6489C132.202 28.2659 131.55 27.7633 130.999 27.141C130.461 26.5067 130.036 25.8006 129.725 25.0227C129.425 24.2329 129.276 23.437 129.276 22.6352ZM146.034 29.0977V16.3523H148.511V26.9256H155.01V29.0977H146.034ZM165.268 29.1874C164.25 29.1874 163.383 29.0199 162.665 28.6848C161.959 28.3377 161.384 27.865 160.941 27.2666C160.511 26.6683 160.193 25.9921 159.99 25.2381C159.787 24.4722 159.685 23.6764 159.685 22.8506V16.3523H162.162V22.8506C162.162 23.3772 162.21 23.8918 162.306 24.3944C162.413 24.8851 162.587 25.3279 162.826 25.7228C163.066 26.1178 163.383 26.4289 163.778 26.6563C164.173 26.8837 164.663 26.9974 165.25 26.9974C165.848 26.9974 166.345 26.8837 166.74 26.6563C167.147 26.4169 167.464 26.0998 167.691 25.7049C167.93 25.3099 168.104 24.8672 168.212 24.3765C168.319 23.8739 168.373 23.3652 168.373 22.8506V16.3523H170.833V22.8506C170.833 23.7243 170.725 24.544 170.509 25.3099C170.306 26.0759 169.977 26.752 169.522 27.3384C169.079 27.9129 168.505 28.3676 167.799 28.7027C167.093 29.0259 166.249 29.1874 165.268 29.1874ZM187.276 25.8126C187.276 26.5306 187.09 27.135 186.719 27.6257C186.348 28.1044 185.846 28.4694 185.211 28.7207C184.589 28.972 183.907 29.0977 183.165 29.0977H177.008V16.3523H183.829C184.428 16.3523 184.942 16.5139 185.373 16.837C185.816 17.1481 186.151 17.555 186.378 18.0577C186.618 18.5483 186.737 19.0629 186.737 19.6015C186.737 20.2118 186.582 20.7922 186.271 21.3427C185.959 21.8932 185.505 22.3001 184.906 22.5634C185.636 22.7788 186.211 23.1678 186.63 23.7302C187.06 24.2927 187.276 24.9868 187.276 25.8126ZM184.781 25.3459C184.781 25.0227 184.715 24.7355 184.583 24.4842C184.451 24.2209 184.272 24.0175 184.045 23.8739C183.829 23.7183 183.578 23.6405 183.291 23.6405H179.485V26.9974H183.165C183.464 26.9974 183.733 26.9256 183.973 26.7819C184.224 26.6264 184.422 26.4229 184.565 26.1716C184.709 25.9203 184.781 25.645 184.781 25.3459ZM179.485 18.4705V21.6838H182.788C183.063 21.6838 183.315 21.618 183.542 21.4863C183.769 21.3547 183.949 21.1692 184.081 20.9299C184.224 20.6905 184.296 20.4033 184.296 20.0682C184.296 19.7451 184.23 19.4638 184.098 19.2245C183.979 18.9851 183.811 18.7996 183.596 18.668C183.392 18.5364 183.159 18.4705 182.896 18.4705H179.485Z" fill="white"/>
<path d="M39.2683 14.5854L41.2834 20.7874H47.8046L42.5289 24.6205L44.544 30.8225L39.2683 26.9894L33.9926 30.8225L36.0077 24.6205L30.732 20.7874H37.2531L39.2683 14.5854Z" fill="#FFAC2F"/>
<path d="M19.2886 30.6503C18.3671 30.6503 17.5354 30.4529 16.7934 30.0579C16.0514 29.663 15.4889 29.1245 15.106 28.4423L16.4882 27.0062C16.8233 27.473 17.2422 27.8439 17.7448 28.1192C18.2474 28.3944 18.768 28.5321 19.3065 28.5321C19.7374 28.5321 20.1143 28.4423 20.4375 28.2628C20.7726 28.0833 21.0358 27.832 21.2273 27.5089C21.4188 27.1857 21.5145 26.8147 21.5145 26.3959C21.5145 25.977 21.4248 25.612 21.2453 25.3009C21.0658 24.9897 20.8204 24.7503 20.5093 24.5828C20.1981 24.4033 19.8451 24.3135 19.4502 24.3135C19.0552 24.3135 18.6842 24.4033 18.3372 24.5828C18.0021 24.7503 17.7328 24.9957 17.5294 25.3188H15.4291L16.9011 17.7254H23.184V19.9155H18.6423L18.1218 22.7697C18.2773 22.6261 18.4928 22.5064 18.768 22.4107C19.0433 22.303 19.3843 22.2491 19.7912 22.2491C20.593 22.2491 21.3111 22.4227 21.9454 22.7697C22.5796 23.1168 23.0763 23.6015 23.4353 24.2238C23.7943 24.8341 23.9739 25.5402 23.9739 26.342C23.9739 27.1917 23.7704 27.9397 23.3635 28.5859C22.9566 29.2441 22.4001 29.7528 21.6941 30.1118C20.988 30.4708 20.1862 30.6503 19.2886 30.6503Z" fill="white"/>
</svg>
