<svg width="15" height="14" viewBox="0 0 15 14" fill="none" xmlns="http://www.w3.org/2000/svg">
<path d="M13.2076 0H1.52358C0.885143 0 0.327332 0.459375 0.327332 1.09031V12.8003C0.327332 13.4347 0.885143 14 1.52358 14H13.2042C13.8461 14 14.3273 13.4309 14.3273 12.8003V1.09031C14.3311 0.459375 13.8461 0 13.2076 0ZM4.66701 11.6697H2.66139V5.43375H4.66701V11.6697ZM3.73358 4.48562H3.7192C3.07733 4.48562 2.6617 4.00781 2.6617 3.40969C2.6617 2.80063 3.08826 2.33406 3.74451 2.33406C4.40076 2.33406 4.80232 2.79719 4.8167 3.40969C4.81639 4.00781 4.40076 4.48562 3.73358 4.48562ZM11.997 11.6697H9.99138V8.26C9.99138 7.44313 9.6995 6.885 8.97388 6.885C8.41951 6.885 8.09138 7.26 7.94544 7.62531C7.89076 7.75656 7.87607 7.93531 7.87607 8.11781V11.6697H5.87045V5.43375H7.87607V6.30156C8.16794 5.88594 8.62388 5.28781 9.68482 5.28781C11.0014 5.28781 11.9973 6.15563 11.9973 8.02656L11.997 11.6697Z" fill="black"/>
</svg>
