<svg width="180" height="47" viewBox="0 0 180 47" fill="none" xmlns="http://www.w3.org/2000/svg">
<path d="M50.4077 16.8289C50.4077 15.6368 50.6354 14.5184 51.0908 13.4737C51.5461 12.429 52.1623 11.5182 52.9391 10.7414C53.7293 9.95112 54.6468 9.32831 55.6915 8.87292C56.7363 8.41753 57.8546 8.18983 59.0467 8.18983H72.2664V13.9559H59.0467C58.6449 13.9559 58.2699 14.0295 57.9216 14.1769C57.5734 14.3242 57.2653 14.5318 56.9974 14.7997C56.743 15.0542 56.542 15.3555 56.3947 15.7038C56.2474 16.052 56.1737 16.427 56.1737 16.8289C56.1737 17.2307 56.2474 17.6124 56.3947 17.974C56.542 18.3223 56.743 18.6303 56.9974 18.8982C57.2653 19.1527 57.5734 19.3536 57.9216 19.5009C58.2699 19.6483 58.6449 19.7219 59.0467 19.7219H64.8128C66.0048 19.7219 67.1232 19.9496 68.1679 20.405C69.226 20.847 70.1435 21.4631 70.9203 22.2534C71.7106 23.0302 72.3267 23.9477 72.7687 25.0058C73.2241 26.0505 73.4518 27.1689 73.4518 28.361C73.4518 29.553 73.2241 30.6714 72.7687 31.7161C72.3267 32.7608 71.7106 33.6783 70.9203 34.4686C70.1435 35.2454 69.226 35.8615 68.1679 36.3169C67.1232 36.7723 66.0048 37 64.8128 37H52.0149V31.2339H64.8128C65.2146 31.2339 65.5896 31.1603 65.9378 31.0129C66.2861 30.8656 66.5874 30.6647 66.8419 30.4102C67.1098 30.1423 67.3174 29.8343 67.4647 29.4861C67.6121 29.1378 67.6857 28.7628 67.6857 28.361C67.6857 27.9592 67.6121 27.5841 67.4647 27.2359C67.3174 26.8876 67.1098 26.5863 66.8419 26.3318C66.5874 26.0639 66.2861 25.8563 65.9378 25.709C65.5896 25.5617 65.2146 25.488 64.8128 25.488H59.0467C57.8546 25.488 56.7363 25.2603 55.6915 24.8049C54.6468 24.3495 53.7293 23.7334 52.9391 22.9565C52.1623 22.1663 51.5461 21.2488 51.0908 20.2041C50.6354 19.146 50.4077 18.0209 50.4077 16.8289ZM97.4603 26.0505C97.4603 27.6578 97.1723 29.1579 96.5964 30.5509C96.0204 31.9304 95.2369 33.1292 94.2457 34.1471C93.2546 35.1516 92.0893 35.9486 90.7499 36.5379C89.4239 37.1138 87.9975 37.4018 86.4706 37.4018C84.9571 37.4018 83.5307 37.1138 82.1913 36.5379C80.8653 35.9486 79.7 35.1516 78.6955 34.1471C77.7043 33.1292 76.9208 31.9304 76.3449 30.5509C75.7689 29.1579 75.481 27.6578 75.481 26.0505C75.481 24.4165 75.7689 22.903 76.3449 21.51C76.9208 20.1171 77.7043 18.9183 78.6955 17.9138C79.7 16.8958 80.8653 16.0989 82.1913 15.523C83.5307 14.947 84.9571 14.6591 86.4706 14.6591C87.9975 14.6591 89.4239 14.9336 90.7499 15.4828C92.0893 16.0185 93.2546 16.7887 94.2457 17.7932C95.2369 18.7844 96.0204 19.9831 96.5964 21.3895C97.1723 22.7824 97.4603 24.3361 97.4603 26.0505ZM91.9353 26.0505C91.9353 25.1665 91.788 24.3696 91.4933 23.6597C91.212 22.9365 90.8236 22.3203 90.328 21.8114C89.8325 21.289 89.2498 20.8939 88.5801 20.626C87.9238 20.3447 87.2207 20.2041 86.4706 20.2041C85.7205 20.2041 85.0107 20.3447 84.341 20.626C83.6847 20.8939 83.1087 21.289 82.6132 21.8114C82.131 22.3203 81.7493 22.9365 81.468 23.6597C81.1867 24.3696 81.0461 25.1665 81.0461 26.0505C81.0461 26.8809 81.1867 27.6511 81.468 28.361C81.7493 29.0708 82.131 29.687 82.6132 30.2093C83.1087 30.7317 83.6847 31.1469 84.341 31.4549C85.0107 31.7496 85.7205 31.8969 86.4706 31.8969C87.2207 31.8969 87.9238 31.7563 88.5801 31.475C89.2498 31.1938 89.8325 30.7986 90.328 30.2897C90.8236 29.7807 91.212 29.1646 91.4933 28.4413C91.788 27.7181 91.9353 26.9211 91.9353 26.0505ZM119.299 19.7621L115.281 23.8004C115.08 23.2378 114.805 22.7356 114.457 22.2936C114.109 21.8382 113.714 21.4564 113.272 21.1484C112.843 20.8403 112.374 20.6059 111.865 20.4452C111.356 20.2845 110.834 20.2041 110.298 20.2041C109.548 20.2041 108.838 20.3581 108.169 20.6662C107.512 20.9743 106.936 21.4096 106.441 21.9721C105.959 22.5212 105.577 23.1775 105.296 23.941C105.014 24.7044 104.874 25.5483 104.874 26.4724C104.874 27.2225 105.014 27.9257 105.296 28.582C105.577 29.2383 105.959 29.8142 106.441 30.3098C106.936 30.8053 107.512 31.1938 108.169 31.475C108.838 31.7563 109.548 31.8969 110.298 31.8969C110.834 31.8969 111.35 31.8233 111.845 31.6759C112.341 31.5286 112.803 31.321 113.232 31.0531C113.674 30.7719 114.062 30.437 114.397 30.0486C114.745 29.6468 115.026 29.2048 115.241 28.7226L119.259 32.7608C118.75 33.4841 118.16 34.1337 117.491 34.7097C116.834 35.2856 116.118 35.7745 115.341 36.1763C114.578 36.5781 113.767 36.8795 112.91 37.0804C112.066 37.2947 111.196 37.4018 110.298 37.4018C108.785 37.4018 107.358 37.1205 106.019 36.558C104.693 35.9821 103.528 35.1985 102.523 34.2074C101.532 33.2162 100.748 32.0577 100.173 30.7317C99.5966 29.4057 99.3086 27.9859 99.3086 26.4724C99.3086 24.825 99.5966 23.2847 100.173 21.8516C100.748 20.4184 101.532 19.1728 102.523 18.1147C103.528 17.0432 104.693 16.1994 106.019 15.5832C107.358 14.9671 108.785 14.6591 110.298 14.6591C111.196 14.6591 112.073 14.7729 112.93 15.0006C113.801 15.2283 114.624 15.5631 115.401 16.0051C116.192 16.4337 116.915 16.9628 117.571 17.5923C118.241 18.2218 118.817 18.9451 119.299 19.7621ZM140.475 19.7621L136.456 23.8004C136.256 23.2378 135.981 22.7356 135.633 22.2936C135.284 21.8382 134.889 21.4564 134.447 21.1484C134.019 20.8403 133.55 20.6059 133.041 20.4452C132.532 20.2845 132.01 20.2041 131.474 20.2041C130.724 20.2041 130.014 20.3581 129.344 20.6662C128.688 20.9743 128.112 21.4096 127.617 21.9721C127.134 22.5212 126.753 23.1775 126.471 23.941C126.19 24.7044 126.049 25.5483 126.049 26.4724C126.049 27.2225 126.19 27.9257 126.471 28.582C126.753 29.2383 127.134 29.8142 127.617 30.3098C128.112 30.8053 128.688 31.1938 129.344 31.475C130.014 31.7563 130.724 31.8969 131.474 31.8969C132.01 31.8969 132.525 31.8233 133.021 31.6759C133.517 31.5286 133.979 31.321 134.407 31.0531C134.849 30.7719 135.238 30.437 135.572 30.0486C135.921 29.6468 136.202 29.2048 136.416 28.7226L140.434 32.7608C139.925 33.4841 139.336 34.1337 138.666 34.7097C138.01 35.2856 137.294 35.7745 136.517 36.1763C135.753 36.5781 134.943 36.8795 134.086 37.0804C133.242 37.2947 132.371 37.4018 131.474 37.4018C129.96 37.4018 128.534 37.1205 127.195 36.558C125.869 35.9821 124.703 35.1985 123.699 34.2074C122.708 33.2162 121.924 32.0577 121.348 30.7317C120.772 29.4057 120.484 27.9859 120.484 26.4724C120.484 24.825 120.772 23.2847 121.348 21.8516C121.924 20.4184 122.708 19.1728 123.699 18.1147C124.703 17.0432 125.869 16.1994 127.195 15.5832C128.534 14.9671 129.96 14.6591 131.474 14.6591C132.371 14.6591 133.249 14.7729 134.106 15.0006C134.976 15.2283 135.8 15.5631 136.577 16.0051C137.367 16.4337 138.09 16.9628 138.747 17.5923C139.416 18.2218 139.992 18.9451 140.475 19.7621ZM151.404 31.7362C151.618 31.8032 151.833 31.8501 152.047 31.8769C152.261 31.8902 152.475 31.8969 152.69 31.8969C153.226 31.8969 153.741 31.8233 154.237 31.6759C154.732 31.5286 155.194 31.321 155.623 31.0531C156.065 30.7719 156.453 30.437 156.788 30.0486C157.137 29.6468 157.418 29.2048 157.632 28.7226L161.65 32.7608C161.141 33.4841 160.552 34.1337 159.882 34.7097C159.226 35.2856 158.509 35.7745 157.733 36.1763C156.969 36.5781 156.159 36.8795 155.302 37.0804C154.458 37.2947 153.587 37.4018 152.69 37.4018C151.176 37.4018 149.75 37.1205 148.41 36.558C147.084 35.9955 145.919 35.2119 144.915 34.2074C143.924 33.2028 143.14 32.0108 142.564 30.6312C141.988 29.2383 141.7 27.7114 141.7 26.0505C141.7 24.3495 141.988 22.7958 142.564 21.3895C143.14 19.9831 143.924 18.7844 144.915 17.7932C145.919 16.8021 147.084 16.0319 148.41 15.4828C149.75 14.9336 151.176 14.6591 152.69 14.6591C153.587 14.6591 154.464 14.7662 155.322 14.9805C156.179 15.1948 156.989 15.5029 157.753 15.9047C158.53 16.3065 159.253 16.8021 159.922 17.3914C160.592 17.9673 161.181 18.6169 161.69 19.3402L151.404 31.7362ZM154.217 20.4251C153.962 20.3314 153.708 20.2711 153.453 20.2443C153.212 20.2175 152.958 20.2041 152.69 20.2041C151.94 20.2041 151.23 20.3447 150.56 20.626C149.904 20.8939 149.328 21.2823 148.832 21.7913C148.35 22.3003 147.968 22.9164 147.687 23.6396C147.406 24.3495 147.265 25.1531 147.265 26.0505C147.265 26.2514 147.272 26.4791 147.285 26.7336C147.312 26.9881 147.346 27.2493 147.386 27.5172C147.439 27.7716 147.5 28.0194 147.567 28.2605C147.634 28.5016 147.721 28.7159 147.828 28.9034L154.217 20.4251ZM169.948 37H164.463V15.4828H165.789L167.597 18.0343C168.481 17.2307 169.486 16.6146 170.611 16.186C171.736 15.744 172.901 15.523 174.107 15.523H178.948V20.9877H174.107C173.531 20.9877 172.988 21.0948 172.479 21.3091C171.97 21.5234 171.528 21.8181 171.153 22.1931C170.778 22.5681 170.484 23.0101 170.269 23.5191C170.055 24.0281 169.948 24.5705 169.948 25.1464V37Z" fill="black"/>
<path d="M22.3983 41.4187C31.6456 41.4187 39.142 33.9222 39.142 24.6749C39.142 15.4276 31.6456 7.93115 22.3983 7.93115C13.151 7.93115 5.65454 15.4276 5.65454 24.6749C5.65454 33.9222 13.151 41.4187 22.3983 41.4187Z" fill="#2CFFB3" stroke="#141414" stroke-width="2.35" stroke-linecap="round" stroke-linejoin="round"/>
<path d="M14.0264 10.1812L22.3982 24.675" stroke="#141414" stroke-width="2.35" stroke-linecap="round" stroke-linejoin="round"/>
<path d="M14.0264 39.1689L22.3982 24.675" stroke="#141414" stroke-width="2.35" stroke-linecap="round" stroke-linejoin="round"/>
<path d="M39.1419 24.675H22.3982" stroke="#141414" stroke-width="2.35" stroke-linecap="round" stroke-linejoin="round"/>
<path d="M20.4099 8.05322C23.5671 9.46801 26.2091 11.8251 27.9734 14.8011C29.7378 17.777 30.538 21.2261 30.2643 24.6749" stroke="#141414" stroke-width="2.35" stroke-linecap="round" stroke-linejoin="round"/>
<path d="M8.98591 34.7212C8.63095 31.2764 9.35281 27.8064 11.0521 24.7889C12.7513 21.7715 15.3444 19.3552 18.474 17.8728" stroke="#141414" stroke-width="2.35" stroke-linecap="round" stroke-linejoin="round"/>
<path d="M37.799 31.2681C34.9944 33.2959 31.6303 34.4048 28.1697 34.4423C24.709 34.4798 21.3217 33.444 18.4739 31.4774" stroke="#141414" stroke-width="2.35" stroke-linecap="round" stroke-linejoin="round"/>
</svg>
