<svg width="17" height="16" viewBox="0 0 17 16" fill="none" xmlns="http://www.w3.org/2000/svg">
<path d="M11.4176 1.29238C12.3074 1.29493 13.16 1.63621 13.7892 2.24168C14.4184 2.84714 14.773 3.66759 14.7757 4.52384V10.9861C14.773 11.8423 14.4184 12.6628 13.7892 13.2682C13.16 13.8737 12.3074 14.215 11.4176 14.2175H4.70198C3.81217 14.215 2.95955 13.8737 2.33035 13.2682C1.70115 12.6628 1.34649 11.8423 1.34384 10.9861V4.52384C1.34649 3.66759 1.70115 2.84714 2.33035 2.24168C2.95955 1.63621 3.81217 1.29493 4.70198 1.29238H11.4176ZM11.4176 0H4.70198C2.11628 0 0.000793457 2.03568 0.000793457 4.52384V10.9861C0.000793457 13.4742 2.11628 15.5099 4.70198 15.5099H11.4176C14.0033 15.5099 16.1187 13.4742 16.1187 10.9861V4.52384C16.1187 2.03568 14.0033 0 11.4176 0Z" fill="black"/>
<path d="M12.4252 4.52419C12.2259 4.52419 12.0312 4.46734 11.8655 4.36082C11.6998 4.2543 11.5707 4.10291 11.4945 3.92578C11.4182 3.74865 11.3983 3.55374 11.4372 3.3657C11.476 3.17767 11.572 3.00494 11.7128 2.86937C11.8537 2.7338 12.0332 2.64148 12.2286 2.60408C12.424 2.56667 12.6266 2.58587 12.8107 2.65924C12.9947 2.73261 13.1521 2.85685 13.2628 3.01627C13.3735 3.17568 13.4325 3.3631 13.4325 3.55482C13.4328 3.6822 13.407 3.80837 13.3564 3.9261C13.3059 4.04384 13.2317 4.15081 13.1381 4.24088C13.0445 4.33095 12.9334 4.40234 12.811 4.45096C12.6887 4.49958 12.5575 4.52446 12.4252 4.52419ZM8.06001 5.1702C8.59134 5.1702 9.11073 5.32182 9.55252 5.60587C9.9943 5.88993 10.3386 6.29366 10.542 6.76603C10.7453 7.23839 10.7985 7.75817 10.6948 8.25963C10.5912 8.76109 10.3353 9.22171 9.95961 9.58325C9.58391 9.94478 9.10523 10.191 8.58411 10.2907C8.06299 10.3905 7.52283 10.3393 7.03195 10.1436C6.54107 9.94797 6.1215 9.61663 5.82631 9.19151C5.53112 8.76639 5.37356 8.26659 5.37356 7.7553C5.37432 7.06992 5.6576 6.41281 6.16125 5.92817C6.66489 5.44353 7.34775 5.17094 8.06001 5.1702ZM8.06001 3.87783C7.26305 3.87783 6.48399 4.10524 5.82134 4.5313C5.1587 4.95736 4.64223 5.56294 4.33725 6.27146C4.03226 6.97997 3.95247 7.75961 4.10794 8.51176C4.26342 9.26392 4.6472 9.95482 5.21073 10.4971C5.77426 11.0394 6.49225 11.4087 7.27389 11.5583C8.05554 11.7079 8.86573 11.6311 9.60203 11.3376C10.3383 11.0441 10.9676 10.5472 11.4104 9.90952C11.8532 9.27187 12.0895 8.5222 12.0895 7.7553C12.0895 6.72693 11.665 5.74068 10.9093 5.01351C10.1536 4.28635 9.12869 3.87783 8.06001 3.87783Z" fill="black"/>
</svg>
