<svg width="247" height="38" viewBox="0 0 247 38" fill="none" xmlns="http://www.w3.org/2000/svg">
<path d="M179.539 9.62988H229.002C238.43 9.62988 246.073 17.2729 246.073 26.7011V37.6441H179.539V9.62988Z" fill="#FFDD2D"/>
<path d="M192.052 23.1858C192.274 23.2314 192.5 23.2628 192.727 23.2799C192.955 23.297 193.186 23.3055 193.42 23.3055C194.172 23.3055 194.788 23.1773 195.267 22.9208C195.745 22.6643 196.122 22.311 196.395 21.8607C196.669 21.4104 196.86 20.8804 196.968 20.2705C197.076 19.655 197.136 18.991 197.147 18.2786C197.638 18.3014 198.099 18.3356 198.532 18.3812C198.966 18.4211 199.35 18.4638 199.687 18.5094C200.074 18.5607 200.436 18.6148 200.772 18.6718V20.8433C200.687 20.8148 200.576 20.7835 200.439 20.7493C200.308 20.7151 200.16 20.6809 199.994 20.6467C199.835 20.6068 199.661 20.5698 199.473 20.5356C199.29 20.4957 199.102 20.4558 198.909 20.4159C198.869 20.7806 198.809 21.1426 198.729 21.5016C198.655 21.855 198.55 22.1941 198.413 22.519C198.276 22.8439 198.102 23.1431 197.891 23.4167C197.686 23.6845 197.432 23.9154 197.13 24.1092C197.529 24.2403 197.883 24.434 198.19 24.6905C198.498 24.947 198.763 25.2434 198.986 25.5796C199.214 25.9102 199.402 26.2721 199.55 26.6654C199.704 27.0587 199.826 27.4576 199.917 27.8623C200.009 28.267 200.074 28.6716 200.114 29.0763C200.154 29.4753 200.174 29.8486 200.174 30.1962C200.174 30.3843 200.168 30.5667 200.157 30.7434C200.151 30.9144 200.14 31.074 200.123 31.2222H198.105C198.133 31.017 198.151 30.8203 198.156 30.6323C198.168 30.4385 198.173 30.2475 198.173 30.0595C198.173 29.3185 198.085 28.6517 197.908 28.0589C197.732 27.4662 197.484 26.9646 197.165 26.5543C196.845 26.1382 196.464 25.8219 196.019 25.6053C195.58 25.383 195.096 25.2719 194.566 25.2719C194.207 25.2719 193.902 25.2804 193.651 25.2975C193.4 25.3146 193.181 25.3403 192.993 25.3745C192.804 25.403 192.636 25.4371 192.488 25.477C192.346 25.5169 192.2 25.5568 192.052 25.5967V31.2222H189.949V20.4843C189.624 20.5527 189.322 20.6182 189.043 20.6809C188.769 20.7379 188.564 20.792 188.427 20.8433V18.6718C188.752 18.6148 189.111 18.5607 189.504 18.5094C189.835 18.4638 190.22 18.4211 190.659 18.3812C191.097 18.3356 191.562 18.3014 192.052 18.2786V23.1858ZM205.68 31.2563H203.508V21.5102H205.68V31.2563ZM204.602 18.1247C205.024 18.1247 205.358 18.1959 205.603 18.3384C205.848 18.4752 205.97 18.6946 205.97 18.9967V19.4242C205.97 19.6977 205.848 19.8944 205.603 20.0141C205.358 20.1338 205.024 20.1936 204.602 20.1936C204.198 20.1936 203.87 20.1338 203.619 20.0141C203.374 19.8944 203.252 19.6977 203.252 19.4242V18.9967C203.252 18.6946 203.374 18.4752 203.619 18.3384C203.87 18.1959 204.198 18.1247 204.602 18.1247ZM209.236 24.1947C209.213 24.0123 209.159 23.8584 209.074 23.733C208.994 23.6076 208.906 23.505 208.809 23.4252C208.7 23.3283 208.581 23.2485 208.45 23.1858L209.407 21.5102C209.618 21.5843 209.829 21.684 210.04 21.8094C210.216 21.9177 210.402 22.0573 210.595 22.2283C210.795 22.3936 210.969 22.5988 211.117 22.8439C211.402 22.6615 211.693 22.4905 211.989 22.3309C212.291 22.1656 212.605 22.0231 212.929 21.9035C213.26 21.7838 213.605 21.6897 213.964 21.6213C214.329 21.5472 214.719 21.5102 215.135 21.5102C216.013 21.5102 216.765 21.5843 217.392 21.7325C218.025 21.875 218.541 22.0915 218.94 22.3822C219.344 22.6672 219.641 23.0234 219.829 23.4509C220.017 23.8783 220.111 24.377 220.111 24.947V31.2563H217.871V25.477C217.871 25.1579 217.828 24.8843 217.743 24.6563C217.657 24.4226 217.54 24.226 217.392 24.0664C217.25 23.9011 217.081 23.7672 216.888 23.6646C216.694 23.562 216.492 23.4851 216.281 23.4338C216.076 23.3768 215.865 23.3397 215.648 23.3226C215.431 23.2998 215.226 23.2884 215.033 23.2884C214.668 23.2884 214.32 23.3141 213.99 23.3654C213.659 23.4167 213.345 23.4879 213.049 23.5791C212.753 23.6646 212.473 23.7672 212.211 23.8869C211.949 24.0066 211.704 24.132 211.476 24.263V31.2563H209.236V24.1947ZM228.113 21.5102C228.597 21.5102 229.09 21.5301 229.592 21.57C230.093 21.6042 230.575 21.6527 231.037 21.7154C231.504 21.7724 231.94 21.8408 232.345 21.9205C232.755 22.0003 233.111 22.0858 233.413 22.177H233.55V31.6838C233.55 32.0885 233.465 32.4646 233.294 32.8123C233.123 33.16 232.875 33.4592 232.55 33.71C232.225 33.9665 231.826 34.1659 231.353 34.3084C230.88 34.4509 230.341 34.5222 229.737 34.5222V33.0346C229.965 33.0346 230.176 33.0118 230.37 32.9662C230.564 32.9206 230.732 32.8494 230.874 32.7525C231.023 32.6613 231.136 32.5444 231.216 32.4019C231.302 32.2652 231.345 32.1056 231.345 31.9232V30.6066C230.826 30.8061 230.287 30.9657 229.729 31.0854C229.176 31.1994 228.637 31.2563 228.113 31.2563C227.235 31.2563 226.451 31.1965 225.762 31.0768C225.072 30.9514 224.488 30.7605 224.009 30.504C223.53 30.2475 223.166 29.9227 222.915 29.5294C222.664 29.1361 222.539 28.6688 222.539 28.1273V24.6392C222.539 24.0978 222.664 23.6304 222.915 23.2371C223.166 22.8439 223.53 22.519 224.009 22.2625C224.488 22.006 225.072 21.818 225.762 21.6983C226.451 21.5729 227.235 21.5102 228.113 21.5102ZM228.728 29.5465C229.042 29.5465 229.33 29.5265 229.592 29.4866C229.854 29.4411 230.091 29.3841 230.302 29.3157C230.518 29.2473 230.712 29.176 230.883 29.1019C231.06 29.0221 231.213 28.948 231.345 28.8797V23.562C231.191 23.505 231.011 23.448 230.806 23.391C230.606 23.334 230.39 23.2856 230.156 23.2457C229.928 23.2001 229.692 23.1659 229.447 23.1431C229.202 23.1146 228.962 23.1003 228.728 23.1003C228.198 23.1003 227.694 23.1146 227.215 23.1431C226.736 23.1716 226.318 23.2485 225.958 23.3739C225.599 23.4993 225.312 23.6931 225.095 23.9553C224.884 24.2118 224.779 24.5708 224.779 25.0325V27.546C224.779 27.848 224.827 28.1074 224.924 28.3239C225.021 28.5405 225.155 28.7229 225.326 28.8711C225.503 29.0193 225.713 29.139 225.958 29.2302C226.204 29.3157 226.471 29.3841 226.762 29.4354C227.053 29.481 227.363 29.5123 227.694 29.5294C228.03 29.5408 228.375 29.5465 228.728 29.5465Z" fill="black"/>
<path d="M14.3334 10.4973C16.0546 10.4973 17.6847 10.6512 19.2235 10.9589C20.7624 11.2553 22.1018 11.6771 23.2417 12.2242C24.393 12.7714 25.3049 13.4268 25.9775 14.1906C26.65 14.9429 26.9863 15.775 26.9863 16.6869V19.6963H22.4723V18.0206C22.4723 17.5305 22.2842 17.0631 21.908 16.6186C21.5318 16.1626 20.9904 15.7693 20.2836 15.4388C19.5883 15.0968 18.7391 14.8289 17.736 14.6351C16.7328 14.4299 15.5986 14.3273 14.3334 14.3273C13.1137 14.3273 12.0023 14.4242 10.9991 14.618C9.99603 14.8004 9.1354 15.0569 8.41726 15.3875C7.69913 15.718 7.14057 16.1113 6.74161 16.5673C6.35404 17.0118 6.16026 17.4963 6.16026 18.0206V30.0922C6.16026 30.5938 6.35404 31.0668 6.74161 31.5114C7.14057 31.9559 7.69913 32.3435 8.41726 32.6741C9.1354 32.9932 9.99603 33.2497 10.9991 33.4435C12.0023 33.6259 13.1137 33.7171 14.3334 33.7171C15.5986 33.7171 16.7328 33.6202 17.736 33.4264C18.7391 33.2212 19.5883 32.9533 20.2836 32.6228C20.9904 32.2922 21.5318 31.9103 21.908 31.4772C22.2842 31.0326 22.4723 30.571 22.4723 30.0922V28.3823H26.9863V31.3917C26.9863 31.9958 26.8324 32.5715 26.5246 33.1186C26.2168 33.6544 25.7837 34.1502 25.2251 34.6062C24.678 35.0622 24.0168 35.4725 23.2417 35.8373C22.478 36.1907 21.623 36.4984 20.6769 36.7606C19.7422 37.0114 18.7391 37.2052 17.6676 37.342C16.5961 37.4788 15.4847 37.5472 14.3334 37.5472C13.1821 37.5472 12.0707 37.4788 10.9991 37.342C9.92763 37.2052 8.91882 37.0114 7.9727 36.7606C7.03798 36.4984 6.18306 36.1907 5.40792 35.8373C4.64419 35.4725 3.98305 35.0622 3.42449 34.6062C2.87734 34.1502 2.44988 33.6544 2.1421 33.1186C1.83433 32.5715 1.68044 31.9958 1.68044 31.3917V16.6869C1.68044 16.0828 1.83433 15.5071 2.1421 14.96C2.44988 14.4128 2.87734 13.9113 3.42449 13.4553C3.98305 12.9994 4.64419 12.589 5.40792 12.2242C6.18306 11.8595 7.03798 11.5517 7.9727 11.3009C8.91882 11.0387 9.92763 10.8392 10.9991 10.7025C12.0707 10.5657 13.1821 10.4973 14.3334 10.4973ZM46.718 17.5077C46.718 18.6932 46.6781 19.93 46.5983 21.2181C46.5185 22.4947 46.3646 23.8113 46.1366 25.1678H41.9988C42.1014 24.7802 42.1983 24.3585 42.2895 23.9025C42.3578 23.515 42.4205 23.0647 42.4775 22.5517C42.5459 22.0274 42.5801 21.4745 42.5801 20.8932C41.577 20.916 40.7449 21.0129 40.0837 21.1839C39.434 21.3434 38.8925 21.5372 38.4594 21.7652C38.0262 21.9818 37.6729 22.2041 37.3993 22.4321C37.1257 22.66 36.8806 22.8424 36.664 22.9792V37H32.2868V22.8766C32.2412 22.5118 32.1329 22.2041 31.9619 21.9533C31.8024 21.7025 31.6314 21.4973 31.449 21.3377C31.2438 21.144 31.0101 20.9844 30.7479 20.859L32.5604 17.5077C32.9822 17.6559 33.3982 17.8553 33.8086 18.1061C34.162 18.3227 34.5324 18.602 34.92 18.944C35.319 19.2745 35.6723 19.6849 35.9801 20.175C36.5614 19.7761 37.0972 19.4398 37.5874 19.1662C38.0775 18.8813 38.5506 18.6419 39.0065 18.4481C39.4739 18.2543 39.9527 18.1061 40.4428 18.0035C40.9444 17.8895 41.4915 17.7983 42.0843 17.73C42.6884 17.6616 43.361 17.616 44.1019 17.5932C44.8542 17.559 45.7263 17.5305 46.718 17.5077ZM56.088 37H51.7449V17.5077H56.088V37ZM53.9336 10.7367C54.7771 10.7367 55.4439 10.8791 55.9341 11.1641C56.4242 11.4377 56.6693 11.8766 56.6693 12.4807V13.3356C56.6693 13.8828 56.4242 14.2761 55.9341 14.5154C55.4439 14.7548 54.7771 14.8745 53.9336 14.8745C53.1242 14.8745 52.4688 14.7548 51.9672 14.5154C51.4771 14.2761 51.232 13.8828 51.232 13.3356V12.4807C51.232 11.8766 51.4771 11.4377 51.9672 11.1641C52.4688 10.8791 53.1242 10.7367 53.9336 10.7367ZM79.8549 17.3709C81.6104 17.3709 83.1948 17.5191 84.6083 17.8154C86.0218 18.1004 87.2244 18.5336 88.2161 19.1149C89.2078 19.6963 89.9716 20.4201 90.5073 21.2864C91.0431 22.1414 91.3109 23.1388 91.3109 24.2787V37H86.8311V25.3046C86.8311 24.3585 86.6259 23.5891 86.2156 22.9963C85.8052 22.3922 85.2638 21.9191 84.5912 21.5771C83.9187 21.2352 83.1549 21.0015 82.3 20.8761C81.4451 20.7507 80.5731 20.688 79.6839 20.688V37H75.5461V20.688C74.8052 20.688 74.0927 20.7507 73.4088 20.8761C72.7362 20.9901 72.0979 21.1497 71.4937 21.3548C70.8896 21.56 70.3196 21.7937 69.7839 22.0559C69.2481 22.3181 68.7523 22.5916 68.2963 22.8766V37H63.8165V22.8766C63.7709 22.5118 63.6626 22.2041 63.4916 21.9533C63.332 21.7025 63.1554 21.4973 62.9616 21.3377C62.745 21.144 62.5056 20.9844 62.2434 20.859L64.1585 17.5077C64.5802 17.6559 64.9963 17.8496 65.4067 18.089C65.76 18.2942 66.1305 18.5621 66.5181 18.8927C66.9056 19.2232 67.2476 19.6279 67.544 20.1067C68.4673 19.5481 69.3564 19.0921 70.2114 18.7388C71.0663 18.374 71.9668 18.0947 72.9129 17.9009C73.859 17.6958 74.8907 17.559 76.0078 17.4906C77.1249 17.4108 78.4073 17.3709 79.8549 17.3709ZM108.068 17.5077C109.424 17.5077 110.746 17.5932 112.034 17.7642C113.322 17.9237 114.479 18.203 115.505 18.602C116.531 18.9895 117.375 19.5196 118.036 20.1921C118.697 20.8647 119.09 21.7025 119.216 22.7056L115.249 23.7999C115.249 23.2072 115.044 22.717 114.633 22.3295C114.234 21.9305 113.699 21.6227 113.026 21.4061C112.365 21.1782 111.601 21.0186 110.735 20.9274C109.869 20.8362 108.979 20.7906 108.068 20.7906C107.19 20.7906 106.318 20.8362 105.451 20.9274C104.597 21.0072 103.827 21.1611 103.143 21.389C102.471 21.6056 101.923 21.9077 101.502 22.2953C101.091 22.6828 100.886 23.1844 100.886 23.7999V25.886H119.216V31.802C119.216 32.4746 119.068 33.073 118.771 33.5974C118.475 34.1103 118.064 34.5606 117.54 34.9482C117.016 35.3243 116.394 35.6492 115.676 35.9228C114.97 36.185 114.2 36.3959 113.368 36.5554C112.547 36.715 111.681 36.829 110.769 36.8974C109.869 36.9658 108.968 37 108.068 37C106.688 37 105.355 36.9202 104.066 36.7606C102.778 36.5896 101.621 36.3104 100.595 35.9228C99.5695 35.5238 98.726 34.9938 98.0649 34.3326C97.4151 33.6601 97.0333 32.8166 96.9193 31.802L100.886 30.7077C100.886 31.3347 101.091 31.8419 101.502 32.2295C101.923 32.6171 102.471 32.9192 103.143 33.1357C103.827 33.3523 104.597 33.5005 105.451 33.5803C106.318 33.6487 107.19 33.6829 108.068 33.6829C108.979 33.6829 109.869 33.643 110.735 33.5632C111.601 33.472 112.365 33.3181 113.026 33.1015C113.699 32.8736 114.234 32.5715 114.633 32.1953C115.044 31.8077 115.249 31.3119 115.249 30.7077V28.6217H96.9193V22.7056C96.9193 22.0331 97.0675 21.4403 97.3638 20.9274C97.6602 20.403 98.0649 19.9528 98.5778 19.5766C99.1022 19.189 99.7177 18.8642 100.424 18.602C101.131 18.3284 101.895 18.1118 102.716 17.9522C103.548 17.7927 104.414 17.6787 105.315 17.6103C106.227 17.5419 107.144 17.5077 108.068 17.5077ZM135.528 17.1999C136.485 17.1999 137.437 17.2455 138.383 17.3367C139.341 17.4279 140.258 17.5761 141.136 17.7813C142.014 17.9864 142.835 18.2429 143.598 18.5507C144.362 18.8585 145.023 19.2289 145.582 19.6621C146.152 20.0953 146.596 20.5968 146.915 21.1668C147.235 21.7253 147.394 22.3523 147.394 23.0476V31.9046C147.394 32.5202 147.235 33.0844 146.915 33.5974C146.596 34.1103 146.152 34.572 145.582 34.9824C145.023 35.3813 144.362 35.729 143.598 36.0254C142.835 36.3218 142.014 36.5668 141.136 36.7606C140.258 36.9544 139.341 37.0969 138.383 37.1881C137.426 37.2907 136.474 37.342 135.528 37.342C134.582 37.342 133.63 37.2907 132.672 37.1881C131.726 37.0969 130.814 36.9544 129.937 36.7606C129.059 36.5668 128.238 36.3218 127.474 36.0254C126.722 35.729 126.061 35.3813 125.491 34.9824C124.932 34.572 124.493 34.116 124.174 33.6145C123.855 33.1015 123.696 32.5316 123.696 31.9046V23.0476C123.696 22.3523 123.855 21.7253 124.174 21.1668C124.493 20.5968 124.932 20.0953 125.491 19.6621C126.061 19.2289 126.722 18.8585 127.474 18.5507C128.238 18.2429 129.059 17.9864 129.937 17.7813C130.814 17.5761 131.726 17.4279 132.672 17.3367C133.63 17.2455 134.582 17.1999 135.528 17.1999ZM128.039 30.8103C128.039 31.3347 128.255 31.7906 128.688 32.1782C129.133 32.5544 129.709 32.8736 130.415 33.1357C131.122 33.3865 131.92 33.5746 132.809 33.7C133.71 33.8254 134.616 33.8881 135.528 33.8881C136.485 33.8881 137.409 33.8197 138.298 33.6829C139.198 33.5461 139.996 33.3523 140.692 33.1015C141.387 32.8394 141.94 32.5202 142.35 32.144C142.772 31.7565 142.983 31.3119 142.983 30.8103V23.6973C142.983 23.2072 142.772 22.7683 142.35 22.3808C141.94 21.9818 141.387 21.6512 140.692 21.389C139.996 21.1155 139.198 20.9103 138.298 20.7735C137.409 20.6253 136.485 20.5512 135.528 20.5512C134.616 20.5512 133.71 20.6196 132.809 20.7564C131.92 20.8818 131.122 21.0756 130.415 21.3377C129.709 21.5999 129.133 21.9305 128.688 22.3295C128.255 22.717 128.039 23.173 128.039 23.6973V30.8103ZM152.148 22.8766C152.102 22.5118 151.994 22.2041 151.823 21.9533C151.663 21.7025 151.486 21.4973 151.293 21.3377C151.076 21.144 150.837 20.9844 150.574 20.859L152.489 17.5077C152.911 17.6559 153.333 17.8553 153.755 18.1061C154.108 18.3227 154.479 18.602 154.866 18.944C155.265 19.2745 155.613 19.6849 155.909 20.175C156.479 19.8103 157.06 19.4683 157.653 19.1491C158.257 18.8186 158.884 18.5336 159.534 18.2942C160.195 18.0548 160.885 17.8667 161.603 17.73C162.333 17.5818 163.113 17.5077 163.945 17.5077C165.701 17.5077 167.206 17.6559 168.46 17.9522C169.725 18.2372 170.756 18.6704 171.554 19.2517C172.364 19.8217 172.956 20.5341 173.333 21.389C173.709 22.244 173.897 23.2414 173.897 24.3813V37H169.417V25.4414C169.417 24.803 169.332 24.2559 169.161 23.7999C168.99 23.3326 168.756 22.9393 168.46 22.6201C168.175 22.2896 167.838 22.0217 167.451 21.8165C167.063 21.6113 166.658 21.4574 166.237 21.3548C165.826 21.2409 165.405 21.1668 164.971 21.1326C164.538 21.087 164.128 21.0642 163.74 21.0642C163.011 21.0642 162.315 21.1155 161.654 21.2181C160.993 21.3206 160.366 21.4631 159.773 21.6455C159.181 21.8165 158.622 22.0217 158.098 22.2611C157.573 22.5004 157.083 22.7512 156.627 23.0134V37H152.148V22.8766Z" fill="black"/>
</svg>
