<svg width="174" height="50" viewBox="0 0 174 50" fill="none" xmlns="http://www.w3.org/2000/svg">
<path d="M22.6819 37.2505V21.0641L16.3601 33.117H13.6855L7.36379 21.0641V37.2505H2.57038V12.5888H7.71113L15.0054 26.6216L22.3692 12.5888H27.4753V37.2505H22.6819ZM39.328 12.5888H44.1909L53.2566 37.2505H48.3243L46.0318 31.1024H37.4176L35.1598 37.2505H30.2274L39.328 12.5888ZM45.1634 27.7331L41.7594 17.5558L38.2165 27.7331H45.1634ZM104.943 37.2505V12.5888H115.398C116.533 12.5888 117.575 12.8203 118.524 13.2834C119.474 13.7466 120.296 14.3718 120.991 15.1591C121.709 15.9465 122.264 16.8264 122.658 17.799C123.052 18.7716 123.248 19.7673 123.248 20.7862C123.248 22.1756 122.924 23.4955 122.276 24.7459C121.627 25.9964 120.736 27.0153 119.601 27.8026C118.467 28.5899 117.124 28.9836 115.572 28.9836H109.737V37.2505H104.943ZM109.737 24.7807H115.294C115.873 24.7807 116.394 24.6186 116.857 24.2944C117.32 23.9702 117.691 23.5071 117.969 22.905C118.247 22.2798 118.386 21.5735 118.386 20.7862C118.386 19.9294 118.223 19.2 117.899 18.5979C117.598 17.9958 117.193 17.5443 116.684 17.2432C116.197 16.9422 115.665 16.7917 115.086 16.7917H109.737V24.7807ZM126.585 37.2505V12.5888H137.491C138.626 12.5888 139.668 12.8203 140.617 13.2834C141.59 13.7466 142.424 14.3718 143.118 15.1591C143.836 15.9465 144.38 16.8264 144.751 17.799C145.145 18.7716 145.341 19.7673 145.341 20.7862C145.341 21.8282 145.156 22.8355 144.786 23.8081C144.438 24.7575 143.929 25.5912 143.257 26.309C142.586 27.0269 141.798 27.5826 140.895 27.9763L146.522 37.2505H141.243L136.171 28.9836H131.378V37.2505H126.585ZM131.378 24.7807H137.387C137.989 24.7807 138.522 24.607 138.985 24.2597C139.448 23.8892 139.819 23.4029 140.096 22.8008C140.374 22.1987 140.513 21.5272 140.513 20.7862C140.513 19.9989 140.351 19.3157 140.027 18.7368C139.703 18.1347 139.286 17.66 138.777 17.3127C138.29 16.9653 137.758 16.7917 137.179 16.7917H131.378V24.7807ZM160.074 37.4242C158.267 37.4242 156.623 37.0768 155.141 36.3821C153.682 35.6874 152.42 34.7496 151.355 33.5686C150.313 32.3645 149.503 31.0214 148.924 29.5394C148.345 28.0342 148.055 26.4943 148.055 24.9196C148.055 23.2755 148.356 21.7124 148.958 20.2304C149.584 18.7252 150.429 17.3937 151.494 16.2359C152.582 15.0549 153.856 14.1287 155.315 13.4571C156.797 12.7624 158.418 12.4151 160.178 12.4151C161.961 12.4151 163.582 12.774 165.041 13.4919C166.523 14.2097 167.785 15.1707 168.827 16.3749C169.869 17.579 170.679 18.9221 171.258 20.4041C171.837 21.8861 172.127 23.4144 172.127 24.9891C172.127 26.61 171.826 28.1731 171.223 29.6783C170.621 31.1603 169.776 32.4918 168.688 33.6728C167.623 34.8306 166.349 35.7453 164.867 36.4169C163.408 37.0884 161.81 37.4242 160.074 37.4242ZM152.918 24.9196C152.918 25.9848 153.08 27.0153 153.405 28.011C153.729 29.0068 154.192 29.8983 154.794 30.6856C155.419 31.4498 156.172 32.0634 157.052 32.5266C157.955 32.9665 158.974 33.1865 160.108 33.1865C161.266 33.1865 162.297 32.9549 163.2 32.4918C164.103 32.0055 164.855 31.3687 165.457 30.5814C166.06 29.7709 166.511 28.8794 166.812 27.9068C167.136 26.9111 167.298 25.9154 167.298 24.9196C167.298 23.8544 167.125 22.8355 166.777 21.863C166.453 20.8672 165.979 19.9873 165.353 19.2231C164.751 18.4358 163.999 17.8221 163.096 17.3822C162.216 16.919 161.22 16.6875 160.108 16.6875C158.927 16.6875 157.885 16.9306 156.982 17.4169C156.102 17.88 155.361 18.5053 154.759 19.2926C154.157 20.0799 153.694 20.9598 153.37 21.9324C153.069 22.905 152.918 23.9007 152.918 24.9196Z" fill="black"/>
<path d="M68 3.4L75.74 16.84L83.48 3.4H96.08L82.7 25L95.6 46H83L75.74 33.16L68.48 46H55.82L68.72 25L55.34 3.4H68Z" fill="#FF4949"/>
</svg>
