<svg width="188" height="79" viewBox="0 0 188 79" fill="none" xmlns="http://www.w3.org/2000/svg">
<path d="M60.0604 47.7296C59.7985 47.7296 59.5927 47.6921 59.443 47.6173C59.443 47.1684 59.4992 46.5323 59.6114 45.7092C59.7985 45.6344 59.9107 45.4848 59.9481 45.2603V44.643C59.9481 44.4559 59.9481 44.2127 59.9481 43.9134C59.9855 43.5767 60.0042 43.2212 60.0042 42.8471C60.1913 42.7723 60.2848 42.6413 60.2848 42.4543V41.8931C60.2848 41.8931 60.2474 41.8182 60.1726 41.6686V40.6023C60.0978 40.4152 60.0791 40.2095 60.1165 39.985L60.1726 39.5921C60.1726 39.5173 60.1726 39.4425 60.1726 39.3676C60.21 39.2928 60.2287 39.2367 60.2287 39.1993C60.2661 39.1619 60.3035 39.1245 60.341 39.087C60.3784 39.0496 60.4158 38.9935 60.4532 38.9187C60.528 38.6942 60.5654 38.5071 60.5654 38.3575C60.5654 38.3201 60.5093 38.2265 60.3971 38.0769C60.2848 37.9646 60.2287 37.8711 60.2287 37.7963C60.2287 37.8337 60.3035 37.7027 60.4532 37.4034C60.5654 37.2164 60.6216 37.0106 60.6216 36.7861L61.6317 35.8882C61.5195 35.8508 61.4072 35.776 61.295 35.6637L61.2389 35.2709C61.2389 35.1586 61.1828 35.0464 61.0705 34.9342C60.9209 34.8219 60.846 34.7097 60.846 34.5974V34.3168C60.846 34.242 60.846 34.1298 60.846 33.9801C60.846 33.793 60.8648 33.606 60.9022 33.4189C60.9396 33.3815 60.9583 33.3254 60.9583 33.2505C60.9583 33.1757 60.977 33.0822 61.0144 32.9699L60.846 32.4087C60.9209 32.3339 60.977 32.2217 61.0144 32.072C61.0892 31.885 61.1641 31.6979 61.2389 31.5108V31.3986C61.2389 31.3238 61.2015 31.1367 61.1266 30.8374V30.7813C61.1266 30.7064 61.1266 30.6316 61.1266 30.5568C61.1641 30.4445 61.1828 30.3136 61.1828 30.1639L61.2389 29.5466C61.2763 29.1351 61.295 28.8358 61.295 28.6487C61.3324 28.4616 61.3511 28.4055 61.3511 28.4803C61.3511 27.9939 61.3324 27.7695 61.295 27.8069C61.3324 27.7321 61.3698 27.6572 61.4072 27.5824C61.4447 27.5076 61.4821 27.3953 61.5195 27.2457L61.5756 26.5161C61.6878 26.4039 61.8001 26.1794 61.9123 25.8427C61.8375 25.6556 61.7627 25.375 61.6878 25.0009C61.6878 24.9635 61.744 24.8886 61.8562 24.7764C61.9684 24.6641 62.0246 24.5893 62.0246 24.5519L61.744 24.2152V23.9346C61.7066 23.7101 61.7253 23.4856 61.8001 23.2611C61.9497 23.1863 62.0433 23.0741 62.0807 22.9244V22.7561C62.0807 22.6438 62.0807 22.4942 62.0807 22.3071C62.0807 22.12 62.062 21.8956 62.0246 21.6337L61.9123 21.2969C61.8749 21.1099 61.9123 20.9602 62.0246 20.848L62.3613 20.6235C62.3239 20.5487 62.3052 20.4364 62.3052 20.2868C62.3052 20.0997 62.3052 19.9126 62.3052 19.7256C62.3052 19.6507 62.3239 19.5759 62.3613 19.5011C62.3987 19.4263 62.4361 19.314 62.4735 19.1644L62.5858 18.7154C62.5858 18.7154 62.5484 18.6406 62.4735 18.4909C62.3613 18.3787 62.3052 18.3039 62.3052 18.2664C62.3052 18.0045 62.38 17.7801 62.5297 17.593C62.6793 17.4059 62.7541 17.2189 62.7541 17.0318L62.4735 16.5267C62.4735 16.4519 62.4735 16.3771 62.4735 16.3022C62.4735 16.2274 62.4922 16.1339 62.5297 16.0216C62.5671 15.9468 62.6045 15.872 62.6419 15.7972C62.6793 15.7223 62.7167 15.6101 62.7541 15.4604L62.6419 14.1135C62.6419 13.8142 62.7541 13.6459 62.9786 13.6085C63.1657 13.6085 63.334 13.6646 63.4837 13.7768C63.6333 13.9265 63.7269 14.0013 63.7643 14.0013L65.2234 13.4962L65.6724 13.5523L66.0652 13.6646L66.3458 13.5523C66.4955 13.4775 66.5703 13.4401 66.5703 13.4401H67.4121C67.4121 13.4775 67.4682 13.5149 67.5805 13.5523C67.6927 13.5898 67.7862 13.6085 67.8611 13.6085L68.6468 13.4401C68.7216 13.3653 68.8151 13.3653 68.9274 13.4401L69.1518 13.4962C69.2267 13.4962 69.4137 13.4027 69.713 13.2156L69.9936 13.2717L70.0498 14.3941C69.9749 14.6186 69.9001 14.787 69.8253 14.8992C69.7505 15.0489 69.713 15.1611 69.713 15.236V15.4604C69.5634 15.4978 69.4886 15.6662 69.4886 15.9655L69.2641 16.0216C69.0396 15.7597 68.8338 15.5914 68.6468 15.5166V15.6288C68.6468 15.7036 68.7216 15.8346 68.8712 16.0216C69.0209 16.2087 69.0957 16.3584 69.0957 16.4706L69.0396 16.5267C68.9648 16.6015 68.9274 16.7138 68.9274 16.8634L69.6008 16.8073C69.6008 16.7325 69.6008 16.6577 69.6008 16.5828C69.6382 16.4706 69.6756 16.3396 69.713 16.19H69.8814C69.9562 16.3396 70.1246 16.5641 70.3865 16.8634L70.4426 17.2002C70.48 17.2376 70.5174 17.275 70.5548 17.3124C70.5923 17.3498 70.6297 17.4059 70.6671 17.4808C70.6671 17.5182 70.6297 17.5743 70.5548 17.6491C70.48 17.7988 70.4426 17.8923 70.4426 17.9297C70.4426 17.9297 70.5923 18.1355 70.8916 18.547C71.1535 18.9212 71.2844 19.1457 71.2844 19.2205C71.2844 19.3327 71.1722 19.445 70.9477 19.5572L70.5548 19.7817V19.8939L71.1722 20.1745C71.2096 20.2868 71.2657 20.4925 71.3405 20.7919C71.4154 20.8293 71.5276 20.9602 71.6772 21.1847L71.5089 21.5775C71.3966 21.8394 71.3405 21.9891 71.3405 22.0265L72.014 22.9244L71.7334 23.3173C71.7708 23.3547 71.9017 23.4482 72.1262 23.5979V24.2152C72.201 24.3274 72.2572 24.4958 72.2946 24.7203V24.8325C72.2946 25.057 72.2384 25.2815 72.1262 25.506L72.5191 25.7304L72.8558 26.8528L72.6874 27.3018C72.7622 27.3766 72.8184 27.4702 72.8558 27.5824V27.863C72.8558 28.1249 73.0241 28.3681 73.3609 28.5926L72.7435 29.2099C72.4442 29.5092 72.2946 29.715 72.2946 29.8272C72.2946 30.0143 72.5565 30.1452 73.0803 30.2201C73.604 30.2949 73.8846 30.4819 73.9221 30.7813C73.9221 30.8935 73.8659 31.0057 73.7537 31.118C73.8659 31.4921 73.9221 31.7914 73.9221 32.0159C73.9221 32.0159 73.8846 32.072 73.8098 32.1843C73.7724 32.2965 73.7537 32.3713 73.7537 32.4087L74.2588 33.4189C74.2588 33.4937 74.2027 33.6247 74.0904 33.8117L74.4271 34.1485C74.4271 34.3729 74.4458 34.56 74.4833 34.7097C74.5581 34.7845 74.6516 34.8967 74.7639 35.0464C74.8761 35.196 74.9322 35.4018 74.9322 35.6637C74.9696 35.7011 74.9322 35.8321 74.82 36.0566C74.7077 36.3185 74.6516 36.4868 74.6516 36.5616C74.6516 36.5991 74.7826 36.8048 75.0445 37.179C75.0445 37.2164 75.0445 37.2912 75.0445 37.4034C75.0819 37.4783 75.1193 37.5718 75.1567 37.684C75.2315 37.7215 75.3064 37.7963 75.3812 37.9085C75.456 37.9834 75.5308 38.0769 75.6057 38.1891C75.6057 38.3388 75.5308 38.4323 75.3812 38.4697L75.0445 38.6381V39.087C75.1193 39.1245 75.1941 39.1619 75.2689 39.1993C75.3812 39.2367 75.5121 39.2928 75.6618 39.3676C75.7366 39.4425 75.774 39.6857 75.774 40.0972L75.6618 40.2656C75.6618 40.5275 75.774 40.7519 75.9985 40.939L76.4475 41.1074L76.1669 41.5002C76.2043 41.5376 76.2417 41.575 76.2791 41.6125C76.3165 41.6499 76.3539 41.706 76.3913 41.7808V42.1175H75.9985C75.9611 42.155 75.9424 42.1737 75.9424 42.1737C75.9798 42.1737 75.9798 42.1924 75.9424 42.2298L75.8301 42.342C76.0546 42.5291 76.2978 42.791 76.5597 43.1277L76.8403 44.194V44.9797C76.99 45.2042 77.1209 45.5409 77.2332 45.9898L77.177 46.1582C76.8403 46.3827 76.5223 46.4949 76.223 46.4949L75.774 46.3266L75.0445 46.4388C74.8574 46.4762 74.7077 46.5136 74.5955 46.551C74.4833 46.5885 74.4084 46.6072 74.371 46.6072L74.0904 46.551C73.9782 46.5136 73.9033 46.5136 73.8659 46.551C73.8285 46.551 73.7911 46.551 73.7537 46.551C73.6789 46.5885 73.5666 46.6259 73.417 46.6633C73.3047 46.7007 73.1738 46.7194 73.0241 46.7194H72.4068C72.332 46.7194 72.2384 46.7381 72.1262 46.7755C72.0514 46.8503 71.9204 46.9252 71.7334 47C71.3966 47 71.2096 46.7568 71.1722 46.2704C71.1722 46.233 71.3218 45.9524 71.6211 45.4286C71.7708 45.1667 71.883 44.961 71.9578 44.8113C72.0327 44.6617 72.0888 44.5494 72.1262 44.4746L71.6211 44.643C71.3592 44.7552 71.1535 44.8113 71.0038 44.8113H70.9477L70.7793 43.8573L70.4987 43.2399C70.4987 42.9781 70.6484 42.7349 70.9477 42.5104C70.9103 42.5104 70.8167 42.4168 70.6671 42.2298C70.5174 42.0801 70.4239 41.9118 70.3865 41.7247C70.3491 41.6499 70.2929 41.4254 70.2181 41.0513L70.0498 40.8829V40.4901L70.162 40.2656C69.9375 39.854 69.5821 39.6482 69.0957 39.6482C69.0957 39.6482 69.0022 39.6857 68.8151 39.7605L68.4784 39.7044C68.3662 39.667 68.2539 39.6482 68.1417 39.6482L67.4682 39.7605C67.2437 39.7979 67.0754 39.8353 66.9631 39.8727C66.8883 39.9101 66.8322 39.9289 66.7948 39.9289C66.7574 39.9663 66.6638 39.9476 66.5142 39.8727C66.3645 39.7979 66.271 39.7605 66.2336 39.7605L66.0091 39.8727C65.7846 39.9476 65.6537 39.985 65.6163 39.985L65.5601 40.1533C65.5976 40.1533 65.635 40.172 65.6724 40.2095C65.7098 40.2095 65.7659 40.2282 65.8407 40.2656V40.4901L65.5601 40.3778C65.4479 40.4901 65.3918 40.5836 65.3918 40.6584C65.5414 40.7707 65.6724 40.9577 65.7846 41.2196L65.6163 41.6686C65.5788 41.8182 65.5414 41.9679 65.504 42.1175C65.4666 42.2298 65.4292 42.3233 65.3918 42.3981C65.4292 42.5104 65.4479 42.7723 65.4479 43.1838C65.2234 44.1192 65.1112 44.5494 65.1112 44.4746C65.1112 44.512 65.1299 44.5868 65.1673 44.6991C65.2047 44.7739 65.2421 44.8861 65.2795 45.0358L65.3918 45.597C65.3918 45.597 65.3357 45.6905 65.2234 45.8776C65.1112 46.0272 65.0551 46.1582 65.0551 46.2704V46.3827C65.0551 46.5323 65.1112 46.7194 65.2234 46.9439V47.0561C65.2234 47.2432 65.0364 47.3367 64.6622 47.3367C64.6622 47.3367 64.5126 47.318 64.2133 47.2806L63.7082 47.1684C63.6333 47.2058 63.5398 47.2432 63.4276 47.2806C63.3153 47.318 63.1844 47.3367 63.0347 47.3367H62.5858L60.6777 47.6734C60.5654 47.7109 60.4532 47.7296 60.341 47.7296C60.2287 47.7296 60.1352 47.7296 60.0604 47.7296ZM67.6366 15.3482C67.674 15.2734 67.6553 15.1985 67.5805 15.1237C67.5431 15.0863 67.4495 15.105 67.2999 15.1798C67.3747 15.2921 67.4869 15.3482 67.6366 15.3482ZM70.3304 21.1847C70.5923 21.1847 70.7606 21.0912 70.8354 20.9041C70.798 20.9415 70.7606 20.8293 70.7232 20.5674L70.3865 20.6235C70.2742 20.6235 70.1807 20.6796 70.1059 20.7919C70.0685 20.8293 70.0872 20.9228 70.162 21.0725C70.2368 21.1473 70.2929 21.1847 70.3304 21.1847ZM63.7643 25.506C63.7643 25.4685 63.7082 25.3937 63.5959 25.2815L63.4837 25.3937C63.5211 25.4311 63.5585 25.4498 63.5959 25.4498C63.6708 25.4498 63.7269 25.4685 63.7643 25.506ZM67.6927 34.7097L68.4784 34.4291C68.5906 34.3917 68.7216 34.2607 68.8712 34.0362L68.759 32.4087C68.4597 32.2217 68.3474 31.6792 68.4223 30.7813L68.2539 30.6129L68.0294 29.6027C68.0294 29.6401 68.0856 29.4905 68.1978 29.1538L67.8611 28.8732L68.3662 28.6487L67.9172 28.4242C67.9172 28.2371 67.8611 28.0127 67.7488 27.7508C67.674 27.5637 67.6179 27.414 67.5805 27.3018C67.5431 27.1521 67.5056 27.0212 67.4682 26.909C67.4682 26.46 67.5805 26.1233 67.805 25.8988L67.2999 25.7866L66.7948 25.9549V26.0672C66.7948 26.2168 66.6825 26.3478 66.4581 26.46C66.4581 26.7593 66.3832 26.9277 66.2336 26.9651C66.2336 27.1147 66.2336 27.2831 66.2336 27.4702C66.271 27.6572 66.3084 27.8817 66.3458 28.1436C66.3458 28.181 66.2897 28.2933 66.1775 28.4803L66.2336 28.7609C66.2336 28.7983 66.2336 28.8545 66.2336 28.9293C66.271 28.9667 66.2897 29.0228 66.2897 29.0976C66.2897 29.2099 66.271 29.3221 66.2336 29.4344C66.2336 29.5466 66.2336 29.6776 66.2336 29.8272C66.1962 30.0517 66.1775 30.2575 66.1775 30.4445C66.1775 30.5942 66.1775 30.7251 66.1775 30.8374L66.2336 31.7353C66.1962 31.9972 66.0278 32.2217 65.7285 32.4087L65.0551 32.8577C64.9054 32.9699 64.7932 33.0822 64.7183 33.1944C64.6435 33.2693 64.5874 33.3441 64.55 33.4189H65.1112C65.1486 33.3815 65.2234 33.3254 65.3357 33.2505C65.4853 33.1383 65.5788 33.0822 65.6163 33.0822H65.6724C65.822 33.0822 65.9343 33.2318 66.0091 33.5311C66.0465 33.9427 66.1026 34.1859 66.1775 34.2607C67.1502 34.56 67.6553 34.7097 67.6927 34.7097ZM63.8765 26.3478C63.9139 26.2729 63.8952 26.1981 63.8204 26.1233C63.783 26.1233 63.6895 26.1607 63.5398 26.2355C63.6146 26.3478 63.7269 26.3852 63.8765 26.3478ZM63.147 32.3526L63.7643 32.2965V32.0159L63.5959 31.7914C63.5959 31.7914 63.4837 31.8288 63.2592 31.9037L62.698 31.7914C62.7728 31.8662 62.6793 31.9411 62.4174 32.0159C62.1555 32.0533 62.0994 32.1094 62.249 32.1843H62.5858C62.7728 32.2965 62.9599 32.3526 63.147 32.3526ZM72.6313 36.6178L72.7435 36.5616C72.7809 36.5616 72.7997 36.5616 72.7997 36.5616C72.7997 36.5242 72.8184 36.5055 72.8558 36.5055L72.7435 36.3372C72.7435 36.4494 72.7061 36.5429 72.6313 36.6178ZM72.7435 38.2452C72.7061 38.1704 72.6874 38.0395 72.6874 37.8524C72.8371 37.815 72.968 37.684 73.0803 37.4596C73.0054 37.4596 72.8932 37.4596 72.7435 37.4596C72.6313 37.4221 72.4816 37.3847 72.2946 37.3473C72.1449 37.6466 72.0327 37.815 71.9578 37.8524C71.9204 37.8898 71.9017 37.9459 71.9017 38.0208V38.1891L72.2946 37.9085L72.4068 38.0208L72.4629 38.2452H72.7435ZM70.611 38.582C70.6858 38.582 70.7606 38.5446 70.8354 38.4697C70.9103 38.3949 70.8916 38.3201 70.7793 38.2452C70.6671 38.2452 70.611 38.3575 70.611 38.582ZM73.5853 41.8369C73.5853 41.7621 73.5479 41.6873 73.4731 41.6125C73.3983 41.5376 73.3234 41.575 73.2486 41.7247C73.2486 41.8369 73.3609 41.8744 73.5853 41.8369ZM60.7899 45.4286L61.2389 45.2603C61.5756 45.148 61.6317 45.0171 61.4072 44.8674H61.2389C61.0892 44.8674 60.9396 44.9423 60.7899 45.0919V45.4286ZM61.9684 46.551C62.0059 46.4762 61.9872 46.4014 61.9123 46.3266C61.8749 46.2891 61.7814 46.3079 61.6317 46.3827C61.7066 46.4949 61.8188 46.551 61.9684 46.551ZM86.5614 47.8418L85.6073 47.7857C85.308 47.7483 85.0648 47.7296 84.8778 47.7296C84.7281 47.7296 84.6346 47.7296 84.5972 47.7296C84.036 47.7296 83.6993 47.7109 83.587 47.6734L82.633 47.1684C82.5581 47.1309 82.4646 47.0935 82.3524 47.0561C82.2401 47.0187 82.1092 46.9813 81.9595 46.9439C81.735 46.8316 81.6228 46.6446 81.6228 46.3827C81.548 46.3453 81.4731 46.3266 81.3983 46.3266C81.3235 46.2891 81.2487 46.2704 81.1738 46.2704C81.1738 45.9337 81.099 45.7092 80.9494 45.597L80.5565 45.4286C80.4817 45.3538 80.3882 45.148 80.2759 44.8113L80.0514 44.2501V44.0817C80.0514 44.0069 80.0327 43.9134 79.9953 43.8011C79.9953 43.6515 79.9766 43.5018 79.9392 43.3522C79.9392 43.0529 79.9392 42.791 79.9392 42.5665C79.9766 42.342 80.014 42.155 80.0514 42.0053C79.9018 41.9305 79.7895 41.8182 79.7147 41.6686C79.6773 41.5938 79.696 41.4441 79.7708 41.2196L79.827 40.7145C79.8644 40.5275 79.8831 40.3591 79.8831 40.2095C79.8831 40.0598 79.9018 39.9101 79.9392 39.7605C79.9392 39.5734 79.9953 39.3489 80.1076 39.087C80.2572 38.8252 80.332 38.6568 80.332 38.582C80.332 38.5446 80.2946 38.4884 80.2198 38.4136C80.145 38.3388 80.1076 38.3014 80.1076 38.3014C80.1076 38.2265 80.0888 38.1704 80.0514 38.133C80.0514 38.0956 80.0514 38.0582 80.0514 38.0208C80.0514 37.7963 80.1076 37.5718 80.2198 37.3473C80.0701 37.0854 79.9953 36.7674 79.9953 36.3933C79.9953 36.094 80.0888 35.8134 80.2759 35.5515C80.1637 35.4018 80.0701 35.2522 79.9953 35.1025V33.6434C79.9953 33.6434 79.9579 33.5686 79.8831 33.4189C79.8082 33.3441 79.7708 33.2693 79.7708 33.1944C79.7708 33.0822 79.9766 32.6706 80.3882 31.9598C80.0889 31.7727 79.9392 31.6605 79.9392 31.6231L80.2198 30.6129C80.2198 30.5381 80.2011 30.4258 80.1637 30.2762C80.1637 30.1265 80.1637 29.9582 80.1637 29.7711L80.1076 28.8732C80.0701 28.4616 80.0701 28.1249 80.1076 27.863C80.145 27.6011 80.145 27.3953 80.1076 27.2457C79.9953 27.0586 79.8644 26.9651 79.7147 26.9651V26.6845L80.2198 26.46C80.2198 26.3852 80.2011 26.329 80.1637 26.2916H79.2096V26.46C79.2096 26.6097 79.2845 26.7406 79.4341 26.8528C79.5838 26.9651 79.6586 27.0586 79.6586 27.1334L78.9852 27.0773C78.8355 27.0399 78.7046 27.0212 78.5923 27.0212C78.5175 27.0212 78.4614 27.0212 78.4239 27.0212L78.0872 27.1334C77.8627 27.2083 77.7505 27.2457 77.7505 27.2457C77.6009 27.2457 77.3764 27.1709 77.0771 27.0212C77.0397 26.9464 77.0397 26.8341 77.0771 26.6845L77.1893 26.3478C77.1519 26.2355 77.1332 26.1233 77.1332 26.011C77.1332 25.8988 77.1332 25.8053 77.1332 25.7304C77.208 25.506 77.339 25.375 77.526 25.3376C77.3764 25.1879 77.2828 25.0383 77.2454 24.8886C77.2454 24.7016 77.2454 24.5145 77.2454 24.3274L77.1893 24.0468C77.2641 23.7101 77.2828 23.5043 77.2454 23.4295L77.0771 23.1489C77.0022 22.9992 76.9648 22.9057 76.9648 22.8683L77.1893 22.3632C77.2267 22.3258 77.2828 22.3071 77.3577 22.3071C77.4325 22.3071 77.526 22.2884 77.6383 22.251C77.7505 22.2136 77.8253 22.1387 77.8627 22.0265H77.975L78.5362 22.1949L79.2658 22.4193C79.3032 22.4568 79.3406 22.5129 79.378 22.5877C79.4154 22.6625 79.4528 22.7561 79.4902 22.8683C79.6399 22.7561 79.7895 22.6064 79.9392 22.4193C80.0889 22.2323 80.2385 22.0078 80.3882 21.7459C80.6126 21.5962 80.6313 21.484 80.4443 21.4092C80.332 21.3343 80.2759 21.2221 80.2759 21.0725L80.332 19.2766C80.145 18.6032 80.0514 18.1355 80.0514 17.8736L80.2198 17.4246L80.332 16.9757C80.332 16.8634 80.2759 16.7699 80.1637 16.6951C80.0514 16.6202 79.9953 16.4706 79.9953 16.2461L80.1076 15.6849C80.1824 15.6475 80.2572 15.5914 80.332 15.5166C80.4069 15.4417 80.5191 15.3482 80.6688 15.236C80.8932 15.0115 81.0242 14.8992 81.0616 14.8992L81.5667 15.1237C81.7163 15.1611 81.8286 15.2172 81.9034 15.2921C81.9782 15.3669 82.0344 15.4043 82.0718 15.4043L82.2401 15.3482H83.4748C83.7367 15.3482 83.9424 15.3669 84.0921 15.4043C84.2792 15.4043 84.4288 15.4043 84.5411 15.4043L84.9339 15.2921C85.1584 15.2172 85.2706 15.1798 85.2706 15.1798C85.5325 15.1798 85.6635 15.3669 85.6635 15.741C85.6635 15.8533 85.6448 16.0029 85.6073 16.19C85.6073 16.3396 85.5886 16.5267 85.5512 16.7512L85.3267 16.6951C85.1771 16.6951 84.99 16.7699 84.7655 16.9196C84.4288 17.1066 84.2979 17.3498 84.3727 17.6491C84.4475 17.7239 84.4849 17.7614 84.4849 17.7614C84.5223 17.7614 84.5972 17.7052 84.7094 17.593C84.8591 17.5182 84.9526 17.4808 84.99 17.4808C85.1771 17.4808 85.3642 17.6304 85.5512 17.9297C85.7009 18.1916 85.7757 18.36 85.7757 18.4348C85.7757 18.5096 85.7383 18.6032 85.6635 18.7154C85.626 18.7902 85.5886 18.8464 85.5512 18.8838C85.5138 19.5198 85.4764 19.9688 85.439 20.2307C85.439 20.4925 85.439 20.5487 85.439 20.399C85.1771 20.4364 85.0461 20.5487 85.0461 20.7357C85.0461 20.9228 85.1584 21.0537 85.3829 21.1286V21.4653C85.3829 21.6898 85.4764 22.0826 85.6635 22.6438C85.7009 22.7186 85.8318 22.8309 86.0563 22.9805H86.2247V22.5877C86.2621 22.438 86.3743 22.3632 86.5614 22.3632C87.3097 22.251 87.6277 22.1949 87.5154 22.1949L87.796 22.251C87.9083 22.2884 88.0205 22.3071 88.1327 22.3071L88.694 22.6999C88.6565 22.8496 88.6378 22.9992 88.6378 23.1489C88.6378 23.2611 88.6378 23.4108 88.6378 23.5979C88.9371 23.8972 89.0868 24.0281 89.0868 23.9907C89.0868 24.1029 89.012 24.2339 88.8623 24.3835C88.8997 24.421 88.9371 24.4584 88.9746 24.4958C88.8997 24.5332 88.8436 24.6829 88.8062 24.9448L88.8623 25.1131C88.8997 25.1879 88.9184 25.2628 88.9184 25.3376C88.9184 25.6369 88.8997 25.9362 88.8623 26.2355C88.8623 26.4974 88.8436 26.7406 88.8062 26.9651C88.7314 27.1896 88.6191 27.3018 88.4695 27.3018H88.4134H88.4695C88.4695 27.2644 88.3011 27.1896 87.9644 27.0773C87.8147 27.0399 87.5154 27.0212 87.0665 27.0212C86.8794 27.0212 86.5053 27.0773 85.9441 27.1896L85.7196 27.3579C85.5699 27.4327 85.4951 27.4702 85.4951 27.4702L85.439 27.9752C85.4016 28.3494 85.3454 28.5364 85.2706 28.5364C85.4951 29.0602 85.6073 29.5466 85.6073 29.9956C85.5699 29.9956 85.4764 30.2201 85.3267 30.669C85.3642 30.5942 85.3829 30.8 85.3829 31.2863L85.2706 31.5669C85.1958 31.7914 85.1584 31.9037 85.1584 31.9037L85.3267 32.5771C85.4016 32.7642 85.439 32.9325 85.439 33.0822C85.439 33.1944 85.439 33.2693 85.439 33.3067C85.439 33.3067 85.3642 33.4002 85.2145 33.5873C85.1771 33.5873 85.1584 33.6808 85.1584 33.8679C85.1584 34.0923 85.2519 34.242 85.439 34.3168V36.1688C85.439 36.2062 85.4016 36.2623 85.3267 36.3372C85.2519 36.4868 85.2145 36.5803 85.2145 36.6178C85.1771 36.8797 85.1771 37.1041 85.2145 37.2912C85.2893 37.5905 85.3454 37.7215 85.3829 37.684C85.2706 37.7963 85.1771 37.9085 85.1023 38.0208C85.1771 38.0956 85.2706 38.3575 85.3829 38.8064C84.9339 39.0683 84.7094 39.2928 84.7094 39.4799C84.7094 39.4051 84.8591 39.6295 85.1584 40.1533C85.1584 40.1533 85.1958 40.4526 85.2706 41.0513L85.3829 41.2196C85.3829 41.3693 85.3829 41.5376 85.3829 41.7247C85.3829 41.8744 85.4016 42.0614 85.439 42.2859C85.439 42.2859 85.6635 42.4356 86.1124 42.7349C86.1124 42.8845 86.206 43.0155 86.393 43.1277H86.5053C86.5801 43.1277 86.711 43.0529 86.8981 42.9032C87.0478 42.7536 87.1787 42.6787 87.2909 42.6787C87.2909 42.6787 87.3658 42.7162 87.5154 42.791C87.5903 42.8658 87.6464 42.9032 87.6838 42.9032C87.7586 42.9032 87.8709 42.8658 88.0205 42.791C88.0953 42.7162 88.1702 42.66 88.245 42.6226C88.3198 42.5478 88.4134 42.473 88.5256 42.3981L88.7501 42.5665V44.9236C88.7501 44.961 88.7314 44.9984 88.694 45.0358C88.6191 45.1106 88.5817 45.1667 88.5817 45.2042V45.7654C88.5069 45.8402 88.4321 45.8963 88.3572 45.9337C88.3946 46.1956 88.4695 46.4014 88.5817 46.551C88.694 46.6633 88.7501 46.8316 88.7501 47.0561C88.7501 47.4303 88.5443 47.6173 88.1327 47.6173H87.9644C87.927 47.6173 87.8896 47.5986 87.8521 47.5612C87.8521 47.5612 87.8334 47.5612 87.796 47.5612L87.1787 47.7296C86.9916 47.767 86.842 47.7857 86.7297 47.7857C86.6549 47.8231 86.5988 47.8418 86.5614 47.8418ZM82.0156 23.9907C82.2401 23.9907 82.3524 23.8785 82.3524 23.654L82.2401 23.3173H81.9595C81.8473 23.4295 81.7538 23.523 81.6789 23.5979C81.6415 23.6727 81.6041 23.7288 81.5667 23.7662C81.6041 23.8036 81.6228 23.8598 81.6228 23.9346H81.8473C81.8847 23.9346 81.9034 23.9533 81.9034 23.9907C81.9408 23.9907 81.9782 23.9907 82.0156 23.9907ZM87.5154 23.8785L87.7399 23.7662L87.4593 23.5979C87.4219 23.6353 87.3845 23.654 87.3471 23.654L87.5154 23.8785ZM88.9746 24.4958V24.608C88.9746 24.5706 88.9746 24.5332 88.9746 24.4958ZM83.138 25.2815C83.1755 25.2441 83.138 25.1692 83.0258 25.057L82.8574 25.1692C82.8949 25.2066 82.9323 25.2254 82.9697 25.2254C83.0445 25.2254 83.1006 25.2441 83.138 25.2815ZM83.1942 26.1794C83.2316 26.1046 83.2129 26.0297 83.138 25.9549C83.0632 25.8801 82.9697 25.8801 82.8574 25.9549C82.8949 26.0297 83.0071 26.1046 83.1942 26.1794ZM85.6073 29.9956V30.0517V29.9956ZM83.9799 35.7198L84.0921 35.6637C84.1295 35.6263 84.1669 35.6076 84.2043 35.6076L84.0921 35.4392C84.0547 35.4766 84.036 35.5141 84.036 35.5515C84.036 35.5889 84.0173 35.645 83.9799 35.7198ZM81.7912 37.5157C81.866 37.5531 81.9408 37.5344 82.0156 37.4596C82.0905 37.3847 82.0718 37.2912 81.9595 37.179C81.8473 37.2164 81.7912 37.3286 81.7912 37.5157ZM81.3422 44.5868L81.6228 44.8674C81.6976 44.8674 81.8286 44.8487 82.0156 44.8113L82.2962 44.4746L81.9034 44.1379C81.866 44.1753 81.6789 44.2501 81.3422 44.3623V44.5868ZM79.8831 46.1582C79.8082 46.1582 79.7147 46.1021 79.6025 45.9898C79.6399 45.9524 79.696 45.9337 79.7708 45.9337C79.8831 45.9337 79.9205 46.0085 79.8831 46.1582ZM103.378 47.6734L102.48 47.3367C102.443 47.3367 102.368 47.3928 102.256 47.5051C102.069 47.6173 101.956 47.6547 101.919 47.6173L101.638 47.3928C101.601 47.3928 101.489 47.3928 101.302 47.3928C101.152 47.3928 100.928 47.3741 100.628 47.3367L99.9548 47.5051H99.6742C99.562 47.5051 99.431 47.5051 99.2814 47.5051C99.1691 47.5051 99.0195 47.4864 98.8324 47.449L98.8885 46.551C98.8885 46.5136 98.9447 46.4388 99.0569 46.3266C99.1691 46.2143 99.2253 46.1021 99.2253 45.9898C99.2253 45.915 99.1878 45.7654 99.113 45.5409L99.4497 45.3164C99.4123 45.1667 99.2627 45.0545 99.0008 44.9797C99.113 44.643 99.2814 44.4746 99.5059 44.4746L99.2253 44.1379V44.0817C99.2253 43.9321 99.2814 43.6702 99.3936 43.2961L99.3375 42.6787C99.3375 42.6787 99.3749 42.6039 99.4497 42.4543C99.5246 42.3046 99.562 42.2111 99.562 42.1737C99.562 42.2111 99.4872 41.9679 99.3375 41.4441L99.3936 40.8829C99.431 40.6584 99.431 40.5088 99.3936 40.4339C99.3936 40.3217 99.4123 40.2843 99.4497 40.3217C99.4497 40.172 99.4497 39.985 99.4497 39.7605C99.4872 39.536 99.5246 39.2928 99.562 39.0309C99.6742 38.9187 99.7491 38.8064 99.7865 38.6942C99.7865 38.582 99.7865 38.451 99.7865 38.3014C99.8239 38.1143 99.8613 37.9272 99.8987 37.7402L99.7865 36.7861L99.8426 35.6076C99.6929 35.5328 99.6742 35.3457 99.7865 35.0464L100.011 34.4291C100.011 34.3542 100.048 34.2794 100.123 34.2046C100.086 34.1298 100.104 33.9614 100.179 33.6995L100.292 33.3067V33.2505C100.292 33.1757 100.273 33.1009 100.235 33.0261C100.235 32.9512 100.217 32.839 100.179 32.6893C100.067 32.2778 100.011 31.9972 100.011 31.8475L100.067 31.2863C100.104 31.1367 100.123 31.0057 100.123 30.8935C100.161 30.7813 100.179 30.7064 100.179 30.669C100.254 30.5568 100.254 30.0704 100.179 29.2099L100.011 28.4242C99.9735 27.7882 99.749 27.4327 99.3375 27.3579C99.113 27.3579 99.0008 27.4889 99.0008 27.7508C99.0008 27.9378 98.9072 28.0314 98.7202 28.0314C98.6454 27.9565 98.5705 27.9191 98.4957 27.9191C98.346 27.9191 98.2525 28.0501 98.2151 28.312C98.1029 28.6487 97.9532 28.7796 97.7661 28.7048L97.4294 28.6487L97.3733 28.7609C97.3733 28.7983 97.3733 28.8545 97.3733 28.9293C97.3733 29.0041 97.392 29.0789 97.4294 29.1538L97.1488 29.4344C97.1862 29.5466 97.1675 29.7337 97.0927 29.9956L97.1488 31.5108C97.1488 31.6979 97.1488 31.9411 97.1488 32.2404C97.1862 32.5023 97.1862 32.7829 97.1488 33.0822C97.1488 33.1944 97.074 33.4189 96.9243 33.7556L96.6999 34.3168C96.7373 34.3542 96.7934 34.5413 96.8682 34.878V35.0464C96.8682 35.196 96.8495 35.3457 96.8121 35.4954V36.1127C96.8121 36.1501 96.7747 36.2062 96.6999 36.281C96.7747 36.2062 96.8121 36.2249 96.8121 36.3372C96.8121 36.3746 96.7747 36.4307 96.6999 36.5055C96.6624 36.5429 96.6624 36.6926 96.6999 36.9545C96.7747 37.3286 96.7747 37.6092 96.6999 37.7963L96.4193 38.3575C96.4193 38.4323 96.4754 38.5258 96.5876 38.6381L96.4754 39.8166L96.756 40.2656C96.7186 40.3404 96.6811 40.4339 96.6437 40.5462C96.6063 40.621 96.5502 40.7145 96.4754 40.8268L95.9703 40.8829L95.858 40.9951C95.9329 41.07 96.0825 41.1074 96.307 41.1074C96.3818 41.257 96.4567 41.388 96.5315 41.5002L96.3631 42.791C96.2509 43.2025 96.1574 43.4083 96.0825 43.4083L96.3631 44.9236C96.2135 44.961 96.1012 44.961 96.0264 44.9236L95.9703 45.148C95.9703 45.148 96.0077 45.5409 96.0825 46.3266C96.1574 46.3266 96.1948 46.3827 96.1948 46.4949C96.1574 46.5323 96.1012 46.6072 96.0264 46.7194C95.989 46.8316 95.9142 46.9813 95.8019 47.1684H95.6336C95.5587 47.1684 95.4839 47.1497 95.4091 47.1122L95.1846 47.0561C95.1846 47.0561 95.0911 47.0935 94.904 47.1684L94.1744 46.9439C94.0996 46.9439 94.0061 46.9813 93.8938 47.0561C93.7068 47.1309 93.5758 47.1309 93.501 47.0561L92.6031 47L92.3225 47.0561C92.2851 47.0561 92.2289 47.0374 92.1541 47C92.0793 46.9626 92.0045 46.9252 91.9296 46.8878L91.5368 46.7194C91.5368 46.7194 91.4245 46.7942 91.2001 46.9439C91.1252 46.9813 90.9943 47 90.8072 47C90.6202 47 90.4892 46.8878 90.4144 46.6633C90.4518 46.364 90.4705 46.1021 90.4705 45.8776C90.5079 45.6157 90.5266 45.3912 90.5266 45.2042L90.4144 44.9236V44.8113C90.4518 44.7739 90.4892 44.7365 90.5266 44.6991C90.564 44.6617 90.6015 44.6242 90.6389 44.5868L90.9756 43.6889C90.9756 43.6515 90.9195 43.5767 90.8072 43.4644C90.7324 43.427 90.6763 43.3896 90.6389 43.3522C90.6015 43.3148 90.564 43.2774 90.5266 43.2399C90.4892 43.1651 90.4705 43.0529 90.4705 42.9032C90.4705 42.791 90.4705 42.66 90.4705 42.5104C90.5079 42.3233 90.5453 42.155 90.5827 42.0053L90.7511 41.7247C90.6763 41.4254 90.6202 41.2383 90.5827 41.1635L90.8633 40.7145L91.0317 40.1533L90.9195 39.7044C90.8821 39.5547 90.8446 39.4612 90.8072 39.4238C90.7698 39.3489 90.7511 39.2928 90.7511 39.2554L90.9195 38.8626C90.8446 38.6381 90.8446 38.264 90.9195 37.7402C90.9569 37.7027 90.9943 37.6653 91.0317 37.6279C91.0691 37.5905 91.1065 37.5344 91.1439 37.4596L91.2001 36.8422C91.2375 36.8048 91.2749 36.7674 91.3123 36.73C91.3497 36.6926 91.3871 36.6365 91.4245 36.5616C91.4245 36.4494 91.2936 36.3185 91.0317 36.1688L91.2562 35.5515C91.2562 35.5141 91.2562 35.4579 91.2562 35.3831C91.2562 35.2709 91.2375 35.1212 91.2001 34.9342L91.4245 34.6535V33.8679L91.5368 33.475V33.1383C91.5368 32.9886 91.5181 32.839 91.4807 32.6893C91.4807 32.5023 91.462 32.3152 91.4245 32.1281C91.4245 32.0907 91.3871 32.0346 91.3123 31.9598C91.2375 31.885 91.2188 31.8288 91.2562 31.7914L91.4807 31.2863C91.4433 31.1741 91.4245 30.987 91.4245 30.7251V29.8272L91.7613 29.7711C91.9109 29.6589 92.0232 29.5092 92.098 29.3221C91.9483 29.1351 91.8548 28.8732 91.8174 28.5364L91.5368 27.1896C91.5742 27.1147 91.5929 27.0399 91.5929 26.9651C91.5929 26.8903 91.6116 26.778 91.649 26.6284C92.1728 26.4039 92.4347 26.1607 92.4347 25.8988C92.4347 25.7491 92.2664 25.6556 91.9296 25.6182V24.4397C91.8922 24.3648 91.8735 24.3087 91.8735 24.2713C91.8735 24.1965 91.8548 24.1217 91.8174 24.0468C91.8174 24.0468 91.8922 23.7288 92.0419 23.0928L91.9858 22.8122C91.9109 22.5877 91.8735 22.4568 91.8735 22.4193C91.8361 22.3819 91.8174 22.3258 91.8174 22.251C91.8548 22.1387 91.8735 22.0078 91.8735 21.8581L91.9296 21.2408C91.967 21.2034 92.0045 21.1473 92.0419 21.0725C92.1167 20.9976 92.1915 20.9228 92.2664 20.848V20.5113C92.2664 20.4364 92.2476 20.3616 92.2102 20.2868C92.2102 20.1745 92.1915 20.0436 92.1541 19.8939L91.9858 19.2205C92.0232 19.1082 92.0606 18.9773 92.098 18.8276C92.1354 18.678 92.1728 18.5096 92.2102 18.3226C92.3599 18.2103 92.4347 18.0981 92.4347 17.9858L92.2102 17.5369V17.2002L92.3786 17.0879C92.6031 16.6764 92.7153 16.3022 92.7153 15.9655C92.7153 15.741 92.6592 15.4978 92.547 15.236C92.4347 14.9366 92.3786 14.7496 92.3786 14.6747L92.547 14.1697C92.547 13.8329 92.5282 13.5898 92.4908 13.4401L93.7816 13.1034C93.8938 13.1408 94.0061 13.1782 94.1183 13.2156C94.268 13.253 94.4176 13.2905 94.5673 13.3279L94.6795 13.2717H94.7918C94.7918 13.2717 94.8666 13.3092 95.0162 13.384C95.1285 13.4962 95.222 13.5523 95.2968 13.5523L95.6336 13.4962C95.7458 13.4588 95.8393 13.4401 95.9142 13.4401L96.2509 13.4962L96.4193 14.0013L96.6437 14.0574C96.756 13.9452 96.8682 13.7581 96.9805 13.4962L98.0467 13.5523C98.3086 13.7394 98.4022 13.9265 98.3273 14.1135L98.0467 14.8431C98.0467 14.8431 98.0842 14.9179 98.159 15.0676L98.2712 15.3482C98.2338 15.4604 98.1403 15.6662 97.9906 15.9655L98.3273 16.7512V17.0318C98.2899 17.0318 98.1777 17.0879 97.9906 17.2002L98.159 17.5369L98.1029 18.547L97.7661 18.6593C97.4668 18.8464 97.3172 19.0708 97.3172 19.3327C97.3172 19.5198 97.4481 19.6133 97.71 19.6133C97.7848 19.6133 97.841 19.5946 97.8784 19.5572C97.841 19.7069 97.8035 19.8752 97.7661 20.0623C97.7661 20.2494 97.7661 20.4738 97.7661 20.7357L97.8223 21.8581C97.8223 21.933 97.8223 22.0265 97.8223 22.1387C97.8223 22.2136 97.8035 22.3258 97.7661 22.4755C97.7287 22.5503 97.6726 22.6438 97.5978 22.7561C97.5604 22.8309 97.5229 22.9431 97.4855 23.0928V23.3173C97.4855 23.7288 97.5978 23.972 97.8223 24.0468C97.8223 24.0468 97.9345 24.0094 98.159 23.9346C98.159 23.9346 98.2712 23.972 98.4957 24.0468V23.7662L99.2253 23.3734L99.4497 23.0367C99.6368 22.8496 99.8239 22.7561 100.011 22.7561H100.516C100.89 22.6438 101.021 22.569 100.909 22.5316H101.751C101.788 22.5316 101.882 22.569 102.031 22.6438C102.181 22.6438 102.368 22.4755 102.592 22.1387C102.78 22.4006 103.004 22.6064 103.266 22.7561C103.341 22.7186 103.472 22.6999 103.659 22.6999C103.734 22.7748 103.827 22.8683 103.939 22.9805C104.089 23.0928 104.239 23.205 104.388 23.3173C104.426 23.2799 104.519 23.2611 104.669 23.2611C104.781 23.2611 104.987 23.4669 105.286 23.8785C105.511 24.29 105.717 24.8138 105.904 25.4498C105.904 25.7117 105.829 25.9362 105.679 26.1233C105.529 26.2729 105.455 26.4413 105.455 26.6284C105.455 26.7032 105.529 26.7967 105.679 26.909C105.866 27.0586 105.922 27.227 105.847 27.414C105.847 27.4889 105.791 27.6198 105.679 27.8069C105.529 27.7695 105.398 27.7508 105.286 27.7508C105.211 27.7133 105.137 27.6946 105.062 27.6946C104.912 27.6946 104.837 27.7321 104.837 27.8069C104.837 27.9191 104.931 28.0501 105.118 28.1997C105.342 28.3494 105.529 28.4242 105.679 28.4242C105.642 28.8732 105.623 29.2286 105.623 29.4905C105.623 29.715 105.623 29.8646 105.623 29.9395L105.735 30.5007C105.735 30.5007 105.717 30.5568 105.679 30.669C105.642 30.7813 105.623 30.8748 105.623 30.9496L105.735 31.1741C105.773 31.2863 105.773 31.4734 105.735 31.7353C105.735 32.0346 105.679 32.2778 105.567 32.4649L105.062 31.9037C104.875 31.9785 104.781 32.1094 104.781 32.2965C104.781 32.4087 104.837 32.5023 104.95 32.5771L105.286 32.6893C105.586 32.8764 105.735 33.0822 105.735 33.3067L105.23 34.5413C105.268 34.691 105.305 34.878 105.342 35.1025C105.38 35.327 105.398 35.5889 105.398 35.8882V36.1688C105.324 36.3185 105.249 36.412 105.174 36.4494C105.174 36.4494 105.155 36.4681 105.118 36.5055L105.286 37.179C105.361 37.366 105.398 37.5157 105.398 37.6279C105.398 37.7027 105.398 37.7589 105.398 37.7963L105.174 38.0208C105.174 38.0956 105.155 38.2078 105.118 38.3575C105.118 38.5071 105.099 38.6755 105.062 38.8626C105.024 38.9 104.912 38.8626 104.725 38.7503C104.613 38.8626 104.538 38.9748 104.501 39.087V39.4238C104.987 39.5734 105.211 39.8914 105.174 40.3778L104.781 42.2298C104.819 42.4543 104.819 42.8097 104.781 43.2961C104.781 43.3709 104.725 43.5018 104.613 43.6889C104.688 44.063 104.744 44.3249 104.781 44.4746C104.856 44.6242 104.893 44.6617 104.893 44.5868L104.781 45.4286L104.557 45.597C104.594 45.6344 104.613 45.7654 104.613 45.9898L104.557 47.5051C104.407 47.6547 104.239 47.7109 104.052 47.6734H103.378ZM94.5673 16.19L94.455 15.9655L94.2867 16.0778L94.5673 16.19ZM94.5673 17.0879C94.6047 16.9757 94.586 16.8821 94.5112 16.8073C94.4737 16.7325 94.3989 16.7512 94.2867 16.8634C94.2867 16.9383 94.3802 17.0131 94.5673 17.0879ZM104.276 24.3274C104.276 24.2526 104.239 24.1404 104.164 23.9907H103.883C103.846 24.0281 103.883 24.1217 103.995 24.2713L104.276 24.3274ZM102.817 24.4397C102.854 24.3648 102.836 24.29 102.761 24.2152C102.723 24.1778 102.63 24.1965 102.48 24.2713C102.555 24.3835 102.667 24.4397 102.817 24.4397ZM101.47 29.4344C101.507 29.4344 101.526 29.397 101.526 29.3221C101.414 29.1725 101.302 29.0976 101.189 29.0976V29.3221C101.264 29.397 101.358 29.4344 101.47 29.4344ZM92.0419 39.1432C92.1167 39.0683 92.1728 38.9935 92.2102 38.9187C92.2851 38.8064 92.3412 38.6942 92.3786 38.582C92.3786 38.2827 92.2289 38.133 91.9296 38.133H91.8174C91.5929 38.133 91.4807 38.2452 91.4807 38.4697C91.4807 38.582 91.5368 38.7316 91.649 38.9187C91.7987 39.0683 91.9296 39.1432 92.0419 39.1432ZM103.49 40.6023C103.677 40.5649 103.846 40.4713 103.995 40.3217L103.939 40.2095L103.434 40.1533C103.322 40.1907 103.266 40.2656 103.266 40.3778L103.49 40.6023ZM95.1285 41.0513L95.353 40.939L95.2407 40.7707C95.2033 40.8081 95.1846 40.8455 95.1846 40.8829C95.1846 40.9203 95.1659 40.9764 95.1285 41.0513ZM90.5827 41.2196C90.5827 41.1448 90.5827 41.1261 90.5827 41.1635V41.2196ZM92.8837 42.7349C92.9585 42.7723 93.0333 42.7536 93.1082 42.6787C93.1456 42.6413 93.1269 42.5478 93.052 42.3981C92.9398 42.4356 92.8837 42.5478 92.8837 42.7349ZM95.4091 46.3827C95.4465 46.2704 95.4278 46.1769 95.353 46.1021C95.3156 46.0647 95.222 46.0834 95.0724 46.1582C95.1098 46.233 95.222 46.3079 95.4091 46.3827ZM109.808 47.1122L109.078 46.8878C108.966 46.8129 108.91 46.7381 108.91 46.6633C108.985 46.551 108.985 46.1769 108.91 45.5409C108.947 45.5035 108.966 45.4473 108.966 45.3725L109.247 45.148C109.247 45.0358 109.228 44.9423 109.191 44.8674L109.134 44.643C109.172 44.643 109.247 44.5494 109.359 44.3623C109.396 44.2127 109.471 44.1379 109.583 44.1379C109.808 43.9508 109.92 43.7824 109.92 43.6328C109.92 43.1838 109.714 43.0155 109.303 43.1277L109.078 43.1838C109.116 43.109 109.134 43.0342 109.134 42.9593C109.134 42.8845 109.153 42.791 109.191 42.6787L108.91 42.2298C108.91 42.1924 108.91 42.1362 108.91 42.0614C108.91 41.9866 108.929 41.8744 108.966 41.7247L108.91 41.5002C108.91 41.4628 108.891 41.4441 108.854 41.4441C108.816 41.4067 108.798 41.3693 108.798 41.3319L108.966 40.7707C109.078 40.4713 109.134 40.303 109.134 40.2656L108.966 39.9289C108.966 39.7418 108.947 39.4986 108.91 39.1993C108.91 38.8626 108.891 38.5071 108.854 38.133L108.629 37.5157V37.3473C108.629 37.2351 108.648 37.0854 108.685 36.8984C108.76 36.7113 108.798 36.4868 108.798 36.2249V36.1688C108.798 36.094 108.779 36.0191 108.742 35.9443C108.742 35.8321 108.723 35.7011 108.685 35.5515L108.854 35.2709C108.854 35.2335 108.835 35.196 108.798 35.1586L108.685 34.7658C108.611 34.5787 108.629 34.3917 108.742 34.2046L108.966 33.8117L108.798 33.5873V33.1944C108.798 33.0448 108.779 32.8951 108.742 32.7455C108.742 32.5584 108.742 32.3713 108.742 32.1843L108.517 31.3425C108.555 31.2302 108.573 31.0993 108.573 30.9496C108.573 30.7625 108.592 30.5755 108.629 30.3884L108.91 30.0517C108.648 29.902 108.48 29.6401 108.405 29.266C108.405 29.1164 108.498 28.948 108.685 28.7609C108.873 28.6487 108.966 28.5364 108.966 28.4242C108.966 28.312 108.91 28.1436 108.798 27.9191L109.022 27.7508C108.947 27.7133 108.854 27.6572 108.742 27.5824C108.629 27.5076 108.498 27.4327 108.349 27.3579L108.798 26.8528C108.573 26.7406 108.461 26.3478 108.461 25.6743L108.012 23.0928V21.6898C108.012 21.5027 107.993 21.4092 107.956 21.4092L107.844 21.0163C107.844 20.7919 107.881 20.5674 107.956 20.3429C107.956 20.2681 108.012 20.2119 108.124 20.1745C108.199 20.0997 108.237 20.0436 108.237 20.0062C108.237 20.0062 108.199 19.9313 108.124 19.7817C108.012 19.6694 107.956 19.5946 107.956 19.5572C107.993 19.4824 108.012 19.314 108.012 19.0521L108.405 19.1082C108.442 18.996 108.461 18.7715 108.461 18.4348L108.068 18.2664C108.106 18.229 108.124 18.0981 108.124 17.8736L107.844 15.4043L108.012 14.9553L107.788 14.6747L107.619 14.0574C107.619 13.7955 107.769 13.4588 108.068 13.0473H108.349C108.498 13.3092 108.629 13.4401 108.742 13.4401C108.816 13.4401 108.929 13.3653 109.078 13.2156C109.228 13.066 109.34 12.9911 109.415 12.9911L109.864 13.2156C110.126 13.3653 110.276 13.4401 110.313 13.4401C110.35 13.4027 110.388 13.3653 110.425 13.3279C110.463 13.2905 110.519 13.253 110.594 13.2156L110.818 13.2717C110.893 13.3092 110.968 13.3279 111.043 13.3279C111.117 13.3279 111.323 13.2905 111.66 13.2156C111.997 13.1034 112.202 13.0286 112.277 12.9911C112.689 12.9911 112.951 13.0099 113.063 13.0473C113.212 13.0847 113.418 13.4027 113.68 14.0013L113.456 14.8431C113.531 15.0302 113.587 15.2734 113.624 15.5727C113.624 15.6475 113.624 15.741 113.624 15.8533C113.624 15.9281 113.605 16.0403 113.568 16.19L113.456 16.6951C113.456 16.7325 113.474 16.7886 113.512 16.8634C113.549 16.9009 113.587 16.9944 113.624 17.144L113.736 17.593C113.736 17.6304 113.736 17.6865 113.736 17.7614C113.736 17.7988 113.718 17.8923 113.68 18.042C113.68 18.1542 113.605 18.2664 113.456 18.3787L113.849 19.2205C113.849 19.2579 113.792 19.4263 113.68 19.7256C113.792 19.9875 113.849 20.2868 113.849 20.6235C113.849 20.6235 113.811 20.7357 113.736 20.9602C113.661 21.1473 113.643 21.2595 113.68 21.2969L113.961 22.0826C114.036 22.569 114.092 22.9057 114.129 23.0928C114.129 23.0928 114.073 23.1863 113.961 23.3734C113.849 23.523 113.792 23.6353 113.792 23.7101C113.718 23.7101 113.568 23.7475 113.343 23.8223C113.643 24.1965 113.923 24.7016 114.185 25.3376L113.961 25.8988C113.811 26.2355 113.736 26.4974 113.736 26.6845C113.811 26.7593 113.905 26.9277 114.017 27.1896L114.073 27.6385C114.185 27.7508 114.26 27.863 114.297 27.9752C114.297 27.9752 114.241 28.0688 114.129 28.2558L113.849 28.6487C113.811 28.7235 113.792 28.8358 113.792 28.9854L114.241 29.4344L114.017 29.7711C114.054 29.7337 114.092 29.8272 114.129 30.0517L114.073 30.5568L114.241 31.0057L114.017 32.072L114.522 32.9138C114.522 32.9886 114.466 33.1944 114.354 33.5311L114.129 34.0923C114.129 34.1672 114.241 34.691 114.466 35.6637C114.316 35.5515 114.148 35.4954 113.961 35.4954C113.699 35.4954 113.568 35.6076 113.568 35.8321C113.568 36.094 113.718 36.2249 114.017 36.2249C114.054 36.2249 114.129 36.281 114.241 36.3933L114.41 36.5055C114.372 36.7674 114.372 37.0106 114.41 37.2351L114.578 37.684C114.578 37.684 114.541 37.7963 114.466 38.0208L114.354 38.3575C114.503 38.5071 114.597 38.6755 114.634 38.8626V39.1993C114.597 39.2367 114.485 39.2554 114.297 39.2554L114.354 39.5921V39.985C114.204 39.9101 114.073 39.9289 113.961 40.0411V40.2095L114.41 40.1533C114.485 40.5275 114.541 40.7894 114.578 40.939L114.466 41.2757C114.391 41.5002 114.354 41.6125 114.354 41.6125C114.354 41.7247 114.428 41.8369 114.578 41.9492L114.859 42.1175C114.746 42.2672 114.728 42.5104 114.803 42.8471C114.803 42.8845 114.765 42.9406 114.69 43.0155C114.616 43.0903 114.578 43.1651 114.578 43.2399L114.859 44.9236L114.915 46.6633C114.915 46.8878 114.803 47 114.578 47L114.354 46.8878C114.279 46.8503 114.223 46.8316 114.185 46.8316C114.148 46.7942 114.11 46.7755 114.073 46.7755C113.998 46.7381 113.905 46.7194 113.792 46.7194C113.68 46.7194 113.587 46.7194 113.512 46.7194C113.1 46.7194 112.764 46.7381 112.502 46.7755C112.24 46.7755 112.071 46.7568 111.997 46.7194L111.66 46.6633C111.585 46.7007 111.491 46.7568 111.379 46.8316C111.304 46.8691 111.192 46.9252 111.043 47H110.201C110.163 47.0374 110.107 47.0561 110.032 47.0561C109.958 47.0561 109.883 47.0748 109.808 47.1122ZM109.976 15.2921C110.014 15.2547 110.051 15.236 110.088 15.236C110.126 15.236 110.163 15.2172 110.201 15.1798C110.201 15.1424 110.163 15.0863 110.088 15.0115L109.976 15.2921ZM112.782 25.0009C112.82 24.9635 112.782 24.9073 112.67 24.8325C112.595 24.8325 112.539 24.8512 112.502 24.8886C112.576 24.9635 112.67 25.0009 112.782 25.0009ZM112.894 25.8988C112.932 25.824 112.913 25.7491 112.838 25.6743C112.801 25.6369 112.707 25.6556 112.558 25.7304C112.633 25.8427 112.745 25.8988 112.894 25.8988ZM109.247 31.3425C109.321 31.3425 109.396 31.305 109.471 31.2302C109.546 31.1554 109.527 31.0806 109.415 31.0057C109.303 31.0057 109.247 31.118 109.247 31.3425ZM112.165 35.2709H112.333C112.558 35.2709 112.726 35.1399 112.838 34.878C113.025 34.5039 113.119 34.3542 113.119 34.4291C113.044 34.0923 112.764 33.9988 112.277 34.1485C112.09 34.2233 111.94 34.3355 111.828 34.4852C111.753 34.5974 111.716 34.7284 111.716 34.878C111.716 35.1399 111.866 35.2709 112.165 35.2709ZM110.65 45.9898C110.687 45.915 110.668 45.8402 110.594 45.7654C110.556 45.6905 110.463 45.7279 110.313 45.8776C110.388 45.9898 110.5 46.0272 110.65 45.9898ZM123.283 47.7296C123.208 47.7296 123.189 47.7296 123.227 47.7296C123.189 47.7296 123.115 47.6921 123.002 47.6173L122.722 47.5051C122.647 47.5425 122.553 47.5612 122.441 47.5612C122.366 47.5612 122.273 47.5799 122.16 47.6173L121.375 47.1684C121.263 46.9065 121.113 46.7755 120.926 46.7755C120.888 46.7381 120.851 46.7381 120.814 46.7755C120.776 46.8129 120.701 46.8316 120.589 46.8316C120.589 46.8316 120.402 46.682 120.028 46.3827L119.579 46.2143C119.467 46.1021 119.336 45.9711 119.186 45.8215C119.074 45.6718 118.924 45.5035 118.737 45.3164L118.288 44.9797V44.8674C118.288 44.7178 118.195 44.4933 118.008 44.194C117.82 44.0069 117.671 43.8573 117.559 43.745C117.484 43.5954 117.428 43.5018 117.39 43.4644V42.791C117.577 42.9032 117.69 42.8845 117.727 42.7349C117.802 42.6226 117.727 42.5104 117.502 42.3981C117.353 42.2859 117.278 42.1924 117.278 42.1175V41.4441C117.278 41.3319 117.278 41.2196 117.278 41.1074C117.278 40.9951 117.259 40.8829 117.222 40.7707C117.184 40.5836 117.147 40.4152 117.11 40.2656C117.11 40.0785 117.128 39.9101 117.166 39.7605L117.278 39.1993C117.241 38.9748 117.222 38.7503 117.222 38.5258C117.222 38.264 117.222 38.0021 117.222 37.7402C117.222 37.5905 117.278 37.4034 117.39 37.179L117.559 36.73C117.521 36.4307 117.484 36.1127 117.446 35.776C117.409 35.4018 117.372 35.0277 117.334 34.6535C117.334 34.5413 117.484 34.1859 117.783 33.5873C117.858 33.5499 117.933 33.5124 118.008 33.475C118.082 33.4376 118.157 33.3815 118.232 33.3067C118.232 33.2693 118.064 33.1383 117.727 32.9138L117.559 31.7353C117.559 31.5482 117.633 31.436 117.783 31.3986C117.895 31.3238 117.933 31.1928 117.895 31.0057L118.625 30.5007C118.587 30.351 118.457 30.2575 118.232 30.2201C118.195 30.2201 118.064 30.2575 117.839 30.3323C117.727 30.2575 117.671 30.1826 117.671 30.1078C117.671 29.8833 117.783 29.6963 118.008 29.5466C118.232 29.3595 118.344 29.2473 118.344 29.2099L118.064 28.2558C118.064 28.2558 118.213 27.9939 118.513 27.4702C118.775 27.4327 118.905 27.3579 118.905 27.2457C118.905 27.1709 118.849 27.0773 118.737 26.9651C118.587 26.8528 118.513 26.7593 118.513 26.6845C118.513 26.6471 118.55 26.5909 118.625 26.5161C118.737 26.2916 118.849 25.8801 118.962 25.2815L119.298 24.9448L119.467 24.3835C119.691 24.3087 119.953 24.1965 120.252 24.0468L120.982 23.1489C121.356 22.6625 121.674 22.438 121.936 22.4755L122.104 22.5316C122.104 22.4942 122.254 22.438 122.553 22.3632C123.451 22.0639 123.956 21.933 124.069 21.9704L124.349 22.0265C124.574 21.8768 124.742 21.7459 124.854 21.6337L125.135 21.6898C125.21 21.6898 125.266 21.7085 125.303 21.7459C125.341 21.7833 125.378 21.802 125.415 21.802L125.864 21.7459L126.369 22.1949C126.369 22.1949 126.482 22.1574 126.706 22.0826L126.987 21.9704C127.136 22.0452 127.305 22.12 127.492 22.1949C127.679 22.2697 127.866 22.3445 128.053 22.4193C128.24 22.3445 128.502 22.3445 128.839 22.4193L128.783 22.6999V22.7561C128.783 22.9805 128.988 23.0928 129.4 23.0928H129.849C129.849 23.0928 130.092 23.5417 130.578 24.4397L130.915 24.3274C131.065 24.3274 131.158 24.3835 131.196 24.4958L131.813 26.6284C131.776 26.7032 131.757 26.8341 131.757 27.0212C131.757 27.1709 131.757 27.3392 131.757 27.5263L131.925 27.9191C132 28.1436 132.038 28.2558 132.038 28.2558L131.925 28.4242C131.888 28.4616 131.869 28.5177 131.869 28.5926V29.4344C131.832 29.4718 131.794 29.5466 131.757 29.6588C131.72 29.7337 131.682 29.8459 131.645 29.9956C131.42 30.033 131.308 30.1078 131.308 30.2201C131.308 30.3323 131.476 30.5381 131.813 30.8374C132.112 31.1367 132.262 31.3238 132.262 31.3986C132.262 31.4734 132.169 31.5108 131.981 31.5108L131.813 32.2965C131.776 32.3339 131.72 32.4462 131.645 32.6332C131.645 32.8577 131.757 33.3441 131.981 34.0923C131.832 34.1672 131.72 34.2607 131.645 34.3729C131.645 34.3729 131.645 34.5226 131.645 34.8219L131.701 35.3831C131.701 35.4205 131.701 35.4954 131.701 35.6076C131.701 35.6824 131.682 35.7947 131.645 35.9443L131.589 36.5055H131.308C131.009 36.5055 130.766 36.3559 130.578 36.0566C130.429 35.7947 130.298 35.6637 130.186 35.6637C130.148 35.6637 130.036 35.776 129.849 36.0004C129.624 36.2249 129.475 36.3372 129.4 36.3372L128.783 36.281C128.596 36.2436 128.446 36.2436 128.334 36.281C128.221 36.281 128.147 36.281 128.109 36.281L126.931 35.776C126.669 36.0004 126.369 36.1127 126.033 36.1127C125.621 36.1127 125.266 35.9817 124.966 35.7198C124.892 35.7947 124.854 35.8508 124.854 35.8882H124.012C123.975 35.8882 123.956 35.8882 123.956 35.8882C123.956 35.8508 123.938 35.8321 123.9 35.8321H123.676C123.339 35.8321 123.058 36.0378 122.834 36.4494V36.6739C122.796 36.7487 122.74 36.8609 122.666 37.0106C122.628 37.1228 122.572 37.2538 122.497 37.4034C122.497 37.4409 122.535 37.497 122.609 37.5718L122.722 37.7963V37.9085C122.722 37.9459 122.722 38.0208 122.722 38.133C122.722 38.2078 122.703 38.3201 122.666 38.4697C122.703 38.582 122.722 38.769 122.722 39.0309C122.722 39.1806 122.628 39.3115 122.441 39.4238L122.329 41.2757C122.553 41.4628 122.647 41.7808 122.609 42.2298H123.283C123.507 42.2298 123.676 42.3046 123.788 42.4543C123.9 42.6039 123.975 42.6787 124.012 42.6787L124.405 42.5104L124.798 42.791C124.91 42.791 124.985 42.7349 125.023 42.6226L125.359 41.8369V40.9951L125.415 40.1533C125.453 40.0411 125.472 39.9476 125.472 39.8727C125.509 39.7605 125.528 39.6857 125.528 39.6482L125.472 39.4799C125.546 39.3302 125.584 39.218 125.584 39.1432C125.584 39.0309 125.584 38.9561 125.584 38.9187L125.472 38.4136C125.621 38.0395 125.808 37.8524 126.033 37.8524C126.332 38.0021 126.744 38.133 127.267 38.2452L127.548 38.133C127.66 38.0956 127.754 38.0769 127.829 38.0769C127.903 38.0769 128.034 38.2265 128.221 38.5258C128.633 38.3762 128.839 38.3014 128.839 38.3014L129.288 38.582H129.4C129.849 38.582 130.279 38.3949 130.691 38.0208L131.645 38.9187C131.458 39.2554 131.252 39.6857 131.027 40.2095C130.99 40.3965 130.934 40.621 130.859 40.8829C130.822 41.1448 130.747 41.4254 130.635 41.7247C130.373 41.8369 130.242 41.9866 130.242 42.1737C130.242 42.2485 130.298 42.3794 130.41 42.5665C130.522 42.791 130.578 42.9406 130.578 43.0155L130.466 43.1838C130.541 43.3709 130.522 43.5393 130.41 43.6889L130.242 43.9695C130.279 44.0069 130.298 44.0817 130.298 44.194C130.298 44.5307 130.055 44.8113 129.568 45.0358L129.456 45.148C129.494 45.1854 129.512 45.2416 129.512 45.3164C129.512 45.5783 129.363 45.7466 129.063 45.8215C128.652 45.9337 128.409 46.0272 128.334 46.1021C128.259 46.2143 128.147 46.3453 127.997 46.4949C127.847 46.6446 127.679 46.8129 127.492 47C126.744 47.4864 126.22 47.6921 125.921 47.6173L125.247 47.449C125.06 47.449 124.873 47.5051 124.686 47.6173C124.499 47.7296 124.349 47.767 124.237 47.7296L124.012 47.6734H123.732C123.582 47.6734 123.47 47.6734 123.395 47.6734C123.32 47.7109 123.264 47.7296 123.227 47.7296C123.264 47.7296 123.283 47.7296 123.283 47.7296ZM124.405 24.1029L124.518 23.8785L124.349 23.7662C124.349 23.8785 124.368 23.9907 124.405 24.1029ZM128.334 26.011C128.521 26.011 128.633 25.8988 128.67 25.6743L128.614 24.9448H128.502C128.39 24.9448 128.334 24.8512 128.334 24.6641C128.259 24.4771 128.165 24.3835 128.053 24.3835C127.903 24.3087 127.791 24.3648 127.716 24.5519C127.679 24.5893 127.66 24.6454 127.66 24.7203C127.698 24.7951 127.716 24.8699 127.716 24.9448L127.772 25.3376L127.604 25.506L128.334 26.011ZM123.395 26.7406C123.694 26.6284 123.694 26.4974 123.395 26.3478C123.32 26.4226 123.32 26.5535 123.395 26.7406ZM130.691 26.6845L130.578 26.46L130.41 26.5722L130.691 26.6845ZM123.227 31.7914L123.788 31.6231L124.574 31.3986C124.836 31.3986 125.116 31.3799 125.415 31.3425C125.715 31.2676 126.051 31.1928 126.426 31.118L126.594 30.4445C126.631 30.4071 126.725 30.351 126.875 30.2762C126.725 30.1265 126.594 29.9769 126.482 29.8272C126.407 29.6776 126.388 29.5279 126.426 29.3782L126.482 28.9854V28.6487C126.482 28.312 126.332 28.0314 126.033 27.8069C126.07 27.6946 126.089 27.545 126.089 27.3579C126.089 27.0586 125.752 26.8903 125.079 26.8528C124.966 26.8528 124.761 26.9651 124.461 27.1896L123.563 27.8069C123.713 27.9191 123.732 28.0688 123.62 28.2558C123.582 28.4055 123.451 28.4803 123.227 28.4803V28.6487C123.339 28.5739 123.451 28.63 123.563 28.817C123.638 28.9667 123.657 29.0602 123.62 29.0976L123.507 30.7813C123.507 30.8935 123.507 30.987 123.507 31.0619C123.545 31.1367 123.563 31.1741 123.563 31.1741C123.563 31.2863 123.507 31.3425 123.395 31.3425C123.283 31.2676 123.189 31.1741 123.115 31.0619L122.946 31.1741L122.89 31.5108L123.227 31.7914ZM127.155 28.3681C127.23 28.4803 127.342 28.4803 127.492 28.3681C127.38 28.0314 127.267 28.0314 127.155 28.3681ZM123.563 31.118C123.563 31.1928 123.563 31.2115 123.563 31.1741C123.563 31.1741 123.563 31.1554 123.563 31.118ZM118.625 35.5515C118.737 35.4766 118.887 35.2709 119.074 34.9342L119.018 34.7658H118.905C118.718 34.7658 118.475 34.8593 118.176 35.0464C118.288 35.2335 118.438 35.4018 118.625 35.5515ZM129.4 35.1586C129.437 35.0464 129.419 34.9529 129.344 34.878C129.306 34.8406 129.213 34.8593 129.063 34.9342C129.063 35.009 129.175 35.0838 129.4 35.1586ZM119.691 42.6787L120.14 42.4543L120.084 42.2298L119.803 42.1737L119.691 42.2859V42.2298L119.635 42.0053L119.467 41.9492L119.354 42.5665L119.691 42.6787ZM123.956 43.5767C123.994 43.5018 123.975 43.427 123.9 43.3522C123.825 43.2774 123.751 43.2774 123.676 43.3522C123.676 43.427 123.769 43.5018 123.956 43.5767ZM142.572 47.8418L141.618 47.7857C141.319 47.7483 141.075 47.7296 140.888 47.7296C140.739 47.7296 140.645 47.7296 140.608 47.7296C140.047 47.7296 139.71 47.7109 139.598 47.6734L138.644 47.1684C138.569 47.1309 138.475 47.0935 138.363 47.0561C138.251 47.0187 138.12 46.9813 137.97 46.9439C137.746 46.8316 137.633 46.6446 137.633 46.3827C137.559 46.3453 137.484 46.3266 137.409 46.3266C137.334 46.2891 137.259 46.2704 137.184 46.2704C137.184 45.9337 137.11 45.7092 136.96 45.597L136.567 45.4286C136.492 45.3538 136.399 45.148 136.287 44.8113L136.062 44.2501V44.0817C136.062 44.0069 136.043 43.9134 136.006 43.8011C136.006 43.6515 135.987 43.5018 135.95 43.3522C135.95 43.0529 135.95 42.791 135.95 42.5665C135.987 42.342 136.025 42.155 136.062 42.0053C135.912 41.9305 135.8 41.8182 135.725 41.6686C135.688 41.5938 135.707 41.4441 135.781 41.2196L135.838 40.7145C135.875 40.5275 135.894 40.3591 135.894 40.2095C135.894 40.0598 135.912 39.9101 135.95 39.7605C135.95 39.5734 136.006 39.3489 136.118 39.087C136.268 38.8252 136.343 38.6568 136.343 38.582C136.343 38.5446 136.305 38.4884 136.23 38.4136C136.156 38.3388 136.118 38.3014 136.118 38.3014C136.118 38.2265 136.099 38.1704 136.062 38.133C136.062 38.0956 136.062 38.0582 136.062 38.0208C136.062 37.7963 136.118 37.5718 136.23 37.3473C136.081 37.0854 136.006 36.7674 136.006 36.3933C136.006 36.094 136.099 35.8134 136.287 35.5515C136.174 35.4018 136.081 35.2522 136.006 35.1025V33.6434C136.006 33.6434 135.969 33.5686 135.894 33.4189C135.819 33.3441 135.781 33.2693 135.781 33.1944C135.781 33.0822 135.987 32.6706 136.399 31.9598C136.099 31.7727 135.95 31.6605 135.95 31.6231L136.23 30.6129C136.23 30.5381 136.212 30.4258 136.174 30.2762C136.174 30.1265 136.174 29.9582 136.174 29.7711L136.118 28.8732C136.081 28.4616 136.081 28.1249 136.118 27.863C136.156 27.6011 136.156 27.3953 136.118 27.2457C136.006 27.0586 135.875 26.9651 135.725 26.9651V26.6845L136.23 26.46C136.23 26.3852 136.212 26.329 136.174 26.2916H135.22V26.46C135.22 26.6097 135.295 26.7406 135.445 26.8528C135.594 26.9651 135.669 27.0586 135.669 27.1334L134.996 27.0773C134.846 27.0399 134.715 27.0212 134.603 27.0212C134.528 27.0212 134.472 27.0212 134.435 27.0212L134.098 27.1334C133.873 27.2083 133.761 27.2457 133.761 27.2457C133.611 27.2457 133.387 27.1709 133.088 27.0212C133.05 26.9464 133.05 26.8341 133.088 26.6845L133.2 26.3478C133.163 26.2355 133.144 26.1233 133.144 26.011C133.144 25.8988 133.144 25.8053 133.144 25.7304C133.219 25.506 133.35 25.375 133.537 25.3376C133.387 25.1879 133.293 25.0383 133.256 24.8886C133.256 24.7016 133.256 24.5145 133.256 24.3274L133.2 24.0468C133.275 23.7101 133.293 23.5043 133.256 23.4295L133.088 23.1489C133.013 22.9992 132.975 22.9057 132.975 22.8683L133.2 22.3632C133.237 22.3258 133.293 22.3071 133.368 22.3071C133.443 22.3071 133.537 22.2884 133.649 22.251C133.761 22.2136 133.836 22.1387 133.873 22.0265H133.986L134.547 22.1949L135.276 22.4193C135.314 22.4568 135.351 22.5129 135.389 22.5877C135.426 22.6625 135.463 22.7561 135.501 22.8683C135.651 22.7561 135.8 22.6064 135.95 22.4193C136.099 22.2323 136.249 22.0078 136.399 21.7459C136.623 21.5962 136.642 21.484 136.455 21.4092C136.343 21.3343 136.287 21.2221 136.287 21.0725L136.343 19.2766C136.156 18.6032 136.062 18.1355 136.062 17.8736L136.23 17.4246L136.343 16.9757C136.343 16.8634 136.287 16.7699 136.174 16.6951C136.062 16.6202 136.006 16.4706 136.006 16.2461L136.118 15.6849C136.193 15.6475 136.268 15.5914 136.343 15.5166C136.417 15.4417 136.53 15.3482 136.679 15.236C136.904 15.0115 137.035 14.8992 137.072 14.8992L137.577 15.1237C137.727 15.1611 137.839 15.2172 137.914 15.2921C137.989 15.3669 138.045 15.4043 138.082 15.4043L138.251 15.3482H139.485C139.747 15.3482 139.953 15.3669 140.103 15.4043C140.29 15.4043 140.439 15.4043 140.552 15.4043L140.945 15.2921C141.169 15.2172 141.281 15.1798 141.281 15.1798C141.543 15.1798 141.674 15.3669 141.674 15.741C141.674 15.8533 141.655 16.0029 141.618 16.19C141.618 16.3396 141.599 16.5267 141.562 16.7512L141.337 16.6951C141.188 16.6951 141.001 16.7699 140.776 16.9196C140.439 17.1066 140.308 17.3498 140.383 17.6491C140.458 17.7239 140.496 17.7614 140.496 17.7614C140.533 17.7614 140.608 17.7052 140.72 17.593C140.87 17.5182 140.963 17.4808 141.001 17.4808C141.188 17.4808 141.375 17.6304 141.562 17.9297C141.711 18.1916 141.786 18.36 141.786 18.4348C141.786 18.5096 141.749 18.6032 141.674 18.7154C141.637 18.7902 141.599 18.8464 141.562 18.8838C141.524 19.5198 141.487 19.9688 141.45 20.2307C141.45 20.4925 141.45 20.5487 141.45 20.399C141.188 20.4364 141.057 20.5487 141.057 20.7357C141.057 20.9228 141.169 21.0537 141.393 21.1286V21.4653C141.393 21.6898 141.487 22.0826 141.674 22.6438C141.711 22.7186 141.842 22.8309 142.067 22.9805H142.235V22.5877C142.273 22.438 142.385 22.3632 142.572 22.3632C143.32 22.251 143.638 22.1949 143.526 22.1949L143.807 22.251C143.919 22.2884 144.031 22.3071 144.143 22.3071L144.705 22.6999C144.667 22.8496 144.648 22.9992 144.648 23.1489C144.648 23.2611 144.648 23.4108 144.648 23.5979C144.948 23.8972 145.097 24.0281 145.097 23.9907C145.097 24.1029 145.023 24.2339 144.873 24.3835C144.91 24.421 144.948 24.4584 144.985 24.4958C144.91 24.5332 144.854 24.6829 144.817 24.9448L144.873 25.1131C144.91 25.1879 144.929 25.2628 144.929 25.3376C144.929 25.6369 144.91 25.9362 144.873 26.2355C144.873 26.4974 144.854 26.7406 144.817 26.9651C144.742 27.1896 144.63 27.3018 144.48 27.3018H144.424H144.48C144.48 27.2644 144.312 27.1896 143.975 27.0773C143.825 27.0399 143.526 27.0212 143.077 27.0212C142.89 27.0212 142.516 27.0773 141.955 27.1896L141.73 27.3579C141.581 27.4327 141.506 27.4702 141.506 27.4702L141.45 27.9752C141.412 28.3494 141.356 28.5364 141.281 28.5364C141.506 29.0602 141.618 29.5466 141.618 29.9956C141.581 29.9956 141.487 30.2201 141.337 30.669C141.375 30.5942 141.393 30.8 141.393 31.2863L141.281 31.5669C141.206 31.7914 141.169 31.9037 141.169 31.9037L141.337 32.5771C141.412 32.7642 141.45 32.9325 141.45 33.0822C141.45 33.1944 141.45 33.2693 141.45 33.3067C141.45 33.3067 141.375 33.4002 141.225 33.5873C141.188 33.5873 141.169 33.6808 141.169 33.8679C141.169 34.0923 141.263 34.242 141.45 34.3168V36.1688C141.45 36.2062 141.412 36.2623 141.337 36.3372C141.263 36.4868 141.225 36.5803 141.225 36.6178C141.188 36.8797 141.188 37.1041 141.225 37.2912C141.3 37.5905 141.356 37.7215 141.393 37.684C141.281 37.7963 141.188 37.9085 141.113 38.0208C141.188 38.0956 141.281 38.3575 141.393 38.8064C140.945 39.0683 140.72 39.2928 140.72 39.4799C140.72 39.4051 140.87 39.6295 141.169 40.1533C141.169 40.1533 141.206 40.4526 141.281 41.0513L141.393 41.2196C141.393 41.3693 141.393 41.5376 141.393 41.7247C141.393 41.8744 141.412 42.0614 141.45 42.2859C141.45 42.2859 141.674 42.4356 142.123 42.7349C142.123 42.8845 142.217 43.0155 142.404 43.1277H142.516C142.591 43.1277 142.722 43.0529 142.909 42.9032C143.058 42.7536 143.189 42.6787 143.302 42.6787C143.302 42.6787 143.376 42.7162 143.526 42.791C143.601 42.8658 143.657 42.9032 143.694 42.9032C143.769 42.9032 143.881 42.8658 144.031 42.791C144.106 42.7162 144.181 42.66 144.256 42.6226C144.33 42.5478 144.424 42.473 144.536 42.3981L144.761 42.5665V44.9236C144.761 44.961 144.742 44.9984 144.705 45.0358C144.63 45.1106 144.592 45.1667 144.592 45.2042V45.7654C144.517 45.8402 144.443 45.8963 144.368 45.9337C144.405 46.1956 144.48 46.4014 144.592 46.551C144.705 46.6633 144.761 46.8316 144.761 47.0561C144.761 47.4303 144.555 47.6173 144.143 47.6173H143.975C143.938 47.6173 143.9 47.5986 143.863 47.5612C143.863 47.5612 143.844 47.5612 143.807 47.5612L143.189 47.7296C143.002 47.767 142.853 47.7857 142.74 47.7857C142.666 47.8231 142.609 47.8418 142.572 47.8418ZM138.026 23.9907C138.251 23.9907 138.363 23.8785 138.363 23.654L138.251 23.3173H137.97C137.858 23.4295 137.764 23.523 137.69 23.5979C137.652 23.6727 137.615 23.7288 137.577 23.7662C137.615 23.8036 137.633 23.8598 137.633 23.9346H137.858C137.895 23.9346 137.914 23.9533 137.914 23.9907C137.951 23.9907 137.989 23.9907 138.026 23.9907ZM143.526 23.8785L143.751 23.7662L143.47 23.5979C143.433 23.6353 143.395 23.654 143.358 23.654L143.526 23.8785ZM144.985 24.4958V24.608C144.985 24.5706 144.985 24.5332 144.985 24.4958ZM139.149 25.2815C139.186 25.2441 139.149 25.1692 139.036 25.057L138.868 25.1692C138.905 25.2066 138.943 25.2254 138.98 25.2254C139.055 25.2254 139.111 25.2441 139.149 25.2815ZM139.205 26.1794C139.242 26.1046 139.223 26.0297 139.149 25.9549C139.074 25.8801 138.98 25.8801 138.868 25.9549C138.905 26.0297 139.018 26.1046 139.205 26.1794ZM141.618 29.9956V30.0517V29.9956ZM139.99 35.7198L140.103 35.6637C140.14 35.6263 140.178 35.6076 140.215 35.6076L140.103 35.4392C140.065 35.4766 140.047 35.5141 140.047 35.5515C140.047 35.5889 140.028 35.645 139.99 35.7198ZM137.802 37.5157C137.877 37.5531 137.951 37.5344 138.026 37.4596C138.101 37.3847 138.082 37.2912 137.97 37.179C137.858 37.2164 137.802 37.3286 137.802 37.5157ZM137.353 44.5868L137.633 44.8674C137.708 44.8674 137.839 44.8487 138.026 44.8113L138.307 44.4746L137.914 44.1379C137.877 44.1753 137.69 44.2501 137.353 44.3623V44.5868ZM135.894 46.1582C135.819 46.1582 135.725 46.1021 135.613 45.9898C135.651 45.9524 135.707 45.9337 135.781 45.9337C135.894 45.9337 135.931 46.0085 135.894 46.1582ZM147.66 19.6694C147.51 19.632 147.323 19.5198 147.098 19.3327C146.986 19.2205 146.93 19.0895 146.93 18.9399C146.893 18.7154 146.911 18.4909 146.986 18.2664L147.267 17.9297C147.304 17.8923 147.304 17.7988 147.267 17.6491C147.267 17.4995 147.248 17.4059 147.211 17.3685C147.061 17.2937 146.967 17.1815 146.93 17.0318C146.893 16.957 146.874 16.7325 146.874 16.3584L146.986 15.9655C147.024 15.8533 147.042 15.7597 147.042 15.6849C147.042 15.5727 147.042 15.4978 147.042 15.4604L147.098 14.0013C147.173 13.7768 147.323 13.6646 147.547 13.6646L147.716 13.7207C147.753 13.7581 147.809 13.7768 147.884 13.7768L148.221 13.6085H148.894C148.969 13.6085 149.063 13.6833 149.175 13.8329C149.25 13.9452 149.306 14.0387 149.343 14.1135C149.418 14.151 149.474 14.1884 149.512 14.2258C149.586 14.1135 149.736 14.02 149.961 13.9452L150.073 13.384C150.222 13.4214 150.41 13.5336 150.634 13.7207C150.709 13.7581 150.915 13.7768 151.251 13.7768C151.289 13.7768 151.364 13.7207 151.476 13.6085C151.588 13.4962 151.682 13.4401 151.756 13.4401L152.318 13.4962C152.392 13.6459 152.467 13.8329 152.542 14.0574C152.617 14.2445 152.692 14.4316 152.767 14.6186C152.767 14.6935 152.729 14.7683 152.654 14.8431C152.729 14.8805 152.729 15.105 152.654 15.5166L152.486 15.741C152.486 15.8907 152.43 16.059 152.318 16.2461L152.093 16.1339C151.981 16.1339 151.887 16.2461 151.813 16.4706C151.925 16.6203 152 16.6951 152.037 16.6951L152.318 16.5828C152.43 16.5828 152.523 16.6764 152.598 16.8634V17.6491L152.767 18.8276V18.8838C152.767 19.1831 152.58 19.3514 152.205 19.3888L151.925 19.2205C151.85 19.2579 151.756 19.2953 151.644 19.3327C151.569 19.3701 151.495 19.4076 151.42 19.445L151.027 19.3327C150.915 19.2953 150.802 19.2766 150.69 19.2766C150.316 19.2766 149.942 19.2953 149.568 19.3327C149.194 19.3701 148.857 19.4263 148.558 19.5011C148.408 19.6133 148.221 19.6694 147.996 19.6694H147.66ZM151.139 14.3941C151.177 14.3567 151.251 14.338 151.364 14.338L151.307 14.1135C151.158 14.151 151.102 14.2445 151.139 14.3941ZM148.558 15.6288H148.333L148.558 15.9094V15.6288ZM151.139 47.5612C151.064 47.5612 150.989 47.5238 150.915 47.449C150.84 47.3741 150.784 47.3367 150.746 47.3367L149.624 47.2245C149.586 47.2245 149.493 47.2619 149.343 47.3367C149.231 47.3741 149.119 47.3928 149.007 47.3928L148.501 47.3367C148.352 47.2993 148.24 47.2806 148.165 47.2806C148.09 47.2806 148.034 47.2806 147.996 47.2806C147.959 47.318 147.884 47.3554 147.772 47.3928C147.697 47.4303 147.604 47.4677 147.491 47.5051L147.211 47.3928V46.3827L147.435 46.046C147.473 45.9337 147.491 45.6905 147.491 45.3164C147.641 45.279 147.678 45.1667 147.604 44.9797L147.435 44.643C147.435 44.3062 147.547 44.0817 147.772 43.9695C147.996 43.8573 148.109 43.7824 148.109 43.745C148.109 43.6702 148.09 43.5954 148.052 43.5205C148.052 43.4083 148.034 43.2774 147.996 43.1277C147.847 43.0155 147.716 42.8471 147.604 42.6226C147.566 42.5104 147.51 42.342 147.435 42.1175C147.323 41.3319 147.267 40.7519 147.267 40.3778C147.379 40.2282 147.398 39.7979 147.323 39.087L147.491 38.9187C147.491 38.9187 147.491 38.6942 147.491 38.2452C147.566 38.1704 147.622 38.0582 147.66 37.9085L147.211 37.684V37.2351C147.211 37.048 147.192 36.8609 147.155 36.6739C147.155 36.4494 147.136 36.2249 147.098 36.0004L146.986 35.1586C147.136 35.1212 147.229 34.7471 147.267 34.0362L147.66 34.0923L147.716 34.0362V33.6434C147.604 33.4563 147.435 33.4002 147.211 33.475C147.211 33.2505 147.173 32.8764 147.098 32.3526C147.061 31.8288 147.042 31.5669 147.042 31.5669C147.042 31.5295 147.08 31.3986 147.155 31.1741L147.267 30.9496V29.6588C147.267 29.397 147.211 29.2099 147.098 29.0976V28.8732C147.098 28.6487 147.136 28.4616 147.211 28.312C147.398 28.312 147.51 28.2371 147.547 28.0875C147.585 27.9378 147.491 27.8256 147.267 27.7508C147.304 27.7133 147.323 27.6385 147.323 27.5263C147.323 27.414 147.267 27.2831 147.155 27.1334V25.6743L147.379 23.8223L147.267 23.2611L147.098 22.7561V22.3632H147.884C148.071 22.6625 148.258 22.8122 148.445 22.8122L148.894 22.5877C149.194 22.4755 149.343 22.4193 149.343 22.4193C149.381 22.4193 149.474 22.4755 149.624 22.5877C149.774 22.7374 149.867 22.8122 149.904 22.8122L150.41 22.6438C150.372 22.7186 150.353 22.7935 150.353 22.8683C150.353 22.9057 150.353 22.9244 150.353 22.9244V22.9805C150.353 23.018 150.503 23.0367 150.802 23.0367C150.989 23.0367 151.12 22.9992 151.195 22.9244C151.27 22.8496 151.326 22.8122 151.364 22.8122C151.401 22.8496 151.495 22.8683 151.644 22.8683H151.813C151.887 22.7935 151.943 22.6812 151.981 22.5316L152.598 22.251C152.785 22.251 152.898 22.3632 152.935 22.5877C152.935 22.7374 152.916 22.9431 152.879 23.205C152.841 23.4669 152.785 23.8036 152.71 24.2152C152.224 24.2152 151.981 24.29 151.981 24.4397C151.981 24.4397 152.131 24.5893 152.43 24.8886C152.692 25.1505 152.823 25.3937 152.823 25.6182V26.011C152.71 26.2729 152.636 26.4039 152.598 26.4039L152.879 27.3018C152.617 27.5263 152.486 27.6572 152.486 27.6946L152.654 28.1436C152.692 28.181 152.71 28.2558 152.71 28.3681C152.71 28.4429 152.673 28.5926 152.598 28.817C152.636 28.8545 152.654 28.948 152.654 29.0976L152.598 29.1538L152.654 29.4905C152.767 29.6027 152.841 29.715 152.879 29.8272L152.767 30.5007L152.318 30.6129C152.355 30.7625 152.43 30.7813 152.542 30.669C152.767 30.8187 152.879 31.0057 152.879 31.2302L152.767 31.7353C152.654 31.9972 152.598 32.1656 152.598 32.2404C152.673 32.2778 152.729 32.3339 152.767 32.4087C152.841 32.4836 152.916 32.5584 152.991 32.6332C152.991 32.7829 152.916 32.9138 152.767 33.0261C152.542 33.2505 152.411 33.4189 152.374 33.5311C152.636 33.7182 152.785 33.9801 152.823 34.3168C152.86 34.4291 152.86 34.6723 152.823 35.0464L152.879 35.327C152.916 35.4392 152.935 35.5328 152.935 35.6076V36.1127C152.935 36.3746 152.935 36.6365 152.935 36.8984C152.972 37.1603 153.01 37.4409 153.047 37.7402C153.047 37.9272 153.01 38.133 152.935 38.3575C152.972 38.4323 152.991 38.5446 152.991 38.6942C152.991 38.9187 152.916 39.1058 152.767 39.2554C152.58 39.5173 152.486 39.667 152.486 39.7044C152.486 39.8166 152.542 39.9289 152.654 40.0411C152.654 40.0411 152.598 40.1346 152.486 40.3217C152.336 40.4713 152.262 40.5836 152.262 40.6584C152.336 40.7332 152.392 40.7707 152.43 40.7707C152.467 40.7707 152.542 40.7145 152.654 40.6023C152.767 40.6023 152.86 40.6397 152.935 40.7145L152.991 44.0817L152.935 44.6991L152.879 44.9797L152.71 45.2603C152.598 45.3725 152.542 45.4473 152.542 45.4848C152.617 45.6344 152.692 45.7466 152.767 45.8215C152.916 46.0834 152.991 46.364 152.991 46.6633C152.991 46.8129 152.935 47.0374 152.823 47.3367H152.542L151.981 47.1122C151.831 47.1122 151.551 47.2619 151.139 47.5612ZM149.904 24.2152V23.9346C149.867 23.8972 149.792 23.8785 149.68 23.8785L149.568 24.0468L149.624 24.2152H149.904ZM150.634 28.6487C150.784 28.6487 150.989 28.5739 151.251 28.4242L151.532 28.0875C151.532 28.1997 151.569 28.2933 151.644 28.3681C151.831 28.2933 151.925 28.181 151.925 28.0314C151.925 27.8069 151.831 27.6946 151.644 27.6946L151.364 27.7508C151.214 27.3766 151.046 27.1896 150.858 27.1896C150.784 27.3018 150.69 27.3953 150.578 27.4702C150.428 27.7321 150.335 27.9939 150.297 28.2558C150.297 28.5177 150.41 28.6487 150.634 28.6487ZM149.624 33.0261C149.699 33.0261 149.774 32.9886 149.848 32.9138C149.848 32.8764 149.811 32.8203 149.736 32.7455C149.736 32.8577 149.699 32.9512 149.624 33.0261ZM150.634 34.5974C150.821 34.5226 150.933 34.4104 150.971 34.2607L150.69 34.0362C150.54 34.1485 150.522 34.3355 150.634 34.5974ZM147.491 34.878C147.566 34.878 147.641 34.8406 147.716 34.7658C147.791 34.691 147.772 34.6161 147.66 34.5413C147.547 34.5413 147.491 34.6535 147.491 34.878ZM150.297 38.3014C150.335 38.2265 150.316 38.1517 150.241 38.0769C150.204 38.0395 150.11 38.0582 149.961 38.133C150.035 38.2452 150.148 38.3014 150.297 38.3014ZM150.129 45.6531C150.279 45.6531 150.428 45.5783 150.578 45.4286C150.578 45.2416 150.447 45.148 150.185 45.148C150.148 45.1854 150.092 45.3351 150.017 45.597C150.054 45.6344 150.092 45.6531 150.129 45.6531ZM162.257 47.7857L161.359 47.5051C161.06 47.4303 160.798 47.3554 160.573 47.2806C160.386 47.2432 160.237 47.2058 160.124 47.1684L160.237 46.8316C160.237 46.5697 160.068 46.4201 159.732 46.3827L159.451 46.4949C159.376 46.5323 159.32 46.5697 159.283 46.6072C159.245 46.6446 159.208 46.6633 159.17 46.6633C159.17 46.6633 159.021 46.4949 158.721 46.1582L157.992 45.7092C157.58 45.4099 157.375 45.2603 157.375 45.2603L157.206 44.2501L156.982 44.0256C156.757 43.8011 156.645 43.6702 156.645 43.6328L156.364 42.0053C156.252 41.8931 156.177 41.7808 156.14 41.6686C156.177 41.5189 156.196 41.3319 156.196 41.1074C156.196 40.8829 156.196 40.6397 156.196 40.3778L155.803 39.4799C155.803 39.4425 155.841 39.3489 155.915 39.1993L155.972 38.9748C155.934 38.9 155.915 38.7129 155.915 38.4136C155.99 38.0021 156.046 37.7215 156.084 37.5718C156.121 37.4221 156.159 37.3847 156.196 37.4596C156.121 37.2725 156.065 37.0293 156.028 36.73L155.972 36.0566L155.803 35.4954L155.859 34.7658C155.897 34.5039 155.915 34.2794 155.915 34.0923C155.915 33.9053 155.934 33.7556 155.972 33.6434L155.915 33.475C155.915 33.4376 155.897 33.4189 155.859 33.4189C155.822 33.3815 155.803 33.3441 155.803 33.3067C155.99 33.2693 156.177 33.1009 156.364 32.8016L155.915 32.1843C155.841 31.885 155.803 31.6231 155.803 31.3986L156.028 30.5007L156.196 30.3323C156.196 30.2575 156.177 30.1826 156.14 30.1078C156.065 30.033 156.028 29.9582 156.028 29.8833L156.196 29.4905C156.271 29.266 156.308 29.1538 156.308 29.1538C156.271 29.0789 156.215 29.0041 156.14 28.9293C156.103 28.817 156.046 28.6861 155.972 28.5364C155.972 28.1623 156.028 27.8443 156.14 27.5824L156.421 27.1896C156.458 27.1521 156.439 27.0212 156.364 26.7967C156.477 26.3852 156.533 26.1046 156.533 25.9549C156.608 25.9175 156.682 25.8053 156.757 25.6182C156.795 25.4685 156.907 25.3937 157.094 25.3937L157.992 24.2152C157.992 24.1404 158.011 24.0468 158.048 23.9346C158.235 23.5979 158.441 23.4295 158.665 23.4295H158.778C158.778 23.4669 158.815 23.4856 158.89 23.4856C159.114 23.4482 159.208 23.2611 159.17 22.9244C159.208 22.9618 159.619 22.8309 160.405 22.5316L161.303 22.4755C161.415 22.3632 161.49 22.251 161.527 22.1387C161.976 22.0265 162.351 21.9517 162.65 21.9143C162.987 21.8394 163.249 21.7833 163.436 21.7459L163.772 21.9143C164.034 22.0639 164.203 22.1387 164.277 22.1387C164.315 22.1387 164.352 22.1387 164.39 22.1387C164.464 22.1013 164.521 22.0826 164.558 22.0826C164.708 22.0826 164.876 22.1013 165.063 22.1387C165.25 22.1762 165.475 22.2323 165.737 22.3071L166.073 22.6999C166.41 22.6999 166.784 22.7748 167.196 22.9244L167.981 23.654V23.7662C167.981 23.9907 168.281 24.2339 168.879 24.4958L169.384 25.2815V25.7304C169.459 25.7678 169.515 25.8427 169.553 25.9549C169.628 26.0297 169.702 26.1233 169.777 26.2355V26.7406C169.777 26.8528 169.758 26.9464 169.721 27.0212C169.721 27.096 169.721 27.1709 169.721 27.2457C169.721 27.2457 169.815 27.3953 170.002 27.6946C170.114 27.9191 170.189 28.0501 170.226 28.0875C170.189 28.0875 170.058 28.5177 169.833 29.3782C170.282 29.6401 170.525 30.0143 170.563 30.5007L170.507 30.8935C170.469 31.0431 170.451 31.1741 170.451 31.2863C170.451 31.3612 170.451 31.436 170.451 31.5108C170.413 31.5482 170.376 31.5856 170.338 31.6231C170.338 31.6605 170.301 31.6979 170.226 31.7353L170.058 31.7914C170.058 31.7914 169.908 31.7353 169.609 31.6231L169.048 31.5108C169.048 31.5108 168.954 31.5669 168.767 31.6792C168.617 31.7914 168.524 31.8475 168.486 31.8475L168.206 31.7353C168.094 31.6979 168 31.6792 167.925 31.6792L167.701 31.7353C167.588 31.7727 167.495 31.7914 167.42 31.7914L166.803 31.6792C166.616 31.6418 166.466 31.6231 166.354 31.6231C166.279 31.6231 166.223 31.6231 166.185 31.6231C166.111 31.6231 165.924 31.6792 165.624 31.7914C165.362 31.9411 165.175 32.0159 165.063 32.0159C164.764 32.0159 164.614 31.8662 164.614 31.5669L164.502 29.7711L164.726 29.6027C164.839 29.5279 164.876 29.4718 164.839 29.4344L164.333 27.7508C164.408 27.7133 164.483 27.6759 164.558 27.6385C164.633 27.6011 164.708 27.5637 164.782 27.5263C164.745 27.3766 164.67 27.3018 164.558 27.3018L164.39 27.3579C164.352 27.3579 164.315 27.3766 164.277 27.414C164.277 27.4515 164.259 27.4702 164.221 27.4702L163.885 27.3579V27.1896C163.959 27.1521 164.015 27.096 164.053 27.0212C164.128 26.9464 164.203 26.8715 164.277 26.7967L163.885 26.6284C163.847 26.6284 163.735 26.6284 163.548 26.6284C163.398 26.6284 163.192 26.6471 162.93 26.6845C162.856 26.6845 162.762 26.7406 162.65 26.8528C162.65 26.8528 162.687 26.8903 162.762 26.9651C162.725 27.1147 162.594 27.2083 162.369 27.2457C162.22 27.2831 162.089 27.3205 161.976 27.3579C161.902 27.3953 161.827 27.4515 161.752 27.5263C161.752 27.6385 161.733 27.7133 161.696 27.7508C161.471 27.9004 161.34 28.1062 161.303 28.3681C161.266 28.4803 161.247 28.5926 161.247 28.7048C161.247 28.817 161.247 28.9293 161.247 29.0415C161.359 29.1164 161.49 29.1912 161.64 29.266V29.5466C161.565 29.584 161.49 29.7524 161.415 30.0517C161.34 30.2388 161.228 30.3323 161.079 30.3323L160.91 30.2762C160.873 30.351 160.854 30.4258 160.854 30.5007C160.854 30.5381 160.854 30.5568 160.854 30.5568C161.079 30.669 161.266 30.8 161.415 30.9496C161.378 31.0244 161.359 31.1554 161.359 31.3425L161.696 31.6792C161.621 31.8288 161.565 31.9598 161.527 32.072C161.49 32.1468 161.471 32.1843 161.471 32.1843L161.584 32.4649C161.621 32.5397 161.64 32.5958 161.64 32.6332C161.677 32.6706 161.696 32.708 161.696 32.7455L161.64 33.2505L161.527 33.8117V33.8679C161.527 33.9053 161.546 33.9801 161.584 34.0923C161.658 34.1672 161.715 34.2981 161.752 34.4852C161.715 34.5226 161.658 34.5787 161.584 34.6535C161.509 34.691 161.434 34.7471 161.359 34.8219C161.397 34.8967 161.415 35.0464 161.415 35.2709C161.041 35.8695 160.854 36.1501 160.854 36.1127C160.854 36.1501 161.022 36.2623 161.359 36.4494C161.359 36.4868 161.359 36.5616 161.359 36.6739C161.397 36.7487 161.434 36.8609 161.471 37.0106C161.546 37.0854 161.602 37.179 161.64 37.2912C161.715 37.366 161.771 37.4596 161.808 37.5718C161.808 37.7215 161.602 38.1143 161.191 38.7503C161.191 39.1245 161.247 39.4612 161.359 39.7605C161.434 39.8353 161.509 39.9289 161.584 40.0411C161.658 40.1533 161.733 40.2656 161.808 40.3778C161.733 40.4152 161.64 40.5836 161.527 40.8829V41.5563C161.527 41.5563 161.49 41.6686 161.415 41.8931L161.303 42.1737C161.378 42.5104 161.509 42.66 161.696 42.6226L162.033 42.4543C162.294 42.4917 162.556 42.5104 162.818 42.5104C163.08 42.5104 163.361 42.5291 163.66 42.5665C163.772 42.4543 163.903 42.3794 164.053 42.342L164.165 42.3981C164.203 42.4356 164.24 42.4543 164.277 42.4543C164.352 42.4543 164.464 42.2859 164.614 41.9492C164.689 41.8369 164.839 41.7434 165.063 41.6686C165.063 41.5938 165.1 41.4441 165.175 41.2196L165.288 40.939C165.288 40.8268 165.138 40.6771 164.839 40.4901C164.764 40.3778 164.82 40.2843 165.007 40.2095C165.007 40.172 164.97 40.1159 164.895 40.0411C164.82 39.9663 164.782 39.9101 164.782 39.8727L164.502 38.4136C164.502 37.8524 164.67 37.5531 165.007 37.5157L165.512 37.6279C165.549 37.6279 165.643 37.5905 165.793 37.5157L166.017 37.4596C166.129 37.4596 166.223 37.5157 166.298 37.6279C166.373 37.815 166.522 37.9085 166.747 37.9085C166.859 37.9085 167.027 37.8711 167.252 37.7963C167.327 37.7589 167.514 37.7402 167.813 37.7402C167.888 37.6653 167.963 37.6092 168.037 37.5718C168.15 37.497 168.281 37.4409 168.43 37.4034C168.543 37.4034 168.767 37.5157 169.104 37.7402L169.497 37.4596C169.946 37.4596 170.394 37.4034 170.843 37.2912C170.843 37.2912 170.787 37.3847 170.675 37.5718L170.507 37.9085C170.544 38.133 170.544 38.4884 170.507 38.9748C170.507 39.0122 170.469 39.1058 170.394 39.2554C170.32 39.4051 170.282 39.4986 170.282 39.536L170.394 39.8166C170.432 39.9289 170.451 40.0224 170.451 40.0972L170.282 40.7707L170.338 41.1635C170.338 41.2383 170.301 41.388 170.226 41.6125L170.058 42.1175C170.095 42.342 170.095 42.6974 170.058 43.1838C170.058 43.2961 170.002 43.4644 169.889 43.6889C169.815 43.7637 169.459 43.7637 168.823 43.6889C168.673 43.6515 168.543 43.6328 168.43 43.6328C168.355 43.6328 168.281 43.6328 168.206 43.6328C167.944 43.6328 167.776 43.6702 167.701 43.745C167.626 43.8947 167.588 44.0069 167.588 44.0817C167.588 44.2688 167.757 44.4185 168.094 44.5307L168.599 44.6991C168.673 44.5868 168.748 44.5307 168.823 44.5307C168.898 44.5307 168.935 44.5868 168.935 44.6991C168.935 44.961 168.861 45.1854 168.711 45.3725L168.15 46.1021C168.112 46.1395 167.832 46.1956 167.308 46.2704L166.803 47C166.691 47.1497 166.354 47.2619 165.793 47.3367C165.68 47.2993 165.456 47.2806 165.119 47.2806L164.67 47.5051C164.408 47.6173 164.221 47.6734 164.109 47.6734H163.492C163.305 47.6734 163.155 47.6547 163.043 47.6173C162.93 47.6173 162.856 47.6173 162.818 47.6173L162.538 47.7296C162.425 47.767 162.332 47.7857 162.257 47.7857ZM167.364 26.46L167.532 26.3478C167.532 26.2729 167.514 26.2168 167.476 26.1794C167.401 26.2542 167.364 26.3478 167.364 26.46ZM161.976 26.5161L162.145 26.4039L161.976 26.2916C161.902 26.3665 161.902 26.4413 161.976 26.5161ZM165.231 28.312C165.306 28.3494 165.381 28.3307 165.456 28.2558C165.531 28.181 165.512 28.1062 165.4 28.0314C165.288 28.0314 165.231 28.1249 165.231 28.312ZM158.104 28.4803C158.254 28.3681 158.329 28.2558 158.329 28.1436L158.048 28.0875L157.936 28.2558L158.104 28.4803ZM170.226 28.1436V28.0875C170.226 28.1249 170.226 28.1436 170.226 28.1436ZM167.757 31.0619C167.906 31.0244 168.037 30.987 168.15 30.9496C168.262 30.9122 168.355 30.8748 168.43 30.8374V30.669L168.037 30.3323C167.963 30.4445 167.888 30.5568 167.813 30.669C167.738 30.7438 167.663 30.8187 167.588 30.8935C167.626 30.8935 167.663 30.9122 167.701 30.9496C167.701 31.0244 167.719 31.0619 167.757 31.0619ZM159.058 37.5157C159.245 37.5157 159.545 37.366 159.956 37.0667C159.881 36.8422 159.75 36.5991 159.563 36.3372L158.834 36.8422C158.759 36.9919 158.721 37.1041 158.721 37.179C158.721 37.4034 158.834 37.5157 159.058 37.5157ZM169.16 39.6482L169.104 39.3676L168.879 39.4799C168.917 39.5173 169.01 39.5734 169.16 39.6482ZM161.808 40.3778V40.4339V40.3778ZM161.584 46.3827C161.584 46.3079 161.546 46.233 161.471 46.1582C161.434 46.0834 161.359 46.1021 161.247 46.2143C161.247 46.3266 161.359 46.3827 161.584 46.3827ZM179.59 47.8418L179.197 47.7296C178.973 47.6173 178.823 47.5612 178.748 47.5612L178.355 47.6173H178.187C178.224 47.6173 178.149 47.5986 177.962 47.5612C177.775 47.5612 177.42 47.5051 176.896 47.3928C176.746 47.1309 176.597 47 176.447 47L176.167 47.0561C176.129 47.0561 176.092 47.0561 176.054 47.0561C176.017 47.0935 175.979 47.1122 175.942 47.1122C175.792 47.1122 175.624 47.0187 175.437 46.8316C175.362 46.7568 175.269 46.6633 175.156 46.551C175.044 46.4014 174.894 46.2517 174.707 46.1021C174.109 45.9524 173.716 45.6905 173.529 45.3164C173.529 45.0919 173.473 44.961 173.361 44.9236C173.211 44.8861 173.136 44.7739 173.136 44.5868C173.136 44.3623 173.211 44.0256 173.361 43.5767L172.519 43.2399L172.238 42.1175C172.163 41.9305 172.051 41.7247 171.901 41.5002C171.789 41.2383 171.639 40.9577 171.452 40.6584V40.3217C171.452 40.0972 171.49 39.9476 171.565 39.8727C171.602 39.8353 171.714 39.8166 171.901 39.8166H172.07C172.107 39.8166 172.126 39.8353 172.126 39.8727C172.126 39.8727 172.145 39.8727 172.182 39.8727L172.463 39.7044C172.5 39.667 172.65 39.6482 172.912 39.6482L173.136 39.7044C173.173 39.7044 173.192 39.7231 173.192 39.7605C173.23 39.7605 173.267 39.7605 173.304 39.7605L173.978 39.536L174.146 39.3676C174.296 39.2928 174.483 39.2367 174.707 39.1993C174.932 39.1619 175.231 39.1245 175.605 39.087L175.774 39.1432C175.736 39.1432 175.718 39.2741 175.718 39.536C175.718 39.7231 175.83 39.8166 176.054 39.8166C176.092 39.8166 176.297 39.5921 176.672 39.1432C176.746 39.3676 176.784 39.7418 176.784 40.2656C176.784 40.5275 176.859 40.7145 177.008 40.8268C177.121 41.0138 177.158 41.2009 177.121 41.388C177.121 41.4628 177.158 41.5002 177.233 41.5002C176.934 41.5002 176.784 41.575 176.784 41.7247C176.784 41.9866 176.915 42.1175 177.177 42.1175C177.252 42.1175 177.382 41.9679 177.57 41.6686C177.607 41.7434 177.719 41.9492 177.906 42.2859C178.018 42.3981 178.411 42.6226 179.085 42.9593C179.384 43.0716 179.777 43.1277 180.263 43.1277C180.413 43.1277 180.581 42.9781 180.768 42.6787C181.03 42.6787 181.273 42.4917 181.498 42.1175C181.461 42.155 181.423 42.1737 181.386 42.1737C181.386 42.1362 181.367 42.1175 181.33 42.1175C181.33 42.0801 181.33 42.0427 181.33 42.0053C181.33 41.8931 181.348 41.7808 181.386 41.6686C181.461 41.5189 181.517 41.3693 181.554 41.2196C181.479 41.1448 181.386 41.0325 181.273 40.8829C181.199 40.6958 181.105 40.4901 180.993 40.2656C181.18 40.0785 181.143 39.8727 180.881 39.6482L180.319 39.2554L180.432 38.6381C180.319 38.451 179.87 38.3014 179.085 38.1891L178.86 37.7402C178.673 37.5531 178.411 37.3473 178.075 37.1228C177.962 37.1228 177.794 37.0667 177.57 36.9545C177.532 36.9171 177.495 36.8797 177.457 36.8422C177.42 36.7674 177.364 36.7113 177.289 36.6739C177.252 36.6365 177.139 36.6178 176.952 36.6178C176.84 36.5429 176.672 36.3746 176.447 36.1127L176.391 35.6637C176.279 35.6637 176.073 35.6263 175.774 35.5515C175.474 35.4392 175.25 35.3083 175.1 35.1586L174.707 34.4852C174.371 34.1859 174.053 33.8679 173.753 33.5311C173.267 33.0448 173.005 32.6519 172.968 32.3526L173.304 31.9598C173.267 31.9598 173.173 31.9598 173.024 31.9598C172.912 31.9598 172.781 31.8288 172.631 31.5669V31.1741C172.556 30.9122 172.481 30.7625 172.406 30.7251C172.369 30.6503 172.35 30.5942 172.35 30.5568L172.406 30.3323V29.3782C172.444 29.4157 172.5 29.4344 172.575 29.4344C172.762 29.4344 172.855 29.3221 172.855 29.0976C172.855 28.8358 172.668 28.7048 172.294 28.7048C172.706 28.4055 172.912 28.1249 172.912 27.863C172.912 27.6011 172.724 27.3579 172.35 27.1334C172.313 26.9464 172.369 26.778 172.519 26.6284L172.968 26.4039C173.005 26.329 173.043 26.2542 173.08 26.1794C173.155 26.0672 173.248 25.9362 173.361 25.7866C173.323 25.7117 173.286 25.6182 173.248 25.506C173.248 25.3937 173.248 25.3002 173.248 25.2254C173.248 25.0009 173.286 24.8325 173.361 24.7203C173.398 24.6829 173.454 24.6641 173.529 24.6641C173.604 24.6641 173.697 24.6454 173.809 24.608L174.034 24.1591C174.595 24.1591 174.782 23.9533 174.595 23.5417H174.651C174.764 23.5417 174.894 23.3734 175.044 23.0367C175.119 23.0367 175.325 22.9244 175.661 22.6999C175.811 22.5503 176.017 22.4755 176.279 22.4755H176.447C176.485 22.4755 176.503 22.4942 176.503 22.5316C176.541 22.5316 176.578 22.5316 176.615 22.5316L176.84 22.4755C176.84 22.4006 176.896 22.3071 177.008 22.1949C177.308 21.9704 177.532 21.8581 177.682 21.8581L178.131 21.9704L178.299 21.9143H178.467C179.029 21.9143 179.44 22.0452 179.702 22.3071L179.646 22.5877H179.758C179.796 22.5877 179.908 22.4942 180.095 22.3071C180.245 22.1574 180.394 22.0826 180.544 22.0826C180.768 22.0826 180.955 22.1387 181.105 22.251C181.292 22.3632 181.404 22.4193 181.442 22.4193L181.891 22.3071C182.04 22.2697 182.134 22.251 182.171 22.251C182.246 22.251 182.302 22.251 182.34 22.251C182.452 22.251 182.564 22.2697 182.676 22.3071L182.901 22.4193C182.938 22.4942 183.069 22.6438 183.294 22.8683H183.35C183.574 22.8683 183.93 22.9805 184.416 23.205C184.678 23.3921 184.884 23.6727 185.034 24.0468L185.539 25.057C185.539 25.3563 185.595 25.7678 185.707 26.2916C185.782 26.3665 185.875 26.4787 185.988 26.6284C186.1 26.7406 186.231 26.8903 186.38 27.0773C186.38 27.1147 186.362 27.1896 186.324 27.3018C186.324 27.3766 186.306 27.4702 186.268 27.5824C186.38 27.6946 186.474 27.8817 186.549 28.1436C186.586 28.2558 186.624 28.3494 186.661 28.4242C186.698 28.499 186.736 28.5739 186.773 28.6487V28.9293L185.763 29.3221C185.202 29.4718 184.716 29.584 184.304 29.6588C183.93 29.7337 183.612 29.7711 183.35 29.7711L183.182 29.715C183.144 29.715 183.107 29.715 183.069 29.715C183.069 29.6776 183.051 29.6588 183.013 29.6588C182.938 29.6588 182.845 29.715 182.733 29.8272L182.508 30.0517C182.171 30.1639 181.909 30.2201 181.722 30.2201C181.573 30.2201 181.404 30.0517 181.217 29.715C181.068 29.4531 180.993 29.266 180.993 29.1538C180.993 27.8817 180.955 27.2831 180.881 27.3579C180.506 27.1334 180.245 27.0773 180.095 27.1896H180.039L179.534 26.9651C179.384 26.8903 179.253 26.8528 179.141 26.8528C179.066 26.8154 179.01 26.7967 178.973 26.7967L178.692 26.8528C178.58 26.8903 178.486 26.909 178.411 26.909C178.337 26.909 178.262 26.909 178.187 26.909L178.075 27.414C178 27.4515 177.85 27.5824 177.626 27.8069L177.457 28.5364C177.644 28.5739 177.775 28.7048 177.85 28.9293C177.925 29.266 177.962 29.4344 177.962 29.4344C177.925 29.4718 177.7 29.5279 177.289 29.6027C177.214 29.6027 177.139 29.6401 177.064 29.715C177.102 29.8272 177.364 29.9207 177.85 29.9956C177.962 30.1078 178.037 30.2949 178.075 30.5568L178.692 30.669C178.692 30.8187 178.767 30.987 178.916 31.1741C178.954 31.1741 179.047 31.2115 179.197 31.2863C179.272 31.436 179.384 31.5856 179.534 31.7353C179.721 31.7353 179.889 31.7914 180.039 31.9037C180.226 32.0907 180.319 32.2591 180.319 32.4087H180.207C180.095 32.4087 179.945 32.4649 179.758 32.5771V32.8016C179.833 32.8764 179.927 32.9512 180.039 33.0261C180.188 33.0635 180.357 33.0635 180.544 33.0261L180.712 32.9699H180.881L181.105 33.1383C181.33 33.1757 181.498 33.1944 181.61 33.1944C181.722 33.1944 181.797 33.1944 181.835 33.1944C182.134 33.2693 182.34 33.3815 182.452 33.5311C182.564 33.8305 182.751 34.1298 183.013 34.4291L183.574 34.5974C183.761 34.7097 183.892 34.878 183.967 35.1025C184.528 35.5889 184.809 35.9443 184.809 36.1688V36.281L185.482 36.9545C185.482 37.0293 185.482 37.1228 185.482 37.2351C185.52 37.3473 185.557 37.4783 185.595 37.6279C185.67 37.6653 185.744 37.7027 185.819 37.7402C185.894 37.7776 185.969 37.8337 186.044 37.9085C186.268 38.1704 186.38 38.3762 186.38 38.5258L186.268 38.8064C186.231 38.8813 186.193 38.9374 186.156 38.9748C186.156 39.0122 186.156 39.0496 186.156 39.087C186.156 39.1993 186.287 39.4612 186.549 39.8727C186.549 39.8727 186.511 39.9663 186.437 40.1533L186.549 40.6584L186.661 41.0513L186.493 41.6125C186.53 41.6873 186.549 41.8744 186.549 42.1737C186.511 42.2111 186.474 42.2485 186.437 42.2859C186.399 42.2859 186.362 42.3233 186.324 42.3981L185.875 43.8011C185.875 43.876 185.875 43.9882 185.875 44.1379C185.875 44.2501 185.857 44.3811 185.819 44.5307C185.744 44.83 185.445 44.9797 184.921 44.9797L184.528 45.9337L183.687 46.4949C183.574 46.6072 183.313 46.8129 182.901 47.1122H182.452L181.554 47.5051C180.394 47.7296 179.74 47.8418 179.59 47.8418ZM178.58 23.205C178.617 23.1302 178.598 23.0554 178.524 22.9805C178.486 22.9431 178.393 22.9618 178.243 23.0367C178.318 23.1489 178.43 23.205 178.58 23.205ZM185.763 28.4803C185.763 28.2184 185.744 28.0875 185.707 28.0875L185.426 28.0314C185.389 28.0314 185.352 28.0314 185.314 28.0314C185.277 27.9939 185.239 27.9752 185.202 27.9752C185.127 28.0501 185.09 28.181 185.09 28.3681L185.763 28.4803ZM173.809 28.817C173.809 28.6674 173.791 28.5739 173.753 28.5364C173.641 28.499 173.548 28.5177 173.473 28.5926C173.473 28.6674 173.585 28.7422 173.809 28.817ZM177.513 32.8016C177.7 32.7268 177.794 32.6519 177.794 32.5771C177.794 32.5023 177.7 32.4274 177.513 32.3526V32.8016ZM173.697 41.8931C173.697 41.8182 173.66 41.706 173.585 41.5563L173.417 41.6125C173.23 41.6125 173.173 41.5189 173.248 41.3319L173.136 41.5563C173.173 41.6686 173.248 41.7808 173.361 41.8931H173.697ZM184.136 43.4083C184.098 43.4083 184.341 43.2212 184.865 42.8471V42.6226C184.641 42.3607 184.435 42.2298 184.248 42.2298H184.079C184.079 42.3046 184.061 42.3981 184.023 42.5104C184.023 42.5852 184.005 42.6787 183.967 42.791C183.78 43.0903 183.687 43.2399 183.687 43.2399C183.799 43.3522 183.949 43.4083 184.136 43.4083ZM178.355 45.7654L178.018 45.3725H177.794L177.738 45.5409L178.355 45.7654Z" fill="black"/>
<path d="M66.9806 59.1262C66.9806 59.4154 66.9124 59.6882 66.776 59.9446C66.6396 60.2011 66.4214 60.4111 66.1213 60.5748C65.8212 60.7331 65.4365 60.8122 64.9673 60.8122H63.9361V63.1201H63.0031V57.4321H64.9673C65.4038 57.4321 65.7721 57.5085 66.0722 57.6613C66.3777 57.8086 66.6041 58.0104 66.7515 58.2669C66.9042 58.5233 66.9806 58.8098 66.9806 59.1262ZM64.9673 60.051C65.322 60.051 65.5866 59.9719 65.7612 59.8137C65.9358 59.65 66.0231 59.4209 66.0231 59.1262C66.0231 58.5042 65.6711 58.1932 64.9673 58.1932H63.9361V60.051H64.9673ZM76.4721 63.1201L75.1626 60.8449H74.4506V63.1201H73.5176V57.4321H75.4818C75.9183 57.4321 76.2865 57.5085 76.5866 57.6613C76.8922 57.814 77.1186 58.0186 77.2659 58.2751C77.4187 58.5315 77.4951 58.818 77.4951 59.1344C77.4951 59.5054 77.386 59.8437 77.1677 60.1493C76.9549 60.4493 76.6248 60.6539 76.1774 60.7631L77.5851 63.1201H76.4721ZM74.4506 60.1001H75.4818C75.831 60.1001 76.0928 60.0128 76.2674 59.8383C76.4475 59.6637 76.5375 59.429 76.5375 59.1344C76.5375 58.8398 76.4502 58.6106 76.2756 58.4469C76.101 58.2778 75.8364 58.1932 75.4818 58.1932H74.4506V60.1001ZM86.9301 63.1774C86.4009 63.1774 85.9125 63.0546 85.4651 62.8091C85.0232 62.5581 84.6713 62.2117 84.4094 61.7697C84.1529 61.3223 84.0247 60.8204 84.0247 60.2638C84.0247 59.7073 84.1529 59.2081 84.4094 58.7661C84.6713 58.3242 85.0232 57.9804 85.4651 57.7349C85.9125 57.4839 86.4009 57.3584 86.9301 57.3584C87.4648 57.3584 87.9531 57.4839 88.3951 57.7349C88.8425 57.9804 89.1944 58.3242 89.4508 58.7661C89.7073 59.2081 89.8355 59.7073 89.8355 60.2638C89.8355 60.8204 89.7073 61.3223 89.4508 61.7697C89.1944 62.2117 88.8425 62.5581 88.3951 62.8091C87.9531 63.0546 87.4648 63.1774 86.9301 63.1774ZM86.9301 62.3672C87.3066 62.3672 87.6421 62.2826 87.9368 62.1135C88.2314 61.9389 88.4606 61.6933 88.6242 61.3769C88.7934 61.055 88.878 60.684 88.878 60.2638C88.878 59.8437 88.7934 59.4754 88.6242 59.159C88.4606 58.8425 88.2314 58.5997 87.9368 58.4306C87.6421 58.2614 87.3066 58.1769 86.9301 58.1769C86.5536 58.1769 86.2181 58.2614 85.9235 58.4306C85.6288 58.5997 85.3969 58.8425 85.2278 59.159C85.0641 59.4754 84.9823 59.8437 84.9823 60.2638C84.9823 60.684 85.0641 61.055 85.2278 61.3769C85.3969 61.6933 85.6288 61.9389 85.9235 62.1135C86.2181 62.2826 86.5536 62.3672 86.9301 62.3672ZM99.748 57.4321V58.1932H97.3337V59.871H99.2161V60.6321H97.3337V63.1201H96.4007V57.4321H99.748ZM107.193 58.185V59.8546H109.157V60.6158H107.193V62.359H109.403V63.1201H106.26V57.4239H109.403V58.185H107.193ZM118.073 63.1774C117.691 63.1774 117.347 63.1119 117.042 62.981C116.736 62.8446 116.496 62.6536 116.322 62.4081C116.147 62.1626 116.06 61.8761 116.06 61.5488H117.058C117.08 61.7943 117.175 61.9962 117.345 62.1544C117.519 62.3126 117.762 62.3917 118.073 62.3917C118.395 62.3917 118.646 62.3153 118.826 62.1626C119.006 62.0043 119.096 61.8025 119.096 61.5569C119.096 61.366 119.039 61.2105 118.924 61.0904C118.815 60.9704 118.676 60.8776 118.507 60.8122C118.343 60.7467 118.114 60.6758 117.819 60.5994C117.448 60.5012 117.145 60.403 116.911 60.3048C116.682 60.2011 116.485 60.0429 116.322 59.8301C116.158 59.6173 116.076 59.3336 116.076 58.9789C116.076 58.6515 116.158 58.3651 116.322 58.1196C116.485 57.874 116.714 57.6858 117.009 57.5549C117.304 57.4239 117.645 57.3584 118.032 57.3584C118.583 57.3584 119.033 57.4976 119.382 57.7758C119.737 58.0486 119.934 58.4251 119.972 58.9053H118.941C118.924 58.6979 118.826 58.5206 118.646 58.3733C118.466 58.226 118.228 58.1523 117.934 58.1523C117.666 58.1523 117.448 58.2205 117.279 58.3569C117.11 58.4933 117.025 58.6897 117.025 58.9462C117.025 59.1208 117.077 59.2654 117.181 59.3799C117.29 59.4891 117.426 59.5764 117.59 59.6418C117.754 59.7073 117.977 59.7782 118.261 59.8546C118.638 59.9583 118.943 60.062 119.178 60.1656C119.418 60.2693 119.62 60.4302 119.783 60.6485C119.953 60.8613 120.037 61.1477 120.037 61.5078C120.037 61.797 119.958 62.0698 119.8 62.3262C119.647 62.5827 119.421 62.79 119.121 62.9482C118.826 63.101 118.477 63.1774 118.073 63.1774ZM128.659 63.1774C128.277 63.1774 127.934 63.1119 127.628 62.981C127.323 62.8446 127.083 62.6536 126.908 62.4081C126.733 62.1626 126.646 61.8761 126.646 61.5488H127.645C127.666 61.7943 127.762 61.9962 127.931 62.1544C128.106 62.3126 128.348 62.3917 128.659 62.3917C128.981 62.3917 129.232 62.3153 129.412 62.1626C129.592 62.0043 129.682 61.8025 129.682 61.5569C129.682 61.366 129.625 61.2105 129.511 61.0904C129.401 60.9704 129.262 60.8776 129.093 60.8122C128.929 60.7467 128.7 60.6758 128.406 60.5994C128.035 60.5012 127.732 60.403 127.497 60.3048C127.268 60.2011 127.072 60.0429 126.908 59.8301C126.744 59.6173 126.662 59.3336 126.662 58.9789C126.662 58.6515 126.744 58.3651 126.908 58.1196C127.072 57.874 127.301 57.6858 127.595 57.5549C127.89 57.4239 128.231 57.3584 128.618 57.3584C129.17 57.3584 129.62 57.4976 129.969 57.7758C130.323 58.0486 130.52 58.4251 130.558 58.9053H129.527C129.511 58.6979 129.412 58.5206 129.232 58.3733C129.052 58.226 128.815 58.1523 128.52 58.1523C128.253 58.1523 128.035 58.2205 127.865 58.3569C127.696 58.4933 127.612 58.6897 127.612 58.9462C127.612 59.1208 127.664 59.2654 127.767 59.3799C127.876 59.4891 128.013 59.5764 128.176 59.6418C128.34 59.7073 128.564 59.7782 128.848 59.8546C129.224 59.9583 129.53 60.062 129.764 60.1656C130.004 60.2693 130.206 60.4302 130.37 60.6485C130.539 60.8613 130.624 61.1477 130.624 61.5078C130.624 61.797 130.544 62.0698 130.386 62.3262C130.233 62.5827 130.007 62.79 129.707 62.9482C129.412 63.101 129.063 63.1774 128.659 63.1774ZM138.305 57.4321V63.1201H137.372V57.4321H138.305ZM147.771 63.1774C147.242 63.1774 146.753 63.0546 146.306 62.8091C145.864 62.5581 145.512 62.2117 145.25 61.7697C144.994 61.3223 144.866 60.8204 144.866 60.2638C144.866 59.7073 144.994 59.2081 145.25 58.7661C145.512 58.3242 145.864 57.9804 146.306 57.7349C146.753 57.4839 147.242 57.3584 147.771 57.3584C148.306 57.3584 148.794 57.4839 149.236 57.7349C149.683 57.9804 150.035 58.3242 150.292 58.7661C150.548 59.2081 150.676 59.7073 150.676 60.2638C150.676 60.8204 150.548 61.3223 150.292 61.7697C150.035 62.2117 149.683 62.5581 149.236 62.8091C148.794 63.0546 148.306 63.1774 147.771 63.1774ZM147.771 62.3672C148.147 62.3672 148.483 62.2826 148.778 62.1135C149.072 61.9389 149.301 61.6933 149.465 61.3769C149.634 61.055 149.719 60.684 149.719 60.2638C149.719 59.8437 149.634 59.4754 149.465 59.159C149.301 58.8425 149.072 58.5997 148.778 58.4306C148.483 58.2614 148.147 58.1769 147.771 58.1769C147.395 58.1769 147.059 58.2614 146.764 58.4306C146.47 58.5997 146.238 58.8425 146.069 59.159C145.905 59.4754 145.823 59.8437 145.823 60.2638C145.823 60.684 145.905 61.055 146.069 61.3769C146.238 61.6933 146.47 61.9389 146.764 62.1135C147.059 62.2826 147.395 62.3672 147.771 62.3672ZM161.915 63.1201H160.982L158.175 58.8725V63.1201H157.242V57.4239H158.175L160.982 61.6633V57.4239H161.915V63.1201ZM172.216 61.958H169.835L169.425 63.1201H168.452L170.489 57.4239H171.57L173.608 63.1201H172.625L172.216 61.958ZM171.954 61.1968L171.03 58.5533L170.097 61.1968H171.954ZM181.074 62.3672H182.997V63.1201H180.141V57.4321H181.074V62.3672Z" fill="black"/>
<path d="M52.784 16.3684L52.784 64.97L10.6939 40.6692L52.784 16.3684Z" fill="#644AFF"/>
<path d="M36.0627 30.5738C36.0627 29.6142 36.3479 28.676 36.8822 27.8781C37.4165 27.0802 38.176 26.4583 39.0646 26.091C39.9531 25.7238 40.9309 25.6277 41.8741 25.8149C42.8174 26.0021 43.6839 26.4643 44.364 27.1428C45.044 27.8214 45.5072 28.686 45.6948 29.6272C45.8824 30.5684 45.7861 31.544 45.4181 32.4307C45.05 33.3173 44.4268 34.0751 43.6271 34.6082C42.8274 35.1414 41.8872 35.426 40.9255 35.426C39.637 35.422 38.4025 34.9095 37.4914 34.0004C36.5803 33.0913 36.0667 31.8595 36.0627 30.5738ZM51.8667 42.3403C51.8667 42.0186 51.7386 41.71 51.5106 41.4825C51.2827 41.255 50.9734 41.1272 50.651 41.1272C50.4552 41.1257 50.262 41.1726 50.0888 41.2637H50.104C50.0888 41.2637 49.1162 41.7337 47.3383 41.5518C45.5603 41.3698 42.8554 40.5814 39.2387 37.7459C36.9592 35.9718 33.4185 34.0158 29.4523 34.774C27.0513 35.2288 25.6685 36.457 25.5165 36.5935C25.397 36.6999 25.3001 36.8292 25.2314 36.9735C25.1627 37.1179 25.1237 37.2746 25.1166 37.4342C25.1095 37.5939 25.1345 37.7534 25.1902 37.9033C25.2458 38.0531 25.3309 38.1904 25.4405 38.3069C25.6582 38.5441 25.9614 38.6854 26.2834 38.6996C26.6054 38.7138 26.9199 38.5998 27.1577 38.3827C27.3249 38.2311 31.0783 34.9862 36.9744 39.0802C36.2521 41.495 35.127 43.771 33.6465 45.8126L33.2818 46.2826C30.4097 49.9521 26.8842 51.5897 22.8116 51.1803C22.4892 51.1481 22.1671 51.245 21.9164 51.4498C21.6656 51.6545 21.5066 51.9503 21.4743 52.272C21.4421 52.5937 21.5392 52.915 21.7444 53.1653C21.9496 53.4155 22.246 53.5742 22.5685 53.6063C23.0699 53.6518 23.541 53.667 24.0121 53.667C28.9661 53.667 32.6131 51.0286 35.1357 47.8596C38.0838 48.6481 43.3568 50.9225 43.3568 57.2454C43.3568 57.5672 43.4849 57.8757 43.7129 58.1032C43.9409 58.3307 44.2501 58.4585 44.5725 58.4585C44.895 58.4585 45.2042 58.3307 45.4322 58.1032C45.6602 57.8757 45.7882 57.5672 45.7882 57.2454C45.7882 53.5002 44.2534 50.3615 41.351 48.1628C39.7705 46.965 38.0078 46.222 36.6097 45.7671C37.6159 44.1421 38.4317 42.4073 39.0411 40.5965C42.9617 43.3107 46.0618 43.9779 48.1588 43.9779C50.2559 43.9779 51.1221 43.4472 51.2133 43.3865C51.4081 43.2889 51.5721 43.1396 51.6874 42.9551C51.8027 42.7705 51.8647 42.5578 51.8667 42.3403Z" fill="white"/>
</svg>
