<svg width="23" height="21" viewBox="0 0 23 21" fill="none" xmlns="http://www.w3.org/2000/svg">
<path d="M10.5968 0.835353C10.9013 -0.0750432 12.189 -0.075044 12.4936 0.835352L14.3579 6.40929C14.4943 6.81713 14.8762 7.09209 15.3063 7.09209H21.2764C22.2521 7.09209 22.6502 8.34646 21.853 8.90909L17.0734 12.2824C16.7127 12.537 16.5617 12.998 16.7017 13.4166L18.539 18.9098C18.8455 19.826 17.8034 20.6011 17.014 20.044L12.1218 16.5911C11.7761 16.3472 11.3143 16.3472 10.9686 16.5911L6.07636 20.044C5.28703 20.6011 4.24491 19.826 4.55137 18.9098L6.3887 13.4166C6.52873 12.998 6.37766 12.537 6.01697 12.2824L1.2374 8.90909C0.440223 8.34646 0.838299 7.09209 1.81403 7.09209H7.78413C8.21418 7.09209 8.59608 6.81713 8.73249 6.40929L10.5968 0.835353Z" fill="#FFAC2F"/>
</svg>
