<svg width="153" height="60" viewBox="0 0 153 60" fill="none" xmlns="http://www.w3.org/2000/svg">
<path d="M26.0511 37.7922C25.8917 40.0766 25.2542 41.8828 24.1386 43.2109C23.023 44.5125 21.6152 45.4422 19.9152 46C18.2417 46.5313 16.4355 46.7969 14.4964 46.7969C13.1152 46.7969 11.6144 46.4383 9.99409 45.7211C8.40034 45.0039 6.84644 43.9281 5.33237 42.4937C3.81831 41.0594 2.49019 39.2531 1.348 37.075L1.6269 36.7961C2.6894 37.6195 3.81831 38.3633 5.01362 39.0273C6.2355 39.6914 7.44409 40.2625 8.6394 40.7406C9.83472 41.1922 10.9371 41.5375 11.9464 41.7766C12.9824 42.0156 13.8191 42.1352 14.4566 42.1352C15.705 42.1352 16.7542 41.843 17.6042 41.2586C18.4808 40.6742 18.9855 39.7047 19.1183 38.35V38.2305C19.1183 37.6461 18.7332 37.0352 17.9628 36.3977C17.1925 35.7336 16.1832 35.0297 14.9347 34.2859C13.7128 33.5422 12.4113 32.7586 11.03 31.9352C9.67534 31.1117 8.38706 30.2617 7.16519 29.3852C5.94331 28.482 4.93394 27.5523 4.13706 26.5961C3.36675 25.6398 2.98159 24.6437 2.98159 23.6078C2.98159 23.475 2.98159 23.3687 2.98159 23.2891C2.98159 23.1828 2.99487 23.0766 3.02144 22.9703C3.34019 21.1906 4.04409 19.6367 5.13315 18.3086C6.24878 16.9805 7.5769 15.9445 9.11753 15.2008C10.6847 14.457 12.305 14.0852 13.9785 14.0852C15.6785 14.0852 17.498 14.3508 19.4371 14.882C21.4027 15.3867 23.4082 16.1172 25.4535 17.0734L23.2222 23.568C21.1503 21.5492 19.3707 20.0617 17.8832 19.1055C16.3957 18.1492 14.9878 17.6711 13.6597 17.6711C12.2253 17.6711 11.123 18.0297 10.3527 18.7469C9.60894 19.4375 9.18394 20.6062 9.07769 22.2531V22.3727C9.07769 22.9836 9.38315 23.5945 9.99409 24.2055C10.605 24.8164 11.4152 25.4406 12.4246 26.0781C13.4339 26.6891 14.5363 27.3266 15.7316 27.9906C16.9535 28.6281 18.1621 29.3055 19.3574 30.0227C20.5792 30.7133 21.6949 31.457 22.7042 32.2539C23.7136 33.0242 24.5238 33.8477 25.1347 34.7242C25.7457 35.5742 26.0511 36.4906 26.0511 37.4734V37.7922ZM64.2859 14.3641L73.9679 16.0375L67.4734 22.5719L64.2859 14.3641ZM65.9992 46L64.9632 23.807H71.9757L70.9398 46H65.9992ZM103.746 46L103.109 32.3336C103.029 30.7398 102.777 29.6242 102.352 28.9867C101.927 28.3227 101.303 27.9906 100.479 27.9906C99.8683 27.9906 99.191 28.1766 98.4472 28.5484C97.7035 28.9203 96.973 29.4117 96.2558 30.0227C96.2292 30.1289 96.216 30.2352 96.216 30.3414C96.216 30.4477 96.216 30.5672 96.216 30.7L95.5785 46H91.0363L90.3988 32.3336C90.3191 30.7398 90.0269 29.6242 89.5222 28.9867C89.0441 28.3227 88.3933 27.9906 87.5699 27.9906C86.9855 27.9906 86.3347 28.1633 85.6175 28.5086C84.9003 28.8539 84.1964 29.3187 83.5058 29.9031L82.9082 46H78.2066L77.1707 23.807H83.7449L83.5855 27.5523C84.7277 26.1711 86.016 25.1219 87.4503 24.4047C88.8847 23.6609 90.2925 23.2891 91.6738 23.2891C93.1082 23.2891 94.1839 23.6609 94.9011 24.4047C95.6183 25.1219 96.0433 26.3039 96.1761 27.9508C97.3449 26.4633 98.673 25.3211 100.16 24.5242C101.648 23.7008 103.122 23.2891 104.583 23.2891C106.23 23.2891 107.399 23.7805 108.089 24.7633C108.807 25.7195 109.165 27.3 109.165 29.5047C109.165 29.6906 109.152 29.8898 109.125 30.1023C109.125 30.2883 109.125 30.4875 109.125 30.7L108.488 46H103.746ZM114.129 14.3641L123.811 16.0375L117.317 22.5719L114.129 14.3641ZM115.843 46L114.807 23.807H121.819L120.783 46H115.843ZM142.872 46L142.235 32.3336C142.155 30.5805 141.916 29.425 141.517 28.8672C141.146 28.2828 140.548 27.9906 139.724 27.9906C139.087 27.9906 138.197 28.1633 137.055 28.5086C135.913 28.8273 134.797 29.332 133.708 30.0227L132.951 46H128.05L127.014 23.807H133.987L133.788 28.0305C134.611 27.1008 135.554 26.2773 136.617 25.5602C137.706 24.843 138.835 24.2852 140.003 23.8867C141.172 23.4883 142.288 23.2891 143.35 23.2891C145.342 23.2891 146.697 23.8336 147.414 24.9227C148.131 25.9852 148.49 27.5391 148.49 29.5844C148.49 29.7703 148.477 29.9562 148.45 30.1422C148.45 30.3016 148.45 30.4875 148.45 30.7L147.813 46H142.872Z" fill="black"/>
<path d="M52.4205 46.518L44.4518 31.2977L37.9174 46.518H37.4393L28.7932 25.0023L35.208 23.3289L38.8338 36.7961L43.4158 25.7992L48.7151 25.1617L52.301 36.0789L60.5487 23.4086H61.1065L52.8987 46.518H52.4205Z" fill="#31B6E0"/>
<path d="M51.408 52.7265C25.6224 46.5987 6.392 52.2158 0 55.7904C5.168 54.0154 23.664 52.2964 51.408 58.0883C79.152 63.8803 96.696 55.1398 102 50.0455C95.88 53.4925 77.1936 58.8543 51.408 52.7265Z" fill="#4FD5FF"/>
</svg>
