<svg width="157" height="36" viewBox="0 0 157 36" fill="none" xmlns="http://www.w3.org/2000/svg">
<path d="M49.1919 27.28C48.0346 27.28 46.9519 27.196 45.9439 27.028C44.9546 26.86 44.0959 26.6173 43.3679 26.3V22.968C44.1893 23.304 45.0759 23.5747 46.0279 23.78C46.9799 23.9853 47.9133 24.088 48.8279 24.088C50.1346 24.088 51.0959 23.9667 51.7119 23.724C52.3279 23.4813 52.6359 22.9307 52.6359 22.072C52.6359 21.5307 52.5053 21.1013 52.2439 20.784C51.9826 20.4667 51.5253 20.1867 50.8719 19.944C50.2373 19.6827 49.3319 19.3933 48.1559 19.076C46.2706 18.5533 44.9453 17.9 44.1799 17.116C43.4146 16.332 43.0319 15.2493 43.0319 13.868C43.0319 12.2067 43.6386 10.928 44.8519 10.032C46.0653 9.136 47.8293 8.688 50.1439 8.688C51.2266 8.688 52.2346 8.76267 53.1679 8.912C54.1013 9.06133 54.8573 9.23867 55.4359 9.444V12.776C53.9053 12.1973 52.3093 11.908 50.6479 11.908C49.4719 11.908 48.5479 12.0387 47.8759 12.3C47.2039 12.5427 46.8679 13.0653 46.8679 13.868C46.8679 14.3347 46.9893 14.708 47.2319 14.988C47.4746 15.268 47.8853 15.52 48.4639 15.744C49.0613 15.968 49.8919 16.22 50.9559 16.5C52.4306 16.892 53.5693 17.3587 54.3719 17.9C55.1746 18.4413 55.7253 19.0573 56.0239 19.748C56.3413 20.4387 56.4999 21.2133 56.4999 22.072C56.4999 23.64 55.9026 24.9 54.7079 25.852C53.5133 26.804 51.6746 27.28 49.1919 27.28ZM59.1232 33.048V13.728H62.3992L62.5952 14.96C63.1739 14.4747 63.8085 14.1013 64.4992 13.84C65.1899 13.5787 66.0019 13.448 66.9352 13.448C68.8765 13.448 70.3699 13.98 71.4152 15.044C72.4792 16.0893 73.0112 17.8067 73.0112 20.196C73.0112 22.5853 72.4419 24.368 71.3032 25.544C70.1832 26.7013 68.6525 27.28 66.7112 27.28C65.2179 27.28 63.9485 26.944 62.9032 26.272V33.048H59.1232ZM65.7592 24.508C66.8792 24.508 67.7285 24.1627 68.3072 23.472C68.8859 22.7813 69.1752 21.6987 69.1752 20.224C69.1752 18.8053 68.9139 17.788 68.3912 17.172C67.8685 16.5373 67.0285 16.22 65.8712 16.22C64.7139 16.22 63.7245 16.6213 62.9032 17.424V23.5C63.2952 23.7987 63.7059 24.0413 64.1352 24.228C64.5832 24.4147 65.1245 24.508 65.7592 24.508ZM82.2748 27.28C79.7921 27.28 77.9721 26.6827 76.8148 25.488C75.6575 24.2747 75.0788 22.5667 75.0788 20.364C75.0788 18.1613 75.6575 16.4627 76.8148 15.268C77.9908 14.0547 79.8108 13.448 82.2748 13.448C84.7575 13.448 86.5775 14.0547 87.7348 15.268C88.9108 16.4627 89.4988 18.1613 89.4988 20.364C89.4988 22.5667 88.9202 24.2747 87.7628 25.488C86.6055 26.6827 84.7762 27.28 82.2748 27.28ZM82.2748 24.06C83.4882 24.06 84.3562 23.7893 84.8788 23.248C85.4015 22.688 85.6628 21.7267 85.6628 20.364C85.6628 19.0013 85.4015 18.0493 84.8788 17.508C84.3562 16.948 83.4882 16.668 82.2748 16.668C81.0801 16.668 80.2215 16.948 79.6988 17.508C79.1761 18.0493 78.9148 19.0013 78.9148 20.364C78.9148 21.7267 79.1761 22.688 79.6988 23.248C80.2215 23.7893 81.0801 24.06 82.2748 24.06ZM92.1271 27V13.728H95.6271L95.7951 15.1C96.3924 14.7267 97.1298 14.3907 98.0071 14.092C98.9031 13.7747 99.7804 13.56 100.639 13.448V16.304C100.135 16.3787 99.5844 16.4907 98.9871 16.64C98.3898 16.7893 97.8204 16.9573 97.2791 17.144C96.7378 17.3307 96.2804 17.5267 95.9071 17.732V27H92.1271ZM107.836 27.28C106.306 27.28 105.167 26.8787 104.42 26.076C103.692 25.2733 103.328 24.1813 103.328 22.8V16.64H101.452V13.728H103.328V10.872L107.108 9.752V13.728H110.468L110.244 16.64H107.108V22.548C107.108 23.276 107.276 23.78 107.612 24.06C107.948 24.3213 108.471 24.452 109.18 24.452C109.703 24.452 110.244 24.3587 110.804 24.172V26.776C110.394 26.944 109.946 27.0653 109.46 27.14C108.975 27.2333 108.434 27.28 107.836 27.28ZM116.916 27.28C116.076 27.28 115.292 27.1307 114.564 26.832C113.855 26.5147 113.276 26.0573 112.828 25.46C112.399 24.844 112.184 24.0787 112.184 23.164C112.184 21.8573 112.642 20.812 113.556 20.028C114.49 19.244 115.862 18.852 117.672 18.852H121.592V18.488C121.592 17.6667 121.359 17.088 120.892 16.752C120.444 16.416 119.53 16.248 118.148 16.248C116.636 16.248 115.18 16.4813 113.78 16.948V14.288C114.396 14.0453 115.143 13.8493 116.02 13.7C116.916 13.532 117.887 13.448 118.932 13.448C120.93 13.448 122.47 13.8587 123.552 14.68C124.654 15.4827 125.204 16.78 125.204 18.572V27H121.928L121.732 25.796C121.21 26.2627 120.566 26.6267 119.8 26.888C119.035 27.1493 118.074 27.28 116.916 27.28ZM117.952 24.788C118.792 24.788 119.52 24.648 120.136 24.368C120.752 24.088 121.238 23.7333 121.592 23.304V21.204H117.756C116.282 21.204 115.544 21.8107 115.544 23.024C115.544 24.2 116.347 24.788 117.952 24.788ZM128.248 27V13.728H131.748L131.888 14.988C132.43 14.5773 133.111 14.2227 133.932 13.924C134.772 13.6067 135.65 13.448 136.564 13.448C138.319 13.448 139.598 13.8587 140.4 14.68C141.203 15.5013 141.604 16.7707 141.604 18.488V27H137.824V18.684C137.824 17.788 137.638 17.1533 137.264 16.78C136.91 16.4067 136.238 16.22 135.248 16.22C134.67 16.22 134.082 16.3507 133.484 16.612C132.906 16.8733 132.42 17.2 132.028 17.592V27H128.248ZM149.358 27.28C148.368 27.28 147.426 27.2053 146.53 27.056C145.634 26.9253 144.915 26.7573 144.374 26.552V23.416C145.027 23.6773 145.764 23.8827 146.586 24.032C147.407 24.1627 148.163 24.228 148.854 24.228C149.787 24.228 150.44 24.172 150.814 24.06C151.206 23.948 151.402 23.696 151.402 23.304C151.402 22.856 151.103 22.5293 150.506 22.324C149.927 22.1187 149.059 21.8293 147.902 21.456C146.688 21.0453 145.755 20.5507 145.102 19.972C144.448 19.3933 144.122 18.5347 144.122 17.396C144.122 16.1267 144.579 15.156 145.494 14.484C146.427 13.7933 147.92 13.448 149.974 13.448C150.795 13.448 151.57 13.5133 152.298 13.644C153.026 13.756 153.642 13.896 154.146 14.064V17.172C153.642 16.9293 153.063 16.752 152.41 16.64C151.756 16.5093 151.15 16.444 150.59 16.444C149.787 16.444 149.143 16.5 148.658 16.612C148.191 16.724 147.958 16.9667 147.958 17.34C147.958 17.7507 148.21 18.04 148.714 18.208C149.236 18.376 150.039 18.628 151.122 18.964C152.186 19.2813 153.016 19.6267 153.614 20C154.211 20.3733 154.631 20.8213 154.874 21.344C155.116 21.848 155.238 22.4827 155.238 23.248C155.238 25.936 153.278 27.28 149.358 27.28Z" fill="white"/>
<path fill-rule="evenodd" clip-rule="evenodd" d="M17.3825 2.00817C17.2547 2.00533 17.1265 2.00391 16.998 2.00391C16.7404 2.00391 16.4841 2.00964 16.2293 2.02097L17.3825 2.00817ZM15.8104 2.04475C11.6964 2.32866 7.98514 4.07649 5.1938 6.77105C8.39674 9.86266 10.3887 14.2006 10.3887 19.0038C10.3887 23.806 8.39757 28.1431 5.19579 31.2346C8.07189 34.0101 11.9242 35.7807 16.1872 35.9809L15.8104 2.04475ZM16.7556 35.9981C16.8362 35.9993 16.917 35.9998 16.998 35.9998C17.2079 35.9998 17.4168 35.996 17.6249 35.9885L16.7556 35.9981ZM18.1871 35.9589C22.5452 35.6577 26.4513 33.7138 29.2904 30.7419C26.0243 27.8245 23.8921 23.6642 23.6368 19.004H23.6119V18.2333C23.6113 18.1753 23.611 18.1174 23.611 18.0593C23.611 18.0012 23.6113 17.9433 23.6119 17.8853V17.004H23.6432C23.8965 12.869 25.6279 9.13354 28.3157 6.31939C25.4985 3.80354 21.8377 2.21246 17.8103 2.02297L18.1871 35.9589ZM25.6403 19.004H33.9959C33.9955 22.8371 32.7263 26.3737 30.5854 29.2168C27.7503 26.6677 25.8919 23.0534 25.6403 19.004ZM25.6476 17.004L33.8798 17.004C33.466 13.4699 31.9681 10.267 29.7275 7.73704C27.4025 10.1876 25.8965 13.4227 25.6476 17.004ZM0.116169 17.004L8.2566 17.004C7.80113 13.5851 6.19405 10.5303 3.83816 8.24233C1.83644 10.6877 0.502865 13.7012 0.116169 17.004ZM8.38875 19.004H0C0.000503451 23.0868 1.44042 26.8332 3.83991 29.7636C6.64552 27.0379 8.38869 23.2245 8.38875 19.004Z" fill="white"/>
</svg>
